<svg xmlns="http://www.w3.org/2000/svg" width="400" height="409" viewBox="0 0 400 409">
  <g id="Grupo_1101535" data-name="Grupo 1101535" transform="translate(-1020.051 -1807)">
    <path id="Trazado_879076" data-name="Trazado 879076" d="M13,0H387a13,13,0,0,1,13,13V396a13,13,0,0,1-13,13H13A13,13,0,0,1,0,396V13A13,13,0,0,1,13,0Z" transform="translate(1020.051 1807)" fill="#fdeab6"/>
    <path id="Trazado_879077" data-name="Trazado 879077" d="M2.992-8.453l.094,1.117a2.84,2.84,0,0,1,1.02-.941,2.932,2.932,0,0,1,1.418-.332,2.582,2.582,0,0,1,1.391.359,2.217,2.217,0,0,1,.875,1.086A2.93,2.93,0,0,1,8.8-8.227a2.756,2.756,0,0,1,1.469-.383,2.408,2.408,0,0,1,1.973.887,4.233,4.233,0,0,1,.723,2.707V0H10.688V-5.023a2.369,2.369,0,0,0-.312-1.414,1.109,1.109,0,0,0-.93-.4,1.592,1.592,0,0,0-.84.215,1.565,1.565,0,0,0-.566.6q0,.148.008.254t.008.215V0H5.781V-5.023a2.376,2.376,0,0,0-.312-1.4,1.1,1.1,0,0,0-.937-.41,1.769,1.769,0,0,0-.809.176,1.551,1.551,0,0,0-.574.5V0H.875V-8.453ZM18.383.164A3.8,3.8,0,0,1,15.43-1a4.252,4.252,0,0,1-1.062-2.988V-4.3A4.628,4.628,0,0,1,15.4-7.406a3.506,3.506,0,0,1,2.836-1.2,3.282,3.282,0,0,1,2.613,1.043,4.122,4.122,0,0,1,.91,2.809v1.18H16.719l-.023.047a2.284,2.284,0,0,0,.527,1.406,1.766,1.766,0,0,0,1.4.539,4.692,4.692,0,0,0,1.3-.156,5.307,5.307,0,0,0,1.105-.477l.617,1.406a4.234,4.234,0,0,1-1.375.7A6.1,6.1,0,0,1,18.383.164Zm-.148-7.016a1.267,1.267,0,0,0-1.059.473,2.371,2.371,0,0,0-.449,1.254l.016.039h2.781v-.172a1.974,1.974,0,0,0-.3-1.168A1.127,1.127,0,0,0,18.234-6.852Zm4.5,2.7A5.493,5.493,0,0,1,23.6-7.383a2.8,2.8,0,0,1,2.434-1.227,2.367,2.367,0,0,1,1.141.273,2.744,2.744,0,0,1,.891.781v-4.633h2.289V0H28.406l-.2-1.039a2.826,2.826,0,0,1-.945.895,2.5,2.5,0,0,1-1.25.309A2.858,2.858,0,0,1,23.6-.977a4.871,4.871,0,0,1-.863-3.016Zm2.273.164a3.443,3.443,0,0,0,.375,1.746,1.306,1.306,0,0,0,1.219.637,1.775,1.775,0,0,0,.859-.2,1.589,1.589,0,0,0,.6-.582v-3.6a1.756,1.756,0,0,0-.6-.621,1.589,1.589,0,0,0-.848-.223,1.287,1.287,0,0,0-1.223.742,4.194,4.194,0,0,0-.387,1.938ZM34.516,0H32.234V-8.453h2.281Zm0-10.477H32.234v-1.711h2.281ZM41.375,0a4.8,4.8,0,0,1-.215-.609,4.239,4.239,0,0,1-.129-.656A3.127,3.127,0,0,1,40.1-.242a2.33,2.33,0,0,1-1.375.406A2.855,2.855,0,0,1,36.68-.52a2.449,2.449,0,0,1-.719-1.863,2.229,2.229,0,0,1,.957-1.926,4.78,4.78,0,0,1,2.793-.684h1.281v-.672a1.315,1.315,0,0,0-.32-.945,1.257,1.257,0,0,0-.953-.336,1.239,1.239,0,0,0-.855.27.941.941,0,0,0-.3.738h-2.2l-.016-.047a2.144,2.144,0,0,1,.934-1.848,4.055,4.055,0,0,1,2.582-.777,3.784,3.784,0,0,1,2.465.766,2.667,2.667,0,0,1,.941,2.2v3.492a6.605,6.605,0,0,0,.09,1.117A5.606,5.606,0,0,0,43.648,0ZM39.289-1.523a1.944,1.944,0,0,0,1.063-.3,1.6,1.6,0,0,0,.641-.687V-3.7H39.711a1.519,1.519,0,0,0-1.1.359,1.181,1.181,0,0,0-.371.883.881.881,0,0,0,.277.684A1.1,1.1,0,0,0,39.289-1.523Zm7.781-6.93.1,1.211A3.092,3.092,0,0,1,48.211-8.25a2.7,2.7,0,0,1,1.383-.359,2.513,2.513,0,0,1,2,.824,3.908,3.908,0,0,1,.719,2.605V0H50.023V-5.172a2.024,2.024,0,0,0-.316-1.285,1.166,1.166,0,0,0-.949-.379,1.992,1.992,0,0,0-.895.191,1.746,1.746,0,0,0-.637.527V0H44.945V-8.453ZM59,0a4.8,4.8,0,0,1-.215-.609,4.239,4.239,0,0,1-.129-.656,3.127,3.127,0,0,1-.93,1.023,2.33,2.33,0,0,1-1.375.406A2.855,2.855,0,0,1,54.3-.52a2.449,2.449,0,0,1-.719-1.863,2.229,2.229,0,0,1,.957-1.926,4.78,4.78,0,0,1,2.793-.684h1.281v-.672a1.315,1.315,0,0,0-.32-.945,1.257,1.257,0,0,0-.953-.336,1.239,1.239,0,0,0-.855.27.941.941,0,0,0-.3.738h-2.2l-.016-.047a2.144,2.144,0,0,1,.934-1.848,4.055,4.055,0,0,1,2.582-.777,3.784,3.784,0,0,1,2.465.766,2.667,2.667,0,0,1,.941,2.2v3.492a6.605,6.605,0,0,0,.09,1.117A5.606,5.606,0,0,0,61.273,0ZM56.914-1.523a1.944,1.944,0,0,0,1.063-.3,1.6,1.6,0,0,0,.641-.687V-3.7H57.336a1.519,1.519,0,0,0-1.1.359,1.181,1.181,0,0,0-.371.883.881.881,0,0,0,.277.684A1.1,1.1,0,0,0,56.914-1.523Z" transform="translate(1130.051 2092)" fill="#12263f"/>
    <path id="Trazado_874179" data-name="Trazado 874179" d="M-7348.928-9079.17c-4.934,1.492-4.6,8.764-4.6,8.764l334.492-3.689s-102.916-18.684-182.457-55.338c-36.32-16.74-52.107-67.965-78.639-67.965-30.463,0-35.857,31.1-41.287,50.967C-7330.367-9113.7-7324.877-9116.223-7348.928-9079.17Z" transform="translate(8406.58 11128.054)" fill="#9facb6" stroke="#12263f" stroke-width="1"/>
    <path id="Trazado_879078" data-name="Trazado 879078" d="M8610.615,11736.461l-1.064.012v-101.314q.53.661,1.064,1.332v0c12.2,15.321,25.549,33.406,44.476,42.129,79.54,36.654,182.457,55.339,182.457,55.339l-226.933,2.5v0Z" transform="translate(-7449.999 -9680)" fill="#c6e9f3" stroke="#707070" stroke-width="1"/>
    <path id="Trazado_879079" data-name="Trazado 879079" d="M0,0V149.455" transform="translate(1160.616 1928)" fill="none" stroke="red" stroke-width="3"/>
    <path id="Trazado_879080" data-name="Trazado 879080" d="M1.629-7.523l.984-9.539h9.516v2.742H5.414l-.469,3.984a4.134,4.134,0,0,1,1.207-.58,5.782,5.782,0,0,1,1.582-.252A4.523,4.523,0,0,1,11.42-9.7a6.243,6.243,0,0,1,1.307,4.225,5.984,5.984,0,0,1-1.418,4.113A5.488,5.488,0,0,1,6.973.246,6.559,6.559,0,0,1,2.941-1,3.9,3.9,0,0,1,1.324-4.43l.023-.059,3.293-.152a2.157,2.157,0,0,0,.645,1.664,2.383,2.383,0,0,0,1.688.6,2.013,2.013,0,0,0,1.775-.8A3.941,3.941,0,0,0,9.3-5.449,4.036,4.036,0,0,0,8.7-7.8a2.058,2.058,0,0,0-1.8-.873,2.622,2.622,0,0,0-1.506.363,1.982,1.982,0,0,0-.744.984Zm24.8,1.348A6.687,6.687,0,0,1,24.85-1.465,5.409,5.409,0,0,1,20.672.246a5.456,5.456,0,0,1-4.207-1.711,6.672,6.672,0,0,1-1.582-4.711v-4.7a6.714,6.714,0,0,1,1.576-4.711,5.4,5.4,0,0,1,4.189-1.723,5.428,5.428,0,0,1,4.189,1.723,6.683,6.683,0,0,1,1.588,4.711Zm-3.41-5.051a4.416,4.416,0,0,0-.627-2.543,2,2,0,0,0-1.74-.9,1.984,1.984,0,0,0-1.74.9,4.481,4.481,0,0,0-.615,2.543v5.379a4.492,4.492,0,0,0,.621,2.572,2.014,2.014,0,0,0,1.758.9,1.977,1.977,0,0,0,1.729-.9,4.526,4.526,0,0,0,.615-2.572Zm5.637-2.555a3.473,3.473,0,0,1,.979-2.52,3.621,3.621,0,0,1,2.725-1.008,3.645,3.645,0,0,1,2.742,1,3.479,3.479,0,0,1,.973,2.525v.9a3.444,3.444,0,0,1-.973,2.508,3.625,3.625,0,0,1-2.719,1,3.681,3.681,0,0,1-2.742-1,3.422,3.422,0,0,1-.984-2.508Zm2.273.9a1.756,1.756,0,0,0,.375,1.143,1.307,1.307,0,0,0,1.078.463,1.264,1.264,0,0,0,1.049-.463,1.775,1.775,0,0,0,.369-1.143v-.9a1.8,1.8,0,0,0-.375-1.154,1.28,1.28,0,0,0-1.066-.475,1.264,1.264,0,0,0-1.061.475,1.823,1.823,0,0,0-.369,1.154Zm5.883,8.7a3.447,3.447,0,0,1,.984-2.508A3.641,3.641,0,0,1,40.523-7.7a3.649,3.649,0,0,1,2.736,1,3.453,3.453,0,0,1,.979,2.514v.9a3.459,3.459,0,0,1-.973,2.52,3.625,3.625,0,0,1-2.719,1,3.689,3.689,0,0,1-2.748-1,3.431,3.431,0,0,1-.99-2.514Zm2.273.9a1.7,1.7,0,0,0,.4,1.143,1.326,1.326,0,0,0,1.061.475,1.272,1.272,0,0,0,1.09-.439,1.924,1.924,0,0,0,.328-1.178v-.9a1.786,1.786,0,0,0-.375-1.143A1.28,1.28,0,0,0,40.523-5.8a1.277,1.277,0,0,0-1.072.475,1.805,1.805,0,0,0-.369,1.143Zm-6.141,2-1.664-.879,8.332-13.336,1.664.879Z" transform="translate(1090.051 2028)" fill="#12263f"/>
    <path id="Trazado_879081" data-name="Trazado 879081" d="M1.629-7.523l.984-9.539h9.516v2.742H5.414l-.469,3.984a4.134,4.134,0,0,1,1.207-.58,5.782,5.782,0,0,1,1.582-.252A4.523,4.523,0,0,1,11.42-9.7a6.243,6.243,0,0,1,1.307,4.225,5.984,5.984,0,0,1-1.418,4.113A5.488,5.488,0,0,1,6.973.246,6.559,6.559,0,0,1,2.941-1,3.9,3.9,0,0,1,1.324-4.43l.023-.059,3.293-.152a2.157,2.157,0,0,0,.645,1.664,2.383,2.383,0,0,0,1.688.6,2.013,2.013,0,0,0,1.775-.8A3.941,3.941,0,0,0,9.3-5.449,4.036,4.036,0,0,0,8.7-7.8a2.058,2.058,0,0,0-1.8-.873,2.622,2.622,0,0,0-1.506.363,1.982,1.982,0,0,0-.744.984Zm24.8,1.348A6.687,6.687,0,0,1,24.85-1.465,5.409,5.409,0,0,1,20.672.246a5.456,5.456,0,0,1-4.207-1.711,6.672,6.672,0,0,1-1.582-4.711v-4.7a6.714,6.714,0,0,1,1.576-4.711,5.4,5.4,0,0,1,4.189-1.723,5.428,5.428,0,0,1,4.189,1.723,6.683,6.683,0,0,1,1.588,4.711Zm-3.41-5.051a4.416,4.416,0,0,0-.627-2.543,2,2,0,0,0-1.74-.9,1.984,1.984,0,0,0-1.74.9,4.481,4.481,0,0,0-.615,2.543v5.379a4.492,4.492,0,0,0,.621,2.572,2.014,2.014,0,0,0,1.758.9,1.977,1.977,0,0,0,1.729-.9,4.526,4.526,0,0,0,.615-2.572Zm5.637-2.555a3.473,3.473,0,0,1,.979-2.52,3.621,3.621,0,0,1,2.725-1.008,3.645,3.645,0,0,1,2.742,1,3.479,3.479,0,0,1,.973,2.525v.9a3.444,3.444,0,0,1-.973,2.508,3.625,3.625,0,0,1-2.719,1,3.681,3.681,0,0,1-2.742-1,3.422,3.422,0,0,1-.984-2.508Zm2.273.9a1.756,1.756,0,0,0,.375,1.143,1.307,1.307,0,0,0,1.078.463,1.264,1.264,0,0,0,1.049-.463,1.775,1.775,0,0,0,.369-1.143v-.9a1.8,1.8,0,0,0-.375-1.154,1.28,1.28,0,0,0-1.066-.475,1.264,1.264,0,0,0-1.061.475,1.823,1.823,0,0,0-.369,1.154Zm5.883,8.7a3.447,3.447,0,0,1,.984-2.508A3.641,3.641,0,0,1,40.523-7.7a3.649,3.649,0,0,1,2.736,1,3.453,3.453,0,0,1,.979,2.514v.9a3.459,3.459,0,0,1-.973,2.52,3.625,3.625,0,0,1-2.719,1,3.689,3.689,0,0,1-2.748-1,3.431,3.431,0,0,1-.99-2.514Zm2.273.9a1.7,1.7,0,0,0,.4,1.143,1.326,1.326,0,0,0,1.061.475,1.272,1.272,0,0,0,1.09-.439,1.924,1.924,0,0,0,.328-1.178v-.9a1.786,1.786,0,0,0-.375-1.143A1.28,1.28,0,0,0,40.523-5.8a1.277,1.277,0,0,0-1.072.475,1.805,1.805,0,0,0-.369,1.143Zm-6.141,2-1.664-.879,8.332-13.336,1.664.879Z" transform="translate(1170.051 2028)" fill="#12263f"/>
  </g>
</svg>
