<svg xmlns="http://www.w3.org/2000/svg" width="400" height="311" viewBox="0 0 400 311">
  <g id="Grupo_1101536" data-name="Grupo 1101536" transform="translate(-1020.051 -2448)">
    <path id="Trazado_879082" data-name="Trazado 879082" d="M5,0H395a5,5,0,0,1,5,5V306a5,5,0,0,1-5,5H5a5,5,0,0,1-5-5V5A5,5,0,0,1,5,0Z" transform="translate(1020.051 2448)" fill="#9facb6"/>
    <g id="Grupo_1099901" data-name="Grupo 1099901" transform="translate(1053.052 2516.755)">
      <g id="Grupo_1099900" data-name="Grupo 1099900">
        <path id="Trazado_874179" data-name="Trazado 874179" d="M-7348.928-9079.17c-4.934,1.492-4.6,8.764-4.6,8.764l334.492-3.689s-102.916-18.684-182.457-55.338c-36.32-16.74-52.107-67.965-78.639-67.965-30.463,0-35.857,31.1-41.287,50.967C-7330.367-9113.7-7324.877-9116.223-7348.928-9079.17Z" transform="translate(7353.528 9200.054)" fill="#9facb6" stroke="#12263f" stroke-width="1"/>
        <line id="Línea_576" data-name="Línea 576" y2="149.455" transform="translate(67.564)" fill="none" stroke="red" stroke-width="3"/>
      </g>
      <line id="Línea_577" data-name="Línea 577" x2="77.138" transform="translate(31.406)" fill="none" stroke="#fac22d" stroke-width="3"/>
    </g>
    <path id="Trazado_879083" data-name="Trazado 879083" d="M2.992-8.453l.094,1.117a2.84,2.84,0,0,1,1.02-.941,2.932,2.932,0,0,1,1.418-.332,2.582,2.582,0,0,1,1.391.359,2.217,2.217,0,0,1,.875,1.086A2.93,2.93,0,0,1,8.8-8.227a2.756,2.756,0,0,1,1.469-.383,2.408,2.408,0,0,1,1.973.887,4.233,4.233,0,0,1,.723,2.707V0H10.688V-5.023a2.369,2.369,0,0,0-.312-1.414,1.109,1.109,0,0,0-.93-.4,1.592,1.592,0,0,0-.84.215,1.565,1.565,0,0,0-.566.6q0,.148.008.254t.008.215V0H5.781V-5.023a2.376,2.376,0,0,0-.312-1.4,1.1,1.1,0,0,0-.937-.41,1.769,1.769,0,0,0-.809.176,1.551,1.551,0,0,0-.574.5V0H.875V-8.453ZM14.367-4.3a4.536,4.536,0,0,1,1.055-3.1,3.676,3.676,0,0,1,2.922-1.207,3.715,3.715,0,0,1,2.938,1.2,4.512,4.512,0,0,1,1.063,3.1v.164a4.519,4.519,0,0,1-1.059,3.105,3.7,3.7,0,0,1-2.926,1.2,3.709,3.709,0,0,1-2.934-1.2,4.519,4.519,0,0,1-1.059-3.105Zm2.273.164a3.677,3.677,0,0,0,.406,1.855,1.4,1.4,0,0,0,1.313.7,1.389,1.389,0,0,0,1.293-.7,3.653,3.653,0,0,0,.41-1.852V-4.3a3.616,3.616,0,0,0-.414-1.836,1.4,1.4,0,0,0-1.3-.711,1.384,1.384,0,0,0-1.293.715,3.648,3.648,0,0,0-.41,1.832ZM23.4-4.156a5.493,5.493,0,0,1,.863-3.227A2.8,2.8,0,0,1,26.7-8.609a2.367,2.367,0,0,1,1.141.273,2.744,2.744,0,0,1,.891.781v-4.633h2.289V0H29.07l-.2-1.039a2.826,2.826,0,0,1-.945.895,2.5,2.5,0,0,1-1.25.309A2.858,2.858,0,0,1,24.262-.977,4.871,4.871,0,0,1,23.4-3.992Zm2.273.164a3.443,3.443,0,0,0,.375,1.746,1.306,1.306,0,0,0,1.219.637,1.775,1.775,0,0,0,.859-.2,1.589,1.589,0,0,0,.6-.582v-3.6a1.756,1.756,0,0,0-.6-.621,1.589,1.589,0,0,0-.848-.223,1.287,1.287,0,0,0-1.223.742,4.194,4.194,0,0,0-.387,1.938ZM37.766,0a4.8,4.8,0,0,1-.215-.609,4.239,4.239,0,0,1-.129-.656,3.127,3.127,0,0,1-.93,1.023,2.33,2.33,0,0,1-1.375.406A2.855,2.855,0,0,1,33.07-.52a2.449,2.449,0,0,1-.719-1.863,2.229,2.229,0,0,1,.957-1.926A4.78,4.78,0,0,1,36.1-4.992h1.281v-.672a1.315,1.315,0,0,0-.32-.945,1.257,1.257,0,0,0-.953-.336,1.239,1.239,0,0,0-.855.27.941.941,0,0,0-.3.738h-2.2l-.016-.047a2.144,2.144,0,0,1,.934-1.848,4.055,4.055,0,0,1,2.582-.777,3.784,3.784,0,0,1,2.465.766,2.667,2.667,0,0,1,.941,2.2v3.492a6.605,6.605,0,0,0,.09,1.117A5.606,5.606,0,0,0,40.039,0ZM35.68-1.523a1.944,1.944,0,0,0,1.063-.3,1.6,1.6,0,0,0,.641-.687V-3.7H36.1a1.519,1.519,0,0,0-1.1.359,1.181,1.181,0,0,0-.371.883.881.881,0,0,0,.277.684A1.1,1.1,0,0,0,35.68-1.523Z" transform="translate(1100.051 2686)" fill="#12263f"/>
  </g>
</svg>
