<svg xmlns="http://www.w3.org/2000/svg" width="400" height="432" viewBox="0 0 400 432">
  <g id="Grupo_1101537" data-name="Grupo 1101537" transform="translate(-180 -3091)">
    <path id="Trazado_874183" data-name="Trazado 874183" d="M7,0H393c3.866,0,7,4.078,7,9.108V422.892c0,5.03-3.134,9.108-7,9.108H7c-3.866,0-7-4.078-7-9.108V9.108C0,4.078,3.134,0,7,0Z" transform="translate(180 3091)" fill="#e2dacc"/>
    <g id="Trazado_879084" data-name="Trazado 879084" transform="translate(215.384 3225.676)" fill="none">
      <path d="M328.671,138.306H0a118.079,118.079,0,0,1,3.339-27.873,122.27,122.27,0,0,1,9.576-25.961A133.161,133.161,0,0,1,28.066,60.978,147.9,147.9,0,0,1,48.132,40.509,162.91,162.91,0,0,1,72.453,23.621a176.106,176.106,0,0,1,27.915-12.752A186.773,186.773,0,0,1,131.216,2.81a196.574,196.574,0,0,1,66.238,0A186.668,186.668,0,0,1,228.3,10.869a176.082,176.082,0,0,1,27.916,12.752,162.909,162.909,0,0,1,24.321,16.888A147.838,147.838,0,0,1,300.6,60.978a133.161,133.161,0,0,1,15.151,23.494,122.27,122.27,0,0,1,9.576,25.961,118.081,118.081,0,0,1,3.339,27.872Z" stroke="none"/>
      <path d="M 325.6312866210938 135.3062744140625 C 325.4184265136719 127.164680480957 324.3397216796875 119.0506973266602 322.4165649414062 111.1424560546875 C 320.3115539550781 102.4850006103516 317.1687622070312 93.96509552001953 313.075439453125 85.81927490234375 C 309.0525817871094 77.81304931640625 304.0697631835938 70.08699798583984 298.2654418945312 62.85595703125 C 292.5092163085938 55.68568420410156 285.8949890136719 48.93936538696289 278.6066589355469 42.80463790893555 C 271.3078918457031 36.66281890869141 263.276123046875 31.08591079711914 254.7344360351562 26.22895622253418 C 246.1013031005859 21.3203182220459 236.8693389892578 17.10336494445801 227.2948913574219 13.69513702392578 C 217.5384368896484 10.2218189239502 207.3271636962891 7.55427360534668 196.9444732666016 5.766500949859619 C 186.285888671875 3.930773496627808 175.314208984375 3.000000953674316 164.3342437744141 3.000000953674316 C 153.3549346923828 3.000000953674316 142.3836212158203 3.930773496627808 131.7250213623047 5.766546249389648 C 121.3443450927734 7.55427360534668 111.1329803466797 10.22186470031738 101.3747940063477 13.69509220123291 C 91.79561614990234 17.10577392578125 82.56398010253906 21.32272720336914 73.9361572265625 26.22891044616699 C 65.39424896240234 31.08604621887207 57.36247634887695 36.66291046142578 50.06420516967773 42.80440902709961 C 42.77861404418945 48.93677520751953 36.16424942016602 55.68318176269531 30.40515899658203 62.85581970214844 C 24.60070610046387 70.08708953857422 19.61788749694824 77.81314086914062 15.59506893157959 85.81941223144531 C 11.50179672241211 93.96495819091797 8.359024047851562 102.48486328125 6.253932476043701 111.1426391601562 C 4.330951690673828 119.049446105957 3.252221584320068 127.1642074584961 3.039257287979126 135.3062744140625 L 325.6312866210938 135.3062744140625 M 328.6705322265625 138.3062744140625 L 2.358176425332204e-05 138.3062744140625 C 2.358176425332204e-05 128.9214172363281 1.123387217521667 119.5433197021484 3.338887214660645 110.4336853027344 C 5.497887134552002 101.5542297363281 8.719659805297852 92.82004547119141 12.91447830200195 84.47236633300781 C 17.03156852722168 76.27845764160156 22.12870597839355 68.37418365478516 28.06561470031738 60.97790908813477 C 33.94702529907227 53.6529541015625 40.69852447509766 46.76636505126953 48.13229751586914 40.50922775268555 C 55.570068359375 34.2503662109375 63.7527961730957 28.56831932067871 72.4532470703125 23.62104606628418 C 81.23548126220703 18.62704658508301 90.62738800048828 14.3372278213501 100.368522644043 10.86890983581543 C 110.2872543334961 7.3385009765625 120.6652526855469 4.62704610824585 131.2158813476562 2.810046195983887 C 142.0420227050781 0.9454553723335266 153.1851196289062 8.433949005848262e-07 164.3342437744141 8.433949005848262e-07 C 175.4843902587891 8.433949005848262e-07 186.6274719238281 0.9454553723335266 197.4536590576172 2.810046195983887 C 208.0062561035156 4.62704610824585 218.3842468261719 7.3385009765625 228.301025390625 10.86890983581543 C 238.0421142578125 14.33640956878662 247.4340209960938 18.62704658508301 256.2172546386719 23.62104606628418 C 264.9177551269531 28.56831932067871 273.1004333496094 34.2503662109375 280.5382385253906 40.50922775268555 C 287.9750366210938 46.7689094543457 294.7265319824219 53.65550231933594 300.6048278808594 60.97790908813477 C 306.5418090820312 68.37418365478516 311.6389465332031 76.27845764160156 315.7560729980469 84.47236633300781 C 319.9508361816406 92.82004547119141 323.1726684570312 101.5542297363281 325.3316650390625 110.4336853027344 C 327.5471496582031 119.5441818237305 328.6705322265625 128.9214172363281 328.6705322265625 138.3054046630859 L 328.6705322265625 138.3062744140625 Z" stroke="none" fill="#10314b"/>
    </g>
    <path id="Trazado_874181" data-name="Trazado 874181" d="M-7439.057-8349.93v4.275h321.836v-4.275" transform="translate(7657.87 11716.583)" fill="none" stroke="#10314b" stroke-width="1"/>
    <path id="Trazado_879085" data-name="Trazado 879085" d="M0,0V132.217" transform="translate(380.236 3228.721)" fill="none" stroke="red" stroke-width="1"/>
    <path id="Trazado_879086" data-name="Trazado 879086" d="M0,0,80.026,133.957" transform="translate(390.865 3226.981)" fill="none" stroke="#0dff00" stroke-width="1"/>
    <path id="Trazado_879087" data-name="Trazado 879087" d="M52.191,0,0,69.588" transform="translate(422.744 3255.687)" fill="none" stroke="#ff00eb" stroke-width="1"/>
    <path id="Trazado_879088" data-name="Trazado 879088" d="M0,0,1.74,105.252" transform="translate(475.584 3255.687)" fill="none" stroke="#3d03ff" stroke-width="1"/>
    <path id="Trazado_879089" data-name="Trazado 879089" d="M0,0,50.451,37.4" transform="translate(422.443 3325.274)" fill="none" stroke="#707070" stroke-width="1"/>
    <path id="Trazado_879090" data-name="Trazado 879090" d="M0,35.664,28.705,0" transform="translate(384.312 3325.274)" fill="none" stroke="#707070" stroke-width="1"/>
    <path id="Trazado_879091" data-name="Trazado 879091" d="M0,0V3.479" transform="translate(477.391 3367.027)" fill="none" stroke="#10314b" stroke-width="1"/>
    <path id="Trazado_879092" data-name="Trazado 879092" d="M4.761,0a3.9,3.9,0,0,1-.175-.5,3.444,3.444,0,0,1-.1-.533A2.541,2.541,0,0,1,3.726-.2a1.893,1.893,0,0,1-1.117.33A2.319,2.319,0,0,1,.946-.422,1.99,1.99,0,0,1,.362-1.936,1.811,1.811,0,0,1,1.139-3.5a3.883,3.883,0,0,1,2.269-.555H4.45V-4.6a1.069,1.069,0,0,0-.26-.768,1.022,1.022,0,0,0-.774-.273,1.007,1.007,0,0,0-.7.219.765.765,0,0,0-.244.6H.692L.679-4.862a1.742,1.742,0,0,1,.759-1.5A3.3,3.3,0,0,1,3.536-7a3.075,3.075,0,0,1,2,.622A2.167,2.167,0,0,1,6.3-4.589v2.837a5.366,5.366,0,0,0,.073.908A4.555,4.555,0,0,0,6.608,0ZM3.066-1.238a1.579,1.579,0,0,0,.863-.241,1.3,1.3,0,0,0,.521-.559v-.971H3.409a1.234,1.234,0,0,0-.892.292.96.96,0,0,0-.3.717.716.716,0,0,0,.225.555A.891.891,0,0,0,3.066-1.238Z" transform="translate(344.071 3381.202)" fill="#12263f"/>
    <path id="Trazado_879093" data-name="Trazado 879093" d="M6.906-3.244A4.017,4.017,0,0,1,6.221-.787a2.318,2.318,0,0,1-1.98.92A2.093,2.093,0,0,1,3.19-.121a2.171,2.171,0,0,1-.759-.743L2.279,0H.711V-9.9H2.558v3.764a2.1,2.1,0,0,1,.714-.635A2,2,0,0,1,4.228-7a2.275,2.275,0,0,1,1.993.987,4.531,4.531,0,0,1,.686,2.631ZM5.059-3.377a3.576,3.576,0,0,0-.3-1.59,1.036,1.036,0,0,0-1.006-.587,1.384,1.384,0,0,0-.73.181,1.254,1.254,0,0,0-.47.517v2.907a1.178,1.178,0,0,0,.473.476,1.522,1.522,0,0,0,.74.165,1.054,1.054,0,0,0,1-.5,2.939,2.939,0,0,0,.286-1.431Z" transform="translate(511.871 3378.593)" fill="#12263f"/>
    <path id="Trazado_879094" data-name="Trazado 879094" d="M8.545-1.36A3.782,3.782,0,0,1,7.157-.3,5.462,5.462,0,0,1,4.778.144,4.023,4.023,0,0,1,1.825-.991,3.96,3.96,0,0,1,.677-3.937V-6.016A4.029,4.029,0,0,1,1.791-8.958,3.834,3.834,0,0,1,4.655-10.1a4.071,4.071,0,0,1,2.8.865,2.841,2.841,0,0,1,.937,2.307l-.014.041H6.494a1.632,1.632,0,0,0-.458-1.234A1.848,1.848,0,0,0,4.7-8.559a1.792,1.792,0,0,0-1.477.708,2.845,2.845,0,0,0-.561,1.822v2.092A2.835,2.835,0,0,0,3.24-2.1a1.876,1.876,0,0,0,1.538.711A3.539,3.539,0,0,0,5.9-1.531a1.714,1.714,0,0,0,.639-.362V-3.821H4.628V-5.2H8.545Z" transform="translate(490.125 3313.484)" fill="#3d24fb"/>
    <path id="Trazado_879095" data-name="Trazado 879095" d="M8.322,0H6.468V-3.84H2.7V0H.851V-9.242H2.7v3.974H6.468V-9.242H8.322Z" transform="translate(445.017 3301.176)" fill="#fc26eb"/>
    <path id="Trazado_879096" data-name="Trazado 879096" d="M8.328-3.79a4.356,4.356,0,0,1-.194,1.314,3.891,3.891,0,0,1-.549,1.111L8.963.013,7.75,1,6.4-.33a3.805,3.805,0,0,1-.911.346A4.349,4.349,0,0,1,4.462.133,3.68,3.68,0,0,1,1.682-.978,3.9,3.9,0,0,1,.616-3.79V-5.453A3.906,3.906,0,0,1,1.679-8.261,3.656,3.656,0,0,1,4.45-9.375a3.724,3.724,0,0,1,2.8,1.114A3.874,3.874,0,0,1,8.328-5.453ZM6.481-5.465a2.8,2.8,0,0,0-.54-1.771A1.786,1.786,0,0,0,4.45-7.928a1.73,1.73,0,0,0-1.463.692,2.853,2.853,0,0,0-.524,1.771V-3.79A2.874,2.874,0,0,0,2.99-2a1.745,1.745,0,0,0,1.473.692A1.769,1.769,0,0,0,5.948-2a2.85,2.85,0,0,0,.533-1.79Z" transform="translate(413.845 3302.916)" fill="#29fd2f"/>
    <path id="Trazado_879097" data-name="Trazado 879097" d="M5.668-1.993h-3L2.05,0H.114L3.231-9.242h1.9L8.233,0H6.3ZM3.129-3.447H5.218L4.2-6.7H4.158Z" transform="translate(381.533 3301.176)" fill="#fc0d1b"/>
    <path id="Trazado_874182" data-name="Trazado 874182" d="M-7254.744-8390.828s2.788,3.229,9.176,0" transform="translate(7666.797 11720.27)" fill="none" stroke="#707070" stroke-width="1"/>
  </g>
</svg>
