<svg id="Grupo_1099861" data-name="Grupo 1099861" xmlns="http://www.w3.org/2000/svg" width="73" height="73" viewBox="0 0 73 73">
  <circle id="Elipse_11489" data-name="Elipse 11489" cx="36.5" cy="36.5" r="36.5" fill="#3ba935"/>
  <g id="algoritmos" transform="translate(7.921 6)">
    <path id="Trazado_874011" data-name="Trazado 874011" d="M11.426,117.183v-8.946a8.09,8.09,0,0,0-.892-3.671c-2.076-4.077-4.341-12.229-4.508-16.442C5.368,71.481,16.2,62.881,29.132,62.881c10.621,0,19.589,4.483,19,19.569-.067,1.725,2.063,6.307,7.34,16.05.284.524-.239,1.145-.845,1.145H48.187c-.152,6.145,1.484,11.149-10.552,9.533v8" transform="translate(1.87 -55.984)" fill="#3f8fd5"/>
    <path id="Trazado_874012" data-name="Trazado 874012" d="M5.437,111.839H6.753v-8.946a8.794,8.794,0,0,0-.964-3.97c-2.078-4.079-4.275-12.089-4.437-16.17-.295-7.453,1.771-13.7,5.974-18.076C11.344,60.5,17.194,58.2,23.8,58.2c6.329,0,11.092,1.615,14.156,4.8,3.02,3.14,4.429,7.879,4.187,14.084-.072,1.853,1.869,6.142,7.419,16.389a.3.3,0,0,1-.266.174H42.213l-.016.642c-.018.729-.011,1.436,0,2.12.025,2.644.045,4.733-1.288,5.91s-4.115,1.459-8.514.868l-.746-.1v8.757h1.316v-7.259c4.434.517,7.245.107,8.815-1.28,1.783-1.574,1.76-4.046,1.733-6.908,0-.468-.009-.947-.005-1.433H49.3a1.637,1.637,0,0,0,1.382-.786,1.336,1.336,0,0,0,.041-1.331C46.9,85.8,43.385,79.02,43.458,77.132c.257-6.577-1.276-11.64-4.554-15.048-3.322-3.454-8.4-5.2-15.1-5.2-6.967,0-13.154,2.445-17.422,6.885C1.921,68.4-.272,74.985.038,82.8.2,87.031,2.473,95.311,4.617,99.52a7.474,7.474,0,0,1,.821,3.373Z" transform="translate(7.202 -50.641)"/>
    <path id="Trazado_874013" data-name="Trazado 874013" d="M84.031,89.638h24.607a8.315,8.315,0,0,0,7.821-6.561c2.37-13.741-7.036-20.469-15.715-20.469l-2.72.03c-9.848,0-22.606,7.954-22.606,17.8v.585a8.614,8.614,0,0,0,8.614,8.614Z" transform="translate(-67.021 -55.741)" fill="#fdc00f"/>
    <path id="Trazado_874014" data-name="Trazado 874014" d="M78.681,84.955h24.607a8.971,8.971,0,0,0,8.469-7.107c1.344-7.8-1.115-12.689-3.415-15.419a17.033,17.033,0,0,0-12.948-5.819l-2.727.03A27.319,27.319,0,0,0,77.29,61.973a21.67,21.67,0,0,0-5.631,5.837,13.512,13.512,0,0,0-2.25,7.288v.585a9.283,9.283,0,0,0,9.272,9.272ZM95.4,57.925a15.7,15.7,0,0,1,11.934,5.351c3.04,3.609,4.121,8.571,3.125,14.348a7.635,7.635,0,0,1-7.172,6.015H78.681a7.965,7.965,0,0,1-7.956-7.956V75.1c0-4.331,2.607-8.615,7.339-12.061a25.963,25.963,0,0,1,14.608-5.081Z" transform="translate(-61.671 -50.4)"/>
    <path id="Trazado_874015" data-name="Trazado 874015" d="M160.663,230.746h13.213a5.193,5.193,0,1,0,0-10.385h-9.938v1.316h9.938a3.877,3.877,0,1,1,0,7.753H160.663Z" transform="translate(-138.61 -196.192)"/>
    <rect id="Rectángulo_401774" data-name="Rectángulo 401774" width="9.618" height="1.316" transform="translate(25.157 28.703)"/>
    <path id="Trazado_874016" data-name="Trazado 874016" d="M126.376,140.687a4.265,4.265,0,0,0-4.936-5.311l.254,1.291a2.949,2.949,0,0,1,3.412,3.671Z" transform="translate(-81.767 -120.457)"/>
    <path id="Trazado_874017" data-name="Trazado 874017" d="M339.257,255.82a4.266,4.266,0,0,0,.882-7.2l-.824,1.026a2.949,2.949,0,0,1-.609,4.975Z" transform="translate(-320.801 -221.354)"/>
    <path id="Trazado_874018" data-name="Trazado 874018" d="M89.945,134.386a2.877,2.877,0,0,1,3.939-1.02l.667-1.134a4.193,4.193,0,0,0-5.74,1.487Z" transform="translate(-46.212 -117.213)"/>
    <path id="Trazado_874019" data-name="Trazado 874019" d="M203.1,99.632a2.949,2.949,0,0,1,5.006-.252l1.083-.748a4.266,4.266,0,0,0-7.241.365Z" transform="translate(-173.254 -86.177)"/>
    <path id="Trazado_874020" data-name="Trazado 874020" d="M212.7,62.306l1.241-.44a2.877,2.877,0,0,1,1.751-3.672l-.439-1.24a4.193,4.193,0,0,0-2.552,5.352Z" transform="translate(-180.912 -50.707)"/>
    <path id="Trazado_874021" data-name="Trazado 874021" d="M107.081,210.423a4.266,4.266,0,0,0-3.233-6.49l-.121,1.311a2.949,2.949,0,0,1,2.234,4.487Z" transform="translate(-61.016 -181.566)"/>
    <path id="Trazado_874022" data-name="Trazado 874022" d="M172.6,161.964a4.247,4.247,0,0,0,2.2-.61l-.68-1.127a2.949,2.949,0,0,1-4.46-2.288l-1.312.106a4.263,4.263,0,0,0,4.256,3.919Z" transform="translate(-135.175 -140.617)"/>
    <path id="Trazado_874023" data-name="Trazado 874023" d="M260.587,18.552l.263-.031,2.5-.292a11.863,11.863,0,0,1,.726-2.394l-1.918-1.628-.2-.172a14.391,14.391,0,0,1,1.482-2.388l.245.1,2.309.995a11.1,11.1,0,0,1,1.826-1.7l-.844-2.377-.089-.251q.575-.384,1.194-.719t1.279-.6l.159.214,1.507,2.021a11.849,11.849,0,0,1,2.428-.575l.45-2.468.048-.262a14.425,14.425,0,0,1,2.814.1l.031.264.288,2.5a11.411,11.411,0,0,1,2.4.724L281.1,7.692l.172-.2a14.513,14.513,0,0,1,2.393,1.482l-.106.245-.993,2.3a11.861,11.861,0,0,1,1.7,1.833l2.37-.845.251-.089c.258.387.5.787.725,1.206a13.586,13.586,0,0,1,.607,1.271l-.213.158-2.026,1.5a12.36,12.36,0,0,1,.364,1.247q.131.586.2,1.183l2.476.456.261.048a14.344,14.344,0,0,1-.094,2.805l-.264.031-2.5.294a11.791,11.791,0,0,1-.725,2.4l1.913,1.624.2.173a14.37,14.37,0,0,1-1.485,2.39l-.243-.1-2.3-.993a12.292,12.292,0,0,1-1.824,1.7l.842,2.364.089.251q-.581.387-1.209.723t-1.275.6l-.158-.213-1.5-2.009a11.93,11.93,0,0,1-2.43.567l-.456,2.47-.049.26a14.237,14.237,0,0,1-2.8-.092L273,34.465l-.3-2.5a12.277,12.277,0,0,1-2.391-.72L268.68,33.16a13.92,13.92,0,0,1-2.454-1.523l1-2.312a11.4,11.4,0,0,1-1.711-1.826l-2.367.841-.251.089q-.387-.581-.723-1.213c-.221-.415-.419-.839-.6-1.267l.213-.158,2-1.5a11.912,11.912,0,0,1-.353-1.232c-.094-.4-.161-.8-.215-1.2l-2.468-.452-.259-.047A14.269,14.269,0,0,1,260.587,18.552Z" transform="translate(-259.807 -5.338)" fill="#d22732"/>
    <path id="Trazado_874024" data-name="Trazado 874024" d="M269.553,30.171q.491,0,.982-.032a.658.658,0,0,0,.6-.536l.419-2.268a12.618,12.618,0,0,0,1.623-.378l1.371,1.843a.658.658,0,0,0,.78.216c.445-.184.893-.4,1.333-.632s.854-.483,1.263-.756a.658.658,0,0,0,.255-.768l-.773-2.17a12.984,12.984,0,0,0,1.216-1.136l2.114.911a.658.658,0,0,0,.783-.2,15.064,15.064,0,0,0,1.553-2.5.658.658,0,0,0-.163-.792l-1.756-1.492a12.514,12.514,0,0,0,.486-1.6l2.29-.269a.658.658,0,0,0,.576-.567,15.04,15.04,0,0,0,.1-2.934.658.658,0,0,0-.539-.6l-2.269-.417c-.04-.248-.089-.5-.147-.763-.066-.283-.143-.566-.233-.859l1.858-1.381a.658.658,0,0,0,.215-.78,14.364,14.364,0,0,0-.636-1.332c-.229-.428-.484-.851-.756-1.258a.658.658,0,0,0-.768-.255l-2.173.774A12.6,12.6,0,0,0,278.019,6l.913-2.11a.658.658,0,0,0-.2-.784,15.213,15.213,0,0,0-2.5-1.55.658.658,0,0,0-.793.165L273.944,3.48a12.1,12.1,0,0,0-1.6-.485L272.077.708a.658.658,0,0,0-.567-.576,15.125,15.125,0,0,0-2.942-.1.658.658,0,0,0-.606.539l-.413,2.265a12.583,12.583,0,0,0-1.621.383l-1.383-1.855a.658.658,0,0,0-.78-.215c-.453.187-.9.4-1.337.631s-.842.479-1.25.752a.658.658,0,0,0-.255.768l.773,2.179a11.822,11.822,0,0,0-1.221,1.141L258.355,5.7a.658.658,0,0,0-.781.2,15.082,15.082,0,0,0-1.55,2.5.658.658,0,0,0,.165.793l1.76,1.493a12.484,12.484,0,0,0-.485,1.6l-2.292.268a.658.658,0,0,0-.576.568,14.957,14.957,0,0,0-.094,2.937.658.658,0,0,0,.537.6l2.264.415c.047.287.1.545.156.791.068.292.141.569.222.837l-1.838,1.372a.658.658,0,0,0-.216.78c.191.461.4.907.623,1.325.231.435.486.862.756,1.269a.658.658,0,0,0,.769.255l2.17-.771a12.16,12.16,0,0,0,1.146,1.221l-.811,1.877a.658.658,0,0,0,.2.781,14.6,14.6,0,0,0,2.57,1.595.658.658,0,0,0,.788-.166l1.325-1.556a13.049,13.049,0,0,0,1.6.483l.271,2.292a.658.658,0,0,0,.567.575A14.9,14.9,0,0,0,269.553,30.171Zm.387-1.322a13.73,13.73,0,0,1-1.66-.054l-.266-2.243a.658.658,0,0,0-.532-.569,11.676,11.676,0,0,1-2.263-.682.658.658,0,0,0-.751.182L263.176,27a13.293,13.293,0,0,1-1.479-.918l.792-1.834a.658.658,0,0,0-.174-.759,10.787,10.787,0,0,1-1.612-1.72.658.658,0,0,0-.749-.228l-2.125.755c-.145-.237-.284-.481-.415-.727s-.249-.486-.366-.742l1.8-1.344a.658.658,0,0,0,.228-.744,11.222,11.222,0,0,1-.334-1.165c-.078-.333-.143-.7-.2-1.143a.658.658,0,0,0-.533-.558l-2.213-.406a13.694,13.694,0,0,1,.054-1.662l2.242-.261a.658.658,0,0,0,.57-.53,11.162,11.162,0,0,1,.685-2.26.658.658,0,0,0-.18-.759l-1.722-1.461a13.785,13.785,0,0,1,.877-1.414l2.073.894a.658.658,0,0,0,.759-.175,10.49,10.49,0,0,1,1.718-1.6.658.658,0,0,0,.229-.75l-.758-2.136c.236-.146.473-.283.711-.411s.5-.255.751-.371l1.355,1.817a.658.658,0,0,0,.746.227A11.236,11.236,0,0,1,268.2,4.07a.658.658,0,0,0,.563-.535l.4-2.213a13.856,13.856,0,0,1,1.667.057l.259,2.24a.658.658,0,0,0,.534.572,10.741,10.741,0,0,1,2.259.683.658.658,0,0,0,.76-.179L276.1,2.976a13.963,13.963,0,0,1,1.417.877l-.891,2.06a.658.658,0,0,0,.17.756A11.241,11.241,0,0,1,278.405,8.4a.657.657,0,0,0,.749.228l2.128-.759c.146.237.285.479.417.722s.258.495.373.744l-1.818,1.35a.658.658,0,0,0-.23.743,11.7,11.7,0,0,1,.345,1.181c.085.383.149.759.191,1.111a.658.658,0,0,0,.534.57l2.222.409a13.771,13.771,0,0,1-.056,1.66l-2.242.264a.658.658,0,0,0-.57.533,11.183,11.183,0,0,1-.685,2.262.658.658,0,0,0,.181.756l1.717,1.457a13.773,13.773,0,0,1-.88,1.416l-2.066-.891a.658.658,0,0,0-.756.171,11.634,11.634,0,0,1-1.726,1.611.658.658,0,0,0-.223.746l.756,2.122c-.238.146-.48.285-.723.415s-.5.257-.749.373l-1.342-1.8a.658.658,0,0,0-.746-.228,11.286,11.286,0,0,1-2.3.536.658.658,0,0,0-.564.533Z" transform="translate(-254.468 -0.001)"/>
    <path id="Trazado_874025" data-name="Trazado 874025" d="M322.617,64.853a8.094,8.094,0,0,1,10.936,3.314,7.711,7.711,0,0,1,.752,2.013,8.074,8.074,0,0,1-14.994,5.6,8.284,8.284,0,0,1-.746-1.985A8.078,8.078,0,0,1,322.617,64.853Z" transform="translate(-311.345 -56.892)" fill="#b22732"/>
    <path id="Trazado_874026" data-name="Trazado 874026" d="M321.122,75.423a8.747,8.747,0,0,0,8.511-10.677,8.354,8.354,0,0,0-.814-2.179,8.772,8.772,0,0,0-11.824-3.582l0,0a8.752,8.752,0,0,0-4.38,9.668,8.919,8.919,0,0,0,.8,2.144,8.657,8.657,0,0,0,5.157,4.244,8.757,8.757,0,0,0,2.55.382Zm-.03-16.146a7.45,7.45,0,0,1,6.568,3.913,7.058,7.058,0,0,1,.689,1.843,7.415,7.415,0,0,1-13.77,5.148,7.6,7.6,0,0,1-.685-1.826,7.393,7.393,0,0,1,7.2-9.078Z" transform="translate(-306.031 -51.605)"/>
    <path id="Trazado_874027" data-name="Trazado 874027" d="M366.086,110.381a3.022,3.022,0,0,1,4.083,1.237,2.878,2.878,0,0,1,.281.752,3.014,3.014,0,0,1-5.6,2.09,3.091,3.091,0,0,1-.278-.741A3.015,3.015,0,0,1,366.086,110.381Z" transform="translate(-352.423 -97.958)" fill="#d1d3d4"/>
    <path id="Trazado_874028" data-name="Trazado 874028" d="M362.18,111.391a3.678,3.678,0,0,0,3.579-4.49,3.525,3.525,0,0,0-.343-.918,3.688,3.688,0,0,0-4.971-1.505l0,0a3.68,3.68,0,0,0-1.841,4.066,3.739,3.739,0,0,0,.338.9,3.641,3.641,0,0,0,2.17,1.786A3.68,3.68,0,0,0,362.18,111.391Zm-.011-6.028a2.368,2.368,0,0,1,2.088,1.244,2.218,2.218,0,0,1,.218.581,2.358,2.358,0,0,1-2.983,2.783,2.333,2.333,0,0,1-1.39-1.144,2.417,2.417,0,0,1-.218-.581,2.348,2.348,0,0,1,2.287-2.883Z" transform="translate(-347.09 -92.636)"/>
  </g>
</svg>
