<svg xmlns="http://www.w3.org/2000/svg" width="295" height="319.07" viewBox="0 0 295 319.07">
  <g id="Grupo_1101540" data-name="Grupo 1101540" transform="translate(-1125.426 -907)">
    <path id="Trazado_879103" data-name="Trazado 879103" d="M10,0H285a10,10,0,0,1,10,10V309.07a10,10,0,0,1-10,10H10a10,10,0,0,1-10-10V10A10,10,0,0,1,10,0Z" transform="translate(1125.426 907)" fill="#9facb6"/>
    <g id="Trazado_879104" data-name="Trazado 879104" transform="translate(1132.426 991)" fill="#e5e9eb">
      <path d="M 279.5 150.5 L 0.5 150.5 L 0.5 0.5 L 279.5 0.5 L 279.5 150.5 Z" stroke="none"/>
      <path d="M 1 1 L 1 150 L 279 150 L 279 1 L 1 1 M 0 0 L 280 0 L 280 151 L 0 151 L 0 0 Z" stroke="none" fill="#10314b"/>
    </g>
    <g id="Trazado_879105" data-name="Trazado 879105" transform="translate(1242.426 996)" fill="#9facb6">
      <path d="M 59.5 145.5 L 0.5 145.5 L 0.5 30 C 0.5 26.01730918884277 1.279909133911133 22.15399932861328 2.818054437637329 18.51741790771484 C 4.303836345672607 15.00463676452637 6.430963516235352 11.84974575042725 9.140345573425293 9.140345573425293 C 11.84974575042725 6.430963516235352 15.00463676452637 4.303836345672607 18.51741790771484 2.818054437637329 C 22.15399932861328 1.279909133911133 26.01730918884277 0.5 30 0.5 C 33.98269271850586 0.5 37.84600067138672 1.279909133911133 41.48258209228516 2.818054437637329 C 44.99536514282227 4.303836345672607 48.15025329589844 6.430963516235352 50.85965347290039 9.140345573425293 C 53.56903457641602 11.84974575042725 55.69616317749023 15.00463676452637 57.18194580078125 18.51741790771484 C 58.7200927734375 22.15399932861328 59.5 26.01730918884277 59.5 30 L 59.5 145.5 Z" stroke="none"/>
      <path d="M 30 1 C 26.08457946777344 1 22.28681945800781 1.766616821289062 18.71220016479492 3.278564453125 C 15.2590217590332 4.739120483398438 12.15753936767578 6.830276489257812 9.493900299072266 9.493896484375 C 6.830280303955078 12.15754699707031 4.739120483398438 15.25901794433594 3.278560638427734 18.71219635009766 C 1.766620635986328 22.28681945800781 1 26.08457946777344 1 30 L 1 145 L 59 145 L 59 30 C 59 26.08457946777344 58.23337936401367 22.28681945800781 56.72143936157227 18.71219635009766 C 55.26087951660156 15.25901794433594 53.16971969604492 12.15754699707031 50.50609970092773 9.493896484375 C 47.84246063232422 6.830276489257812 44.74098205566406 4.739120483398438 41.28779983520508 3.278564453125 C 37.71318054199219 1.766616821289062 33.91542053222656 1 30 1 M 30 0 C 46.56853866577148 0 60 13.43145751953125 60 30 L 60 146 L 0 146 L 0 30 C 0 13.43145751953125 13.43146133422852 0 30 0 Z" stroke="none" fill="#707070"/>
    </g>
    <path id="Trazado_879106" data-name="Trazado 879106" d="M0,0H98" transform="translate(1141.926 1095.5)" fill="none" stroke="#10314b" stroke-width="1"/>
    <path id="Trazado_879107" data-name="Trazado 879107" d="M0,0H51" transform="translate(1248.926 1095.5)" fill="none" stroke="#10314b" stroke-width="1"/>
    <path id="Trazado_879108" data-name="Trazado 879108" d="M3,0,6,10H0Z" transform="translate(1242.426 1093) rotate(90)" fill="#10314b"/>
    <path id="Trazado_879109" data-name="Trazado 879109" d="M3,0,6,10H0Z" transform="translate(1274.426 1093) rotate(90)" fill="#10314b"/>
    <path id="Trazado_879110" data-name="Trazado 879110" d="M3,0,6,10H0Z" transform="translate(1302.426 1093) rotate(90)" fill="#10314b"/>
    <path id="Trazado_879111" data-name="Trazado 879111" d="M0,0H98" transform="translate(1306.926 1095.5)" fill="none" stroke="#10314b" stroke-width="1"/>
    <path id="Trazado_879112" data-name="Trazado 879112" d="M3,0,6,10H0Z" transform="translate(1407.426 1093) rotate(90)" fill="#10314b"/>
    <path id="Trazado_879113" data-name="Trazado 879113" d="M3,0,6,10H0Z" transform="translate(1304.426 1099) rotate(-90)" fill="#10314b"/>
    <path id="Trazado_879114" data-name="Trazado 879114" d="M3,0,6,10H0Z" transform="translate(1272.426 1099) rotate(-90)" fill="#10314b"/>
    <path id="Trazado_879115" data-name="Trazado 879115" d="M3,0,6,10H0Z" transform="translate(1244.426 1099) rotate(-90)" fill="#10314b"/>
    <path id="Trazado_877516" data-name="Trazado 877516" d="M-2563.974-10488.1s24.831,6.839,58.745-28.1,37.1-111.2,74.459-112.22,46.255,77.277,79.891,112.22,57.105,28.1,57.105,28.1" transform="translate(3701.426 11624)" fill="none" stroke="#3ba935" stroke-width="2"/>
    <path id="Trazado_879116" data-name="Trazado 879116" d="M0,0V146" transform="translate(1272.926 996.5)" fill="none" stroke="#10314b" stroke-width="1"/>
    <path id="Trazado_877519" data-name="Trazado 877519" d="M3.786,12.117q1.6,0,2.689-2.157a7.169,7.169,0,0,0,.883-3.221,2.305,2.305,0,0,0-.4-1.435,1.416,1.416,0,0,0-1.2-.517q-1.543,0-2.631,2.064a7.185,7.185,0,0,0-.918,3.35,2.165,2.165,0,0,0,.412,1.426A1.431,1.431,0,0,0,3.786,12.117ZM2.915,13.21l.158-.009q.053,0,.117,0a6.547,6.547,0,0,1,1.4.246,6.568,6.568,0,0,0,1.461.246,2.514,2.514,0,0,0,1.269-.3,3.388,3.388,0,0,0,.719-.6l.181.123a3.769,3.769,0,0,1-1.73,1.368,3.38,3.38,0,0,1-1.2.228,7.177,7.177,0,0,1-1.526-.263,7.418,7.418,0,0,0-1.391-.263,2.493,2.493,0,0,0-.643.091,2.45,2.45,0,0,0-.666.3L.934,14.18q.684-.479,1.269-.965.357-.3.853-.754a2.275,2.275,0,0,1-1.5-.824A2.857,2.857,0,0,1,.922,9.691a5.327,5.327,0,0,1,1.537-3.63,4.484,4.484,0,0,1,3.332-1.7,2.685,2.685,0,0,1,2.04.818,2.8,2.8,0,0,1,.777,2.005A5.272,5.272,0,0,1,7,10.971a4.5,4.5,0,0,1-3.42,1.549Zm6.3,2.737.232,0a1.038,1.038,0,0,0,.365-.1A.392.392,0,0,0,10,15.589l.962-3.437q.024-.085.036-.145a.553.553,0,0,0,.012-.107.164.164,0,0,0-.078-.16.567.567,0,0,0-.249-.041l-.334.017v-.106l.089-.014q.1-.017.506-.1t.585-.119l.106-.024.065-.01.041.024q0,.02,0,.041a.175.175,0,0,1-.009.041l-1.146,4.177q-.007.027-.012.055a.3.3,0,0,0-.005.055.166.166,0,0,0,.123.177,2.149,2.149,0,0,0,.474.048v.1H9.216Z" transform="translate(1245.154 1119.641)" fill="#12263f"/>
    <path id="Trazado_877517" data-name="Trazado 877517" d="M3.786,12.117q1.6,0,2.689-2.157a7.169,7.169,0,0,0,.883-3.221,2.305,2.305,0,0,0-.4-1.435,1.416,1.416,0,0,0-1.2-.517q-1.543,0-2.631,2.064a7.185,7.185,0,0,0-.918,3.35,2.165,2.165,0,0,0,.412,1.426A1.431,1.431,0,0,0,3.786,12.117ZM2.915,13.21l.158-.009q.053,0,.117,0a6.547,6.547,0,0,1,1.4.246,6.568,6.568,0,0,0,1.461.246,2.514,2.514,0,0,0,1.269-.3,3.388,3.388,0,0,0,.719-.6l.181.123a3.769,3.769,0,0,1-1.73,1.368,3.38,3.38,0,0,1-1.2.228,7.177,7.177,0,0,1-1.526-.263,7.418,7.418,0,0,0-1.391-.263,2.493,2.493,0,0,0-.643.091,2.45,2.45,0,0,0-.666.3L.934,14.18q.684-.479,1.269-.965.357-.3.853-.754a2.275,2.275,0,0,1-1.5-.824A2.857,2.857,0,0,1,.922,9.691a5.327,5.327,0,0,1,1.537-3.63,4.484,4.484,0,0,1,3.332-1.7,2.685,2.685,0,0,1,2.04.818,2.8,2.8,0,0,1,.777,2.005A5.272,5.272,0,0,1,7,10.971a4.5,4.5,0,0,1-3.42,1.549Zm6.041,2.733,1.473-1.562a6.747,6.747,0,0,0,.6-.716,1.753,1.753,0,0,0,.4-.948A.871.871,0,0,0,11.2,12.1a.828.828,0,0,0-.639-.252.972.972,0,0,0-.668.256,1.778,1.778,0,0,0-.31.4l-.147-.051a1.671,1.671,0,0,1,.825-.982,1.432,1.432,0,0,1,.624-.14,1.047,1.047,0,0,1,.844.365,1.226,1.226,0,0,1,.309.812,1.271,1.271,0,0,1-.237.733,7.186,7.186,0,0,1-.8.91L9.652,15.5v.031h1.326a.8.8,0,0,0,.431-.092.838.838,0,0,0,.264-.344l.113.048-.348.921H8.956Z" transform="translate(1267.598 1119.641)" fill="#12263f"/>
    <path id="Trazado_877518" data-name="Trazado 877518" d="M3.786,12.117q1.6,0,2.689-2.157a7.169,7.169,0,0,0,.883-3.221,2.305,2.305,0,0,0-.4-1.435,1.416,1.416,0,0,0-1.2-.517q-1.543,0-2.631,2.064a7.185,7.185,0,0,0-.918,3.35,2.165,2.165,0,0,0,.412,1.426A1.431,1.431,0,0,0,3.786,12.117ZM2.915,13.21l.158-.009q.053,0,.117,0a6.547,6.547,0,0,1,1.4.246,6.568,6.568,0,0,0,1.461.246,2.514,2.514,0,0,0,1.269-.3,3.388,3.388,0,0,0,.719-.6l.181.123a3.769,3.769,0,0,1-1.73,1.368,3.38,3.38,0,0,1-1.2.228,7.177,7.177,0,0,1-1.526-.263,7.418,7.418,0,0,0-1.391-.263,2.493,2.493,0,0,0-.643.091,2.45,2.45,0,0,0-.666.3L.934,14.18q.684-.479,1.269-.965.357-.3.853-.754a2.275,2.275,0,0,1-1.5-.824A2.857,2.857,0,0,1,.922,9.691a5.327,5.327,0,0,1,1.537-3.63,4.484,4.484,0,0,1,3.332-1.7,2.685,2.685,0,0,1,2.04.818,2.8,2.8,0,0,1,.777,2.005A5.272,5.272,0,0,1,7,10.971a4.5,4.5,0,0,1-3.42,1.549Zm6.358,2.225a.509.509,0,0,1,.177.029.775.775,0,0,1,.16.084l.164.113a1.686,1.686,0,0,0,.208.126.64.64,0,0,0,.269.065.8.8,0,0,0,.617-.319,1.222,1.222,0,0,0,.273-.823,1.049,1.049,0,0,0-1.159-1.166l-.046,0-.084.005-.007-.113a2.5,2.5,0,0,0,1.3-.462.933.933,0,0,0,.38-.677.765.765,0,0,0-.136-.435.553.553,0,0,0-.494-.2.83.83,0,0,0-.409.113,1.121,1.121,0,0,0-.361.338l-.116-.038a1.348,1.348,0,0,1,.493-.542,1.213,1.213,0,0,1,.622-.17,1.075,1.075,0,0,1,.726.24.786.786,0,0,1,.28.626.814.814,0,0,1-.334.668,2.9,2.9,0,0,1-.75.372v.024a1.189,1.189,0,0,1,.4.283,1.145,1.145,0,0,1,.263.788,1.643,1.643,0,0,1-.539,1.217,1.9,1.9,0,0,1-1.378.549,1.589,1.589,0,0,1-.484-.061q-.324-.106-.324-.378a.252.252,0,0,1,.072-.174A.286.286,0,0,1,9.274,15.435Z" transform="translate(1287.798 1119.641)" fill="#12263f"/>
  </g>
</svg>
