<svg xmlns="http://www.w3.org/2000/svg" width="376" height="134" viewBox="0 0 376 134">
  <g id="Grupo_1101541" data-name="Grupo 1101541" transform="translate(-329.051 -899)">
    <g id="Trazado_879117" data-name="Trazado 879117" transform="translate(329.051 899)" fill="#fff">
      <path d="M 375.5 133.5 L 0.5 133.5 L 0.5 0.5 L 375.5 0.5 L 375.5 133.5 Z" stroke="none"/>
      <path d="M 1 1 L 1 133 L 375 133 L 375 1 L 1 1 M 0 0 L 376 0 L 376 134 L 0 134 L 0 0 Z" stroke="none" fill="#3ba935"/>
    </g>
    <path id="Trazado_879118" data-name="Trazado 879118" d="M23.1,14.1a6.719,6.719,0,0,1-.439,2.435,5.41,5.41,0,0,1-1.337,2,6.359,6.359,0,0,1-2.277,1.349,9.627,9.627,0,0,1-3.247.494H13.138L11.747,27h-2.1l3.7-17.5h4.529a6.663,6.663,0,0,1,2.4.385A4.514,4.514,0,0,1,21.9,10.905a3.9,3.9,0,0,1,.916,1.471A5.232,5.232,0,0,1,23.1,14.1Zm-2.161.183a3.1,3.1,0,0,0-.226-1.2,2.482,2.482,0,0,0-.665-.928,3.027,3.027,0,0,0-1.093-.592,4.982,4.982,0,0,0-1.508-.208h-2.38l-1.526,7.178h2.454a6.828,6.828,0,0,0,2.228-.323,4.235,4.235,0,0,0,1.538-.891,3.472,3.472,0,0,0,.891-1.343A4.835,4.835,0,0,0,20.939,14.28ZM33.048,9.5a29.325,29.325,0,0,0-2.728,3.076,20.778,20.778,0,0,0-2.069,3.284,17.264,17.264,0,0,0-1.318,3.522,15.611,15.611,0,0,0-.336,5.774,14.932,14.932,0,0,0,.385,1.953,15.856,15.856,0,0,0,.623,1.862,11.619,11.619,0,0,0,.842,1.685H26.725a11.606,11.606,0,0,1-.9-1.715,14.362,14.362,0,0,1-.641-1.862,14.933,14.933,0,0,1-.385-1.917,14.265,14.265,0,0,1-.128-1.88,16.965,16.965,0,0,1,.452-3.986,17.351,17.351,0,0,1,1.282-3.571,18.925,18.925,0,0,1,2.02-3.241A28.334,28.334,0,0,1,31.095,9.5ZM42.924,27l-.793-4.9H34.708L31.876,27H29.459L39.884,9.5h2.148L45.084,27ZM40.677,12.8q-.012-.122-.018-.281t-.006-.317v-.586H40.6q-.037.11-.1.262t-.134.317q-.073.165-.153.323l-.14.281L35.758,20.25H41.8Zm12,4.077a16.767,16.767,0,0,1-1.74,7.55,19.331,19.331,0,0,1-2.026,3.235,28.334,28.334,0,0,1-2.667,2.985H44.279a30.246,30.246,0,0,0,2.734-3.07A20.3,20.3,0,0,0,49.088,24.3a17.264,17.264,0,0,0,1.318-3.522,15.578,15.578,0,0,0,.336-5.768,15.913,15.913,0,0,0-.378-1.953,14.979,14.979,0,0,0-.616-1.868,12.2,12.2,0,0,0-.842-1.7h1.7a12.473,12.473,0,0,1,.9,1.733,14.084,14.084,0,0,1,.647,1.868,15.75,15.75,0,0,1,.391,1.91A13.5,13.5,0,0,1,52.677,16.88Zm4.578,1.05V16.294H68.729V17.93Zm0,5.2V21.495H68.729V23.13Z" transform="translate(346.051 929)" fill="#12263f"/>
    <path id="Trazado_879119" data-name="Trazado 879119" d="M62.465,23H60.353L52.785,11.28a4.9,4.9,0,0,1-.472-.923h-.062a15.138,15.138,0,0,1,.082,2.02V23H50.612V8.3h2.235l7.362,11.536q.461.718.595.984h.041a15.557,15.557,0,0,1-.1-2.164V8.3h1.723Zm12.12,0H72.9V21.339h-.041a3.453,3.453,0,0,1-3.24,1.907q-3.753,0-3.753-4.471V12.5h1.671v6.009q0,3.322,2.543,3.322a2.573,2.573,0,0,0,2.025-.907A3.472,3.472,0,0,0,72.9,18.55V12.5h1.682ZM73.006,7.147,70.32,10.511h-1.3L71.3,7.147ZM92.888,23H91.207V16.971a4.549,4.549,0,0,0-.538-2.522,2.042,2.042,0,0,0-1.81-.779,2.241,2.241,0,0,0-1.83.984,3.766,3.766,0,0,0-.754,2.358V23H84.593V16.766q0-3.1-2.389-3.1a2.213,2.213,0,0,0-1.825.928,3.836,3.836,0,0,0-.718,2.415V23H77.979V12.5h1.682v1.661H79.7a3.567,3.567,0,0,1,3.261-1.907,3.033,3.033,0,0,1,2.974,2.174,3.747,3.747,0,0,1,3.486-2.174q3.466,0,3.466,4.276Zm11.618-4.83H97.093a3.927,3.927,0,0,0,.943,2.707,3.252,3.252,0,0,0,2.481.954,5.159,5.159,0,0,0,3.261-1.169v1.579a6.094,6.094,0,0,1-3.661,1,4.438,4.438,0,0,1-3.5-1.43,5.855,5.855,0,0,1-1.271-4.025A5.742,5.742,0,0,1,96.739,13.8a4.455,4.455,0,0,1,3.45-1.543,3.948,3.948,0,0,1,3.189,1.333,5.558,5.558,0,0,1,1.128,3.7Zm-1.723-1.425a3.421,3.421,0,0,0-.7-2.266,2.393,2.393,0,0,0-1.923-.81,2.716,2.716,0,0,0-2.02.851,3.862,3.862,0,0,0-1.025,2.225Zm9.741-2.543a2.056,2.056,0,0,0-1.271-.338,2.146,2.146,0,0,0-1.8,1.015,4.693,4.693,0,0,0-.723,2.769V23h-1.682V12.5h1.682v2.164h.041a3.666,3.666,0,0,1,1.1-1.728,2.5,2.5,0,0,1,1.651-.62,2.745,2.745,0,0,1,1,.144Zm6.214,9.044a4.87,4.87,0,0,1-3.717-1.471,5.45,5.45,0,0,1-1.389-3.9,5.678,5.678,0,0,1,1.446-4.132,5.2,5.2,0,0,1,3.907-1.487A4.709,4.709,0,0,1,122.65,13.7a5.733,5.733,0,0,1,1.318,4.009,5.641,5.641,0,0,1-1.42,4.025A4.976,4.976,0,0,1,118.739,23.246Zm.123-9.577a3.2,3.2,0,0,0-2.563,1.1,4.527,4.527,0,0,0-.943,3.04,4.281,4.281,0,0,0,.954,2.943,3.241,3.241,0,0,0,2.553,1.077,3.074,3.074,0,0,0,2.507-1.056,4.583,4.583,0,0,0,.877-3,4.662,4.662,0,0,0-.877-3.035A3.061,3.061,0,0,0,118.862,13.669ZM141.369,23h-1.682V21.216h-.041a3.882,3.882,0,0,1-3.609,2.03,3.922,3.922,0,0,1-3.163-1.41A5.784,5.784,0,0,1,131.689,18,6.293,6.293,0,0,1,133,13.823a4.329,4.329,0,0,1,3.5-1.569,3.366,3.366,0,0,1,3.148,1.7h.041v-6.5h1.682Zm-1.682-4.748V16.7a3,3,0,0,0-.841-2.153,2.82,2.82,0,0,0-2.133-.882,2.9,2.9,0,0,0-2.42,1.128,4.943,4.943,0,0,0-.882,3.117,4.445,4.445,0,0,0,.846,2.866,2.765,2.765,0,0,0,2.271,1.051,2.872,2.872,0,0,0,2.281-1.015A3.782,3.782,0,0,0,139.687,18.252Zm13.525-.082H145.8a3.927,3.927,0,0,0,.943,2.707,3.252,3.252,0,0,0,2.481.954,5.159,5.159,0,0,0,3.261-1.169v1.579a6.094,6.094,0,0,1-3.661,1,4.438,4.438,0,0,1-3.5-1.43,5.855,5.855,0,0,1-1.271-4.025,5.742,5.742,0,0,1,1.389-3.994,4.455,4.455,0,0,1,3.45-1.543,3.948,3.948,0,0,1,3.189,1.333,5.558,5.558,0,0,1,1.128,3.7Zm-1.723-1.425a3.421,3.421,0,0,0-.7-2.266,2.393,2.393,0,0,0-1.923-.81,2.716,2.716,0,0,0-2.02.851,3.862,3.862,0,0,0-1.025,2.225Zm17.175,5.773a5.464,5.464,0,0,1-2.871.728,4.753,4.753,0,0,1-3.625-1.461A5.3,5.3,0,0,1,160.79,18a5.821,5.821,0,0,1,1.487-4.168,5.2,5.2,0,0,1,3.968-1.574,5.524,5.524,0,0,1,2.44.513v1.723a4.276,4.276,0,0,0-2.5-.82,3.381,3.381,0,0,0-2.64,1.154,4.377,4.377,0,0,0-1.031,3.03,4.168,4.168,0,0,0,.969,2.912,3.34,3.34,0,0,0,2.6,1.066,4.215,4.215,0,0,0,2.584-.913ZM178.724,23h-1.682V21.359H177a3.521,3.521,0,0,1-3.23,1.887,3.452,3.452,0,0,1-2.456-.831,2.878,2.878,0,0,1-.887-2.2q0-2.943,3.466-3.425l3.148-.441q0-2.676-2.164-2.676a5.169,5.169,0,0,0-3.425,1.292V13.238a6.507,6.507,0,0,1,3.568-.984q3.7,0,3.7,3.917Zm-1.682-5.312-2.533.349a4.112,4.112,0,0,0-1.764.579,1.671,1.671,0,0,0-.595,1.471,1.6,1.6,0,0,0,.549,1.256,2.12,2.12,0,0,0,1.461.487,2.7,2.7,0,0,0,2.066-.877,3.132,3.132,0,0,0,.815-2.22Zm4.214,4.932v-1.8a4.977,4.977,0,0,0,3.025,1.015q2.215,0,2.215-1.477a1.281,1.281,0,0,0-.19-.713,1.891,1.891,0,0,0-.513-.518,3.946,3.946,0,0,0-.759-.405q-.436-.179-.938-.374a12.084,12.084,0,0,1-1.225-.559,3.7,3.7,0,0,1-.882-.636,2.366,2.366,0,0,1-.533-.8,2.848,2.848,0,0,1-.179-1.056,2.509,2.509,0,0,1,.338-1.307,3,3,0,0,1,.9-.954,4.208,4.208,0,0,1,1.287-.579,5.708,5.708,0,0,1,1.492-.195,6.024,6.024,0,0,1,2.44.472v1.7a4.756,4.756,0,0,0-2.666-.759,3.116,3.116,0,0,0-.851.108,2.084,2.084,0,0,0-.651.3,1.4,1.4,0,0,0-.42.467,1.229,1.229,0,0,0-.149.6,1.439,1.439,0,0,0,.149.687,1.512,1.512,0,0,0,.436.492,3.331,3.331,0,0,0,.7.39q.41.174.933.379a12.986,12.986,0,0,1,1.251.549,4.291,4.291,0,0,1,.943.636,2.484,2.484,0,0,1,.6.815,2.629,2.629,0,0,1,.21,1.1,2.587,2.587,0,0,1-.344,1.354,2.944,2.944,0,0,1-.918.954,4.2,4.2,0,0,1-1.323.564,6.531,6.531,0,0,1-1.569.185A5.957,5.957,0,0,1,181.257,22.621Zm13.935.625a4.87,4.87,0,0,1-3.717-1.471,5.45,5.45,0,0,1-1.389-3.9,5.678,5.678,0,0,1,1.446-4.132,5.2,5.2,0,0,1,3.907-1.487A4.709,4.709,0,0,1,199.1,13.7a5.733,5.733,0,0,1,1.318,4.009A5.641,5.641,0,0,1,199,21.734,4.976,4.976,0,0,1,195.192,23.246Zm.123-9.577a3.2,3.2,0,0,0-2.563,1.1,4.527,4.527,0,0,0-.943,3.04,4.281,4.281,0,0,0,.954,2.943,3.241,3.241,0,0,0,2.553,1.077,3.074,3.074,0,0,0,2.507-1.056,4.583,4.583,0,0,0,.877-3,4.662,4.662,0,0,0-.877-3.035A3.061,3.061,0,0,0,195.315,13.669Zm7.157,8.952v-1.8a4.977,4.977,0,0,0,3.025,1.015q2.215,0,2.215-1.477a1.281,1.281,0,0,0-.19-.713,1.891,1.891,0,0,0-.513-.518,3.946,3.946,0,0,0-.759-.405q-.436-.179-.938-.374a12.084,12.084,0,0,1-1.225-.559,3.7,3.7,0,0,1-.882-.636,2.366,2.366,0,0,1-.533-.8,2.848,2.848,0,0,1-.179-1.056,2.509,2.509,0,0,1,.338-1.307,3,3,0,0,1,.9-.954,4.208,4.208,0,0,1,1.287-.579,5.708,5.708,0,0,1,1.492-.195,6.024,6.024,0,0,1,2.44.472v1.7a4.756,4.756,0,0,0-2.666-.759,3.116,3.116,0,0,0-.851.108,2.084,2.084,0,0,0-.651.3,1.4,1.4,0,0,0-.42.467,1.229,1.229,0,0,0-.149.6,1.439,1.439,0,0,0,.149.687,1.512,1.512,0,0,0,.436.492,3.331,3.331,0,0,0,.7.39q.41.174.933.379a12.986,12.986,0,0,1,1.251.549,4.291,4.291,0,0,1,.943.636,2.484,2.484,0,0,1,.6.815,2.629,2.629,0,0,1,.21,1.1,2.587,2.587,0,0,1-.344,1.354,2.944,2.944,0,0,1-.918.954,4.2,4.2,0,0,1-1.323.564,6.531,6.531,0,0,1-1.569.185A5.957,5.957,0,0,1,202.472,22.621ZM88.925,28.932a2.24,2.24,0,0,0-1.118-.277q-1.764,0-1.764,2.225V32.5H88.5v1.436H86.044V43H84.373V33.936H82.578V32.5h1.794V30.8a3.537,3.537,0,0,1,.954-2.61,3.219,3.219,0,0,1,2.379-.959,3.3,3.3,0,0,1,1.22.185ZM97.826,43H96.144V41.359H96.1a3.521,3.521,0,0,1-3.23,1.887,3.452,3.452,0,0,1-2.456-.831,2.878,2.878,0,0,1-.887-2.2q0-2.943,3.466-3.425l3.148-.441q0-2.676-2.164-2.676a5.169,5.169,0,0,0-3.425,1.292V33.238a6.507,6.507,0,0,1,3.568-.984q3.7,0,3.7,3.917Zm-1.682-5.312-2.533.349a4.112,4.112,0,0,0-1.764.579,1.671,1.671,0,0,0-.595,1.471,1.6,1.6,0,0,0,.549,1.256,2.12,2.12,0,0,0,1.461.487,2.7,2.7,0,0,0,2.066-.877,3.132,3.132,0,0,0,.815-2.22Zm13.1-5.188L105.065,43h-1.651L99.436,32.5h1.846l2.666,7.629a6.847,6.847,0,0,1,.369,1.466h.041a6.934,6.934,0,0,1,.328-1.425l2.789-7.67Zm6.193,10.746a4.87,4.87,0,0,1-3.717-1.471,5.45,5.45,0,0,1-1.389-3.9,5.678,5.678,0,0,1,1.446-4.132,5.2,5.2,0,0,1,3.907-1.487,4.709,4.709,0,0,1,3.666,1.446,5.733,5.733,0,0,1,1.318,4.009,5.641,5.641,0,0,1-1.42,4.025A4.976,4.976,0,0,1,115.442,43.246Zm.123-9.577a3.2,3.2,0,0,0-2.563,1.1,4.527,4.527,0,0,0-.943,3.04,4.281,4.281,0,0,0,.954,2.943,3.241,3.241,0,0,0,2.553,1.077,3.074,3.074,0,0,0,2.507-1.056,4.583,4.583,0,0,0,.877-3,4.662,4.662,0,0,0-.877-3.035A3.061,3.061,0,0,0,115.565,33.669Zm13.269.533a2.056,2.056,0,0,0-1.271-.338,2.146,2.146,0,0,0-1.8,1.015,4.693,4.693,0,0,0-.723,2.769V43h-1.682V32.5h1.682v2.164h.041a3.666,3.666,0,0,1,1.1-1.728,2.5,2.5,0,0,1,1.651-.62,2.745,2.745,0,0,1,1,.144Zm9.341,8.8h-1.682V41.359h-.041a3.521,3.521,0,0,1-3.23,1.887,3.452,3.452,0,0,1-2.456-.831,2.878,2.878,0,0,1-.887-2.2q0-2.943,3.466-3.425l3.148-.441q0-2.676-2.164-2.676a5.169,5.169,0,0,0-3.425,1.292V33.238a6.507,6.507,0,0,1,3.568-.984q3.7,0,3.7,3.917Zm-1.682-5.312-2.533.349a4.112,4.112,0,0,0-1.764.579,1.671,1.671,0,0,0-.595,1.471,1.6,1.6,0,0,0,.549,1.256,2.12,2.12,0,0,0,1.461.487,2.7,2.7,0,0,0,2.066-.877,3.132,3.132,0,0,0,.815-2.22Zm6.573,3.794h-.041V43h-1.682V27.455h1.682v6.891h.041a3.976,3.976,0,0,1,3.63-2.092,3.849,3.849,0,0,1,3.163,1.41A5.822,5.822,0,0,1,151,37.442a6.508,6.508,0,0,1-1.282,4.219,4.268,4.268,0,0,1-3.507,1.584A3.454,3.454,0,0,1,143.066,41.482Zm-.041-4.235v1.466a3.122,3.122,0,0,0,.846,2.21,3.018,3.018,0,0,0,4.542-.261,5.363,5.363,0,0,0,.866-3.25,4.233,4.233,0,0,0-.81-2.748,2.681,2.681,0,0,0-2.194-.995,2.979,2.979,0,0,0-2.358,1.02A3.746,3.746,0,0,0,143.025,37.248ZM155.371,43h-1.682V27.455h1.682Zm11.843-4.83H159.8a3.927,3.927,0,0,0,.943,2.707,3.252,3.252,0,0,0,2.481.954,5.159,5.159,0,0,0,3.261-1.169v1.579a6.094,6.094,0,0,1-3.661,1,4.438,4.438,0,0,1-3.5-1.43,5.855,5.855,0,0,1-1.271-4.025,5.742,5.742,0,0,1,1.389-3.994,4.455,4.455,0,0,1,3.45-1.543,3.948,3.948,0,0,1,3.189,1.333,5.558,5.558,0,0,1,1.128,3.7Zm-1.723-1.425a3.421,3.421,0,0,0-.7-2.266,2.393,2.393,0,0,0-1.923-.81,2.716,2.716,0,0,0-2.02.851,3.862,3.862,0,0,0-1.025,2.225Zm3.63,5.875v-1.8a4.977,4.977,0,0,0,3.025,1.015q2.215,0,2.215-1.477a1.281,1.281,0,0,0-.19-.713,1.891,1.891,0,0,0-.513-.518,3.946,3.946,0,0,0-.759-.405q-.436-.179-.938-.374a12.084,12.084,0,0,1-1.225-.559,3.7,3.7,0,0,1-.882-.636,2.366,2.366,0,0,1-.533-.8,2.848,2.848,0,0,1-.179-1.056,2.509,2.509,0,0,1,.338-1.307,3,3,0,0,1,.9-.954,4.208,4.208,0,0,1,1.287-.579,5.708,5.708,0,0,1,1.492-.195,6.024,6.024,0,0,1,2.44.472v1.7a4.756,4.756,0,0,0-2.666-.759,3.116,3.116,0,0,0-.851.108,2.084,2.084,0,0,0-.651.3,1.4,1.4,0,0,0-.42.467,1.229,1.229,0,0,0-.149.6,1.439,1.439,0,0,0,.149.687,1.512,1.512,0,0,0,.436.492,3.331,3.331,0,0,0,.7.39q.41.174.933.379a12.986,12.986,0,0,1,1.251.549,4.291,4.291,0,0,1,.943.636,2.484,2.484,0,0,1,.6.815,2.629,2.629,0,0,1,.21,1.1,2.587,2.587,0,0,1-.344,1.354,2.944,2.944,0,0,1-.918.954,4.2,4.2,0,0,1-1.323.564,6.531,6.531,0,0,1-1.569.185A5.957,5.957,0,0,1,169.121,42.621ZM38.435,83H36.323L28.755,71.28a4.9,4.9,0,0,1-.472-.923h-.062a15.138,15.138,0,0,1,.082,2.02V83H26.582V68.3h2.235l7.362,11.536q.461.718.595.984h.041a15.557,15.557,0,0,1-.1-2.164V68.3h1.723Zm12.12,0H48.874V81.339h-.041a3.453,3.453,0,0,1-3.24,1.907q-3.753,0-3.753-4.471V72.5h1.671v6.009q0,3.322,2.543,3.322a2.573,2.573,0,0,0,2.025-.907,3.472,3.472,0,0,0,.795-2.374V72.5h1.682ZM48.976,67.147,46.29,70.511h-1.3l2.287-3.363ZM68.858,83H67.177V76.971a4.549,4.549,0,0,0-.538-2.522,2.042,2.042,0,0,0-1.81-.779,2.241,2.241,0,0,0-1.83.984,3.766,3.766,0,0,0-.754,2.358V83H60.563V76.766q0-3.1-2.389-3.1a2.213,2.213,0,0,0-1.825.928,3.836,3.836,0,0,0-.718,2.415V83H53.949V72.5h1.682v1.661h.041a3.567,3.567,0,0,1,3.261-1.907,3.033,3.033,0,0,1,2.974,2.174,3.747,3.747,0,0,1,3.486-2.174q3.466,0,3.466,4.276Zm11.618-4.83H73.063a3.927,3.927,0,0,0,.943,2.707,3.252,3.252,0,0,0,2.481.954,5.159,5.159,0,0,0,3.261-1.169v1.579a6.094,6.094,0,0,1-3.661,1,4.438,4.438,0,0,1-3.5-1.43,5.855,5.855,0,0,1-1.271-4.025A5.742,5.742,0,0,1,72.709,73.8a4.455,4.455,0,0,1,3.45-1.543,3.948,3.948,0,0,1,3.189,1.333,5.558,5.558,0,0,1,1.128,3.7Zm-1.723-1.425a3.421,3.421,0,0,0-.7-2.266,2.393,2.393,0,0,0-1.923-.81,2.716,2.716,0,0,0-2.02.851,3.862,3.862,0,0,0-1.025,2.225ZM88.495,74.2a2.056,2.056,0,0,0-1.271-.338,2.146,2.146,0,0,0-1.8,1.015,4.693,4.693,0,0,0-.723,2.769V83H83.019V72.5H84.7v2.164h.041a3.666,3.666,0,0,1,1.1-1.728,2.5,2.5,0,0,1,1.651-.62,2.745,2.745,0,0,1,1,.144Zm6.214,9.044a4.87,4.87,0,0,1-3.717-1.471,5.45,5.45,0,0,1-1.389-3.9,5.678,5.678,0,0,1,1.446-4.132,5.2,5.2,0,0,1,3.907-1.487A4.709,4.709,0,0,1,98.62,73.7a5.733,5.733,0,0,1,1.318,4.009,5.641,5.641,0,0,1-1.42,4.025A4.976,4.976,0,0,1,94.708,83.246Zm.123-9.577a3.2,3.2,0,0,0-2.563,1.1,4.527,4.527,0,0,0-.943,3.04,4.281,4.281,0,0,0,.954,2.943,3.241,3.241,0,0,0,2.553,1.077,3.074,3.074,0,0,0,2.507-1.056,4.583,4.583,0,0,0,.877-3,4.662,4.662,0,0,0-.877-3.035A3.061,3.061,0,0,0,94.832,73.669ZM113.248,82.9a3.242,3.242,0,0,1-1.569.328q-2.758,0-2.758-3.076V73.936h-1.8V72.5h1.8V69.937l1.682-.543V72.5h2.646v1.436H110.6v5.917a2.453,2.453,0,0,0,.359,1.507,1.432,1.432,0,0,0,1.189.451,1.768,1.768,0,0,0,1.1-.349Zm6.634.349a4.87,4.87,0,0,1-3.717-1.471,5.45,5.45,0,0,1-1.389-3.9,5.678,5.678,0,0,1,1.446-4.132,5.2,5.2,0,0,1,3.907-1.487,4.709,4.709,0,0,1,3.666,1.446,5.733,5.733,0,0,1,1.318,4.009,5.641,5.641,0,0,1-1.42,4.025A4.976,4.976,0,0,1,119.882,83.246ZM120,73.669a3.2,3.2,0,0,0-2.563,1.1,4.527,4.527,0,0,0-.943,3.04,4.281,4.281,0,0,0,.954,2.943A3.241,3.241,0,0,0,120,81.831a3.074,3.074,0,0,0,2.507-1.056,4.583,4.583,0,0,0,.877-3,4.662,4.662,0,0,0-.877-3.035A3.061,3.061,0,0,0,120,73.669ZM132.668,82.9a3.242,3.242,0,0,1-1.569.328q-2.758,0-2.758-3.076V73.936h-1.8V72.5h1.8V69.937l1.682-.543V72.5h2.646v1.436h-2.646v5.917a2.453,2.453,0,0,0,.359,1.507,1.432,1.432,0,0,0,1.189.451,1.768,1.768,0,0,0,1.1-.349Zm9.762.1h-1.682V81.359h-.041a3.521,3.521,0,0,1-3.23,1.887,3.452,3.452,0,0,1-2.456-.831,2.878,2.878,0,0,1-.887-2.2q0-2.943,3.466-3.425l3.148-.441q0-2.676-2.164-2.676a5.169,5.169,0,0,0-3.425,1.292V73.238a6.507,6.507,0,0,1,3.568-.984q3.7,0,3.7,3.917Zm-1.682-5.312-2.533.349a4.112,4.112,0,0,0-1.764.579,1.671,1.671,0,0,0-.595,1.471,1.6,1.6,0,0,0,.549,1.256,2.12,2.12,0,0,0,1.461.487,2.7,2.7,0,0,0,2.066-.877,3.132,3.132,0,0,0,.815-2.22ZM147.28,83H145.6V67.455h1.682ZM165.4,83h-1.682V81.216h-.041a3.882,3.882,0,0,1-3.609,2.03,3.922,3.922,0,0,1-3.163-1.41A5.784,5.784,0,0,1,155.719,78a6.293,6.293,0,0,1,1.313-4.173,4.329,4.329,0,0,1,3.5-1.569,3.366,3.366,0,0,1,3.148,1.7h.041v-6.5H165.4Zm-1.682-4.748V76.7a3,3,0,0,0-.841-2.153,2.82,2.82,0,0,0-2.133-.882,2.9,2.9,0,0,0-2.42,1.128,4.943,4.943,0,0,0-.882,3.117,4.445,4.445,0,0,0,.846,2.866,2.765,2.765,0,0,0,2.271,1.051,2.872,2.872,0,0,0,2.281-1.015A3.782,3.782,0,0,0,163.717,78.252Zm13.525-.082h-7.414a3.927,3.927,0,0,0,.943,2.707,3.252,3.252,0,0,0,2.481.954,5.159,5.159,0,0,0,3.261-1.169v1.579a6.094,6.094,0,0,1-3.661,1,4.438,4.438,0,0,1-3.5-1.43,5.855,5.855,0,0,1-1.271-4.025,5.742,5.742,0,0,1,1.389-3.994,4.455,4.455,0,0,1,3.45-1.543,3.948,3.948,0,0,1,3.189,1.333,5.558,5.558,0,0,1,1.128,3.7Zm-1.723-1.425a3.421,3.421,0,0,0-.7-2.266,2.393,2.393,0,0,0-1.923-.81,2.716,2.716,0,0,0-2.02.851,3.862,3.862,0,0,0-1.025,2.225Zm17.175,5.773a5.464,5.464,0,0,1-2.871.728,4.753,4.753,0,0,1-3.625-1.461A5.3,5.3,0,0,1,184.82,78a5.821,5.821,0,0,1,1.487-4.168,5.2,5.2,0,0,1,3.968-1.574,5.524,5.524,0,0,1,2.44.513v1.723a4.276,4.276,0,0,0-2.5-.82,3.381,3.381,0,0,0-2.64,1.154,4.377,4.377,0,0,0-1.031,3.03,4.168,4.168,0,0,0,.969,2.912,3.34,3.34,0,0,0,2.6,1.066,4.215,4.215,0,0,0,2.584-.913ZM202.754,83h-1.682V81.359h-.041a3.521,3.521,0,0,1-3.23,1.887,3.452,3.452,0,0,1-2.456-.831,2.878,2.878,0,0,1-.887-2.2q0-2.943,3.466-3.425l3.148-.441q0-2.676-2.164-2.676a5.169,5.169,0,0,0-3.425,1.292V73.238a6.507,6.507,0,0,1,3.568-.984q3.7,0,3.7,3.917Zm-1.682-5.312-2.533.349a4.112,4.112,0,0,0-1.764.579,1.671,1.671,0,0,0-.595,1.471,1.6,1.6,0,0,0,.549,1.256,2.12,2.12,0,0,0,1.461.487,2.7,2.7,0,0,0,2.066-.877,3.132,3.132,0,0,0,.815-2.22Zm4.214,4.932v-1.8a4.977,4.977,0,0,0,3.025,1.015q2.215,0,2.215-1.477a1.281,1.281,0,0,0-.19-.713,1.891,1.891,0,0,0-.513-.518,3.946,3.946,0,0,0-.759-.405q-.436-.179-.938-.374a12.084,12.084,0,0,1-1.225-.559,3.7,3.7,0,0,1-.882-.636,2.366,2.366,0,0,1-.533-.8,2.848,2.848,0,0,1-.179-1.056,2.509,2.509,0,0,1,.338-1.307,3,3,0,0,1,.9-.954,4.208,4.208,0,0,1,1.287-.579,5.708,5.708,0,0,1,1.492-.195,6.024,6.024,0,0,1,2.44.472v1.7a4.756,4.756,0,0,0-2.666-.759,3.116,3.116,0,0,0-.851.108,2.084,2.084,0,0,0-.651.3,1.4,1.4,0,0,0-.42.467,1.229,1.229,0,0,0-.149.6,1.439,1.439,0,0,0,.149.687,1.512,1.512,0,0,0,.436.492,3.331,3.331,0,0,0,.7.39q.41.174.933.379a12.986,12.986,0,0,1,1.251.549,4.291,4.291,0,0,1,.943.636,2.484,2.484,0,0,1,.6.815,2.629,2.629,0,0,1,.21,1.1,2.587,2.587,0,0,1-.344,1.354,2.944,2.944,0,0,1-.918.954,4.2,4.2,0,0,1-1.323.564,6.531,6.531,0,0,1-1.569.185A5.957,5.957,0,0,1,205.287,82.621Zm13.935.625a4.87,4.87,0,0,1-3.717-1.471,5.45,5.45,0,0,1-1.389-3.9,5.678,5.678,0,0,1,1.446-4.132,5.2,5.2,0,0,1,3.907-1.487,4.709,4.709,0,0,1,3.666,1.446,5.733,5.733,0,0,1,1.318,4.009,5.641,5.641,0,0,1-1.42,4.025A4.976,4.976,0,0,1,219.222,83.246Zm.123-9.577a3.2,3.2,0,0,0-2.563,1.1,4.527,4.527,0,0,0-.943,3.04,4.281,4.281,0,0,0,.954,2.943,3.241,3.241,0,0,0,2.553,1.077,3.074,3.074,0,0,0,2.507-1.056,4.583,4.583,0,0,0,.877-3,4.662,4.662,0,0,0-.877-3.035A3.061,3.061,0,0,0,219.345,73.669Zm7.157,8.952v-1.8a4.977,4.977,0,0,0,3.025,1.015q2.215,0,2.215-1.477a1.281,1.281,0,0,0-.19-.713,1.891,1.891,0,0,0-.513-.518,3.946,3.946,0,0,0-.759-.405q-.436-.179-.938-.374a12.084,12.084,0,0,1-1.225-.559,3.7,3.7,0,0,1-.882-.636,2.366,2.366,0,0,1-.533-.8,2.848,2.848,0,0,1-.179-1.056,2.509,2.509,0,0,1,.338-1.307,3,3,0,0,1,.9-.954,4.208,4.208,0,0,1,1.287-.579,5.708,5.708,0,0,1,1.492-.195,6.024,6.024,0,0,1,2.44.472v1.7a4.756,4.756,0,0,0-2.666-.759,3.116,3.116,0,0,0-.851.108,2.084,2.084,0,0,0-.651.3,1.4,1.4,0,0,0-.42.467,1.229,1.229,0,0,0-.149.6,1.439,1.439,0,0,0,.149.687,1.512,1.512,0,0,0,.436.492,3.331,3.331,0,0,0,.7.39q.41.174.933.379a12.986,12.986,0,0,1,1.251.549,4.291,4.291,0,0,1,.943.636,2.484,2.484,0,0,1,.6.815,2.629,2.629,0,0,1,.21,1.1,2.587,2.587,0,0,1-.344,1.354,2.944,2.944,0,0,1-.918.954,4.2,4.2,0,0,1-1.323.564,6.531,6.531,0,0,1-1.569.185A5.957,5.957,0,0,1,226.5,82.621ZM99.395,101.482h-.041v6.347H97.672V92.5h1.682v1.846h.041a3.976,3.976,0,0,1,3.63-2.092,3.845,3.845,0,0,1,3.168,1.41,5.84,5.84,0,0,1,1.138,3.779,6.508,6.508,0,0,1-1.282,4.219,4.268,4.268,0,0,1-3.507,1.584A3.513,3.513,0,0,1,99.395,101.482Zm-.041-4.235v1.466a3.122,3.122,0,0,0,.846,2.21,3.018,3.018,0,0,0,4.542-.261,5.363,5.363,0,0,0,.866-3.25,4.233,4.233,0,0,0-.81-2.748,2.681,2.681,0,0,0-2.194-.995,2.979,2.979,0,0,0-2.358,1.02A3.746,3.746,0,0,0,99.354,97.248Zm15.053,6a4.87,4.87,0,0,1-3.717-1.471,5.45,5.45,0,0,1-1.389-3.9,5.678,5.678,0,0,1,1.446-4.132,5.2,5.2,0,0,1,3.907-1.487,4.709,4.709,0,0,1,3.666,1.446,5.733,5.733,0,0,1,1.318,4.009,5.641,5.641,0,0,1-1.42,4.025A4.976,4.976,0,0,1,114.406,103.246Zm.123-9.577a3.2,3.2,0,0,0-2.563,1.1,4.527,4.527,0,0,0-.943,3.04,4.281,4.281,0,0,0,.954,2.943,3.241,3.241,0,0,0,2.553,1.077,3.074,3.074,0,0,0,2.507-1.056,4.583,4.583,0,0,0,.877-3,4.662,4.662,0,0,0-.877-3.035A3.061,3.061,0,0,0,114.529,93.669Zm7.157,8.952v-1.8a4.977,4.977,0,0,0,3.025,1.015q2.215,0,2.215-1.477a1.281,1.281,0,0,0-.19-.713,1.891,1.891,0,0,0-.513-.518,3.946,3.946,0,0,0-.759-.405q-.436-.179-.938-.374a12.084,12.084,0,0,1-1.225-.559,3.7,3.7,0,0,1-.882-.636,2.366,2.366,0,0,1-.533-.8,2.848,2.848,0,0,1-.179-1.056,2.509,2.509,0,0,1,.338-1.307,3,3,0,0,1,.9-.954,4.208,4.208,0,0,1,1.287-.579,5.708,5.708,0,0,1,1.492-.195,6.024,6.024,0,0,1,2.44.472v1.7a4.756,4.756,0,0,0-2.666-.759,3.116,3.116,0,0,0-.851.108,2.084,2.084,0,0,0-.651.3,1.4,1.4,0,0,0-.42.467,1.229,1.229,0,0,0-.149.6,1.439,1.439,0,0,0,.149.687,1.512,1.512,0,0,0,.436.492,3.331,3.331,0,0,0,.7.39q.41.174.933.379a12.986,12.986,0,0,1,1.251.549,4.291,4.291,0,0,1,.943.636,2.484,2.484,0,0,1,.6.815,2.629,2.629,0,0,1,.21,1.1,2.587,2.587,0,0,1-.344,1.354,2.944,2.944,0,0,1-.918.954,4.2,4.2,0,0,1-1.323.564,6.531,6.531,0,0,1-1.569.185A5.957,5.957,0,0,1,121.687,102.621Zm10.408-12.787a1.065,1.065,0,0,1-.769-.308,1.038,1.038,0,0,1-.318-.779,1.077,1.077,0,0,1,1.087-1.1,1.086,1.086,0,0,1,.784.313,1.1,1.1,0,0,1,0,1.553A1.077,1.077,0,0,1,132.094,89.834Zm.82,13.166h-1.682V92.5h1.682Zm5.127-1.518H138V103h-1.682V87.455H138v6.891h.041a3.976,3.976,0,0,1,3.63-2.092,3.849,3.849,0,0,1,3.163,1.41,5.822,5.822,0,0,1,1.143,3.779,6.508,6.508,0,0,1-1.282,4.219,4.268,4.268,0,0,1-3.507,1.584A3.454,3.454,0,0,1,138.042,101.482ZM138,97.248v1.466a3.122,3.122,0,0,0,.846,2.21,3.018,3.018,0,0,0,4.542-.261,5.363,5.363,0,0,0,.866-3.25,4.233,4.233,0,0,0-.81-2.748,2.681,2.681,0,0,0-2.194-.995,2.979,2.979,0,0,0-2.358,1.02A3.746,3.746,0,0,0,138,97.248ZM150.346,103h-1.682V87.455h1.682Zm11.843-4.83h-7.414a3.927,3.927,0,0,0,.943,2.707,3.252,3.252,0,0,0,2.481.954,5.159,5.159,0,0,0,3.261-1.169v1.579a6.094,6.094,0,0,1-3.661,1,4.438,4.438,0,0,1-3.5-1.43,5.855,5.855,0,0,1-1.271-4.025,5.742,5.742,0,0,1,1.389-3.994,4.455,4.455,0,0,1,3.45-1.543,3.948,3.948,0,0,1,3.189,1.333,5.558,5.558,0,0,1,1.128,3.7Zm-1.723-1.425a3.421,3.421,0,0,0-.7-2.266,2.393,2.393,0,0,0-1.923-.81,2.716,2.716,0,0,0-2.02.851,3.862,3.862,0,0,0-1.025,2.225Z" transform="translate(425.576 916)" fill="#12263f"/>
    <path id="Trazado_879120" data-name="Trazado 879120" d="M0,0H263" transform="translate(425.576 941.5)" fill="none" stroke="#12263f" stroke-width="1"/>
  </g>
</svg>
