<svg xmlns="http://www.w3.org/2000/svg" width="249" height="62" viewBox="0 0 249 62">
  <g id="Grupo_1101537" data-name="Grupo 1101537" transform="translate(-675.676 -2122.867)">
    <g id="Trazado_879084" data-name="Trazado 879084" transform="translate(675.676 2122.867)" fill="#fff">
      <path d="M 248.5 61.5 L 0.5 61.5 L 0.5 0.5 L 248.5 0.5 L 248.5 61.5 Z" stroke="none"/>
      <path d="M 1 1 L 1 61 L 248 61 L 248 1 L 1 1 M 0 0 L 249 0 L 249 62 L 0 62 L 0 0 Z" stroke="none" fill="#3ba935"/>
    </g>
    <path id="Trazado_879085" data-name="Trazado 879085" d="M18.4,12.646a5.912,5.912,0,0,1-.387,2.143,4.761,4.761,0,0,1-1.176,1.756,5.6,5.6,0,0,1-2,1.187,8.472,8.472,0,0,1-2.857.435H9.637L8.412,24H6.564L9.819,8.6H13.8a5.863,5.863,0,0,1,2.111.338,3.973,3.973,0,0,1,1.429.9,3.428,3.428,0,0,1,.806,1.294A4.6,4.6,0,0,1,18.4,12.646Zm-1.9.161a2.731,2.731,0,0,0-.2-1.058,2.184,2.184,0,0,0-.585-.816,2.663,2.663,0,0,0-.961-.521,4.384,4.384,0,0,0-1.327-.183H11.334L9.991,16.545H12.15a6.009,6.009,0,0,0,1.96-.285,3.727,3.727,0,0,0,1.354-.784,3.055,3.055,0,0,0,.784-1.182A4.255,4.255,0,0,0,16.5,12.807ZM27.157,8.6a25.806,25.806,0,0,0-2.4,2.707,18.284,18.284,0,0,0-1.821,2.89,15.192,15.192,0,0,0-1.16,3.1,13.738,13.738,0,0,0-.3,5.081,13.14,13.14,0,0,0,.338,1.719,13.953,13.953,0,0,0,.548,1.638,10.225,10.225,0,0,0,.741,1.482H21.593A10.214,10.214,0,0,1,20.8,25.7a12.639,12.639,0,0,1-.564-1.638,13.141,13.141,0,0,1-.338-1.687,12.553,12.553,0,0,1-.113-1.654,14.929,14.929,0,0,1,.4-3.507,15.269,15.269,0,0,1,1.128-3.142,16.654,16.654,0,0,1,1.778-2.852A24.933,24.933,0,0,1,25.438,8.6ZM35.848,24l-.7-4.308H28.618L26.126,24H24L33.173,8.6h1.891L37.749,24ZM33.871,11.507q-.011-.107-.016-.247t-.005-.279v-.516h-.043q-.032.1-.086.231t-.118.279q-.064.145-.134.285l-.124.247-3.8,6.553h5.317ZM51.445,24.258a5.1,5.1,0,0,1-3.894-1.542A5.71,5.71,0,0,1,46.1,18.629,5.948,5.948,0,0,1,47.61,14.3,5.445,5.445,0,0,1,51.7,12.742a4.934,4.934,0,0,1,3.84,1.515,6.006,6.006,0,0,1,1.38,4.2,5.91,5.91,0,0,1-1.488,4.216A5.213,5.213,0,0,1,51.445,24.258Zm.129-10.033a3.351,3.351,0,0,0-2.686,1.155,4.743,4.743,0,0,0-.988,3.185,4.485,4.485,0,0,0,1,3.083,3.4,3.4,0,0,0,2.675,1.128A3.221,3.221,0,0,0,54.2,21.669a4.8,4.8,0,0,0,.918-3.147,4.884,4.884,0,0,0-.918-3.18A3.206,3.206,0,0,0,51.574,14.225Zm24.524-2.3a4.65,4.65,0,0,1-.2,1.38,3.656,3.656,0,0,1-.628,1.2,3.9,3.9,0,0,1-1.085.929A4.8,4.8,0,0,1,72.607,16v.043a3.442,3.442,0,0,1,1.166.392,2.935,2.935,0,0,1,.833.693,2.827,2.827,0,0,1,.5.918,3.494,3.494,0,0,1,.167,1.09,4.805,4.805,0,0,1-.435,2.1,4.258,4.258,0,0,1-1.208,1.52,5.421,5.421,0,0,1-1.832.929A7.961,7.961,0,0,1,69.5,24H64.8L68.053,8.6H72.3a4.765,4.765,0,0,1,1.633.258,3.45,3.45,0,0,1,1.192.709,2.956,2.956,0,0,1,.73,1.058A3.428,3.428,0,0,1,76.1,11.926Zm-1.891.344a2.307,2.307,0,0,0-.129-.773,1.72,1.72,0,0,0-.414-.65,2,2,0,0,0-.741-.451,3.261,3.261,0,0,0-1.112-.167H69.567L68.493,15.2h2.02a5.474,5.474,0,0,0,1.617-.215,3.238,3.238,0,0,0,1.149-.6,2.431,2.431,0,0,0,.682-.924,3.05,3.05,0,0,0,.226-1.192Zm-.838,6.982a2.186,2.186,0,0,0-.784-1.778,3.721,3.721,0,0,0-2.406-.65H68.139L67,22.367h2.481a6.069,6.069,0,0,0,1.74-.22,3.3,3.3,0,0,0,1.208-.628,2.5,2.5,0,0,0,.709-.983A3.415,3.415,0,0,0,73.37,19.252Zm8.658-4.157A14.755,14.755,0,0,1,80.5,21.739a17.011,17.011,0,0,1-1.783,2.847,24.933,24.933,0,0,1-2.347,2.626H74.638a26.617,26.617,0,0,0,2.406-2.7,17.865,17.865,0,0,0,1.826-2.884,15.192,15.192,0,0,0,1.16-3.1,13.709,13.709,0,0,0,.3-5.076,14,14,0,0,0-.333-1.719,13.182,13.182,0,0,0-.542-1.644A10.737,10.737,0,0,0,78.709,8.6H80.2A10.976,10.976,0,0,1,81,10.121a12.394,12.394,0,0,1,.569,1.644,13.859,13.859,0,0,1,.344,1.681A11.877,11.877,0,0,1,82.028,15.095Zm10.076.924V14.579h10.1v1.439Zm0,4.576V19.155h10.1v1.439Zm31-7.949a5.912,5.912,0,0,1-.387,2.143,4.761,4.761,0,0,1-1.176,1.756,5.6,5.6,0,0,1-2,1.187,8.472,8.472,0,0,1-2.857.435h-2.342L113.116,24h-1.848l3.255-15.4h3.985a5.863,5.863,0,0,1,2.111.338,3.973,3.973,0,0,1,1.429.9,3.428,3.428,0,0,1,.806,1.294A4.6,4.6,0,0,1,123.106,12.646Zm-1.9.161a2.731,2.731,0,0,0-.2-1.058,2.184,2.184,0,0,0-.585-.816,2.663,2.663,0,0,0-.961-.521,4.384,4.384,0,0,0-1.327-.183h-2.095L114.7,16.545h2.159a6.009,6.009,0,0,0,1.96-.285,3.727,3.727,0,0,0,1.354-.784,3.055,3.055,0,0,0,.784-1.182A4.255,4.255,0,0,0,121.205,12.807ZM131.861,8.6a25.807,25.807,0,0,0-2.4,2.707,18.283,18.283,0,0,0-1.821,2.89,15.192,15.192,0,0,0-1.16,3.1,13.738,13.738,0,0,0-.3,5.081,13.14,13.14,0,0,0,.338,1.719,13.953,13.953,0,0,0,.548,1.638,10.225,10.225,0,0,0,.741,1.482H126.3a10.214,10.214,0,0,1-.79-1.509,12.639,12.639,0,0,1-.564-1.638,13.141,13.141,0,0,1-.338-1.687,12.553,12.553,0,0,1-.113-1.654,14.929,14.929,0,0,1,.4-3.507,15.269,15.269,0,0,1,1.128-3.142,16.654,16.654,0,0,1,1.778-2.852A24.934,24.934,0,0,1,130.143,8.6Zm8.69,15.4-.7-4.308h-6.531L130.83,24H128.7l9.174-15.4h1.891L142.453,24Zm-1.977-12.493q-.011-.107-.016-.247t-.005-.279v-.516h-.043q-.032.1-.086.231t-.118.279q-.064.145-.134.285l-.124.247-3.8,6.553h5.317Zm10.56,3.588a14.755,14.755,0,0,1-1.531,6.644,17.011,17.011,0,0,1-1.783,2.847,24.934,24.934,0,0,1-2.347,2.626h-1.729a26.617,26.617,0,0,0,2.406-2.7,17.865,17.865,0,0,0,1.826-2.884,15.193,15.193,0,0,0,1.16-3.1,13.709,13.709,0,0,0,.3-5.076,14,14,0,0,0-.333-1.719,13.181,13.181,0,0,0-.542-1.644,10.737,10.737,0,0,0-.741-1.493h1.493a10.977,10.977,0,0,1,.795,1.525,12.393,12.393,0,0,1,.569,1.644,13.861,13.861,0,0,1,.344,1.681A11.876,11.876,0,0,1,149.135,15.095Zm15.845,3.212v4.329h-1.407V18.307h-4.361V16.867h4.361V12.538h1.407v4.329h4.329v1.439Zm25.233-5.661a5.912,5.912,0,0,1-.387,2.143,4.761,4.761,0,0,1-1.176,1.756,5.6,5.6,0,0,1-2,1.187,8.472,8.472,0,0,1-2.857.435h-2.342L180.223,24h-1.848L181.63,8.6h3.985a5.863,5.863,0,0,1,2.111.338,3.973,3.973,0,0,1,1.429.9,3.428,3.428,0,0,1,.806,1.294A4.6,4.6,0,0,1,190.213,12.646Zm-1.9.161a2.731,2.731,0,0,0-.2-1.058,2.185,2.185,0,0,0-.585-.816,2.663,2.663,0,0,0-.961-.521,4.384,4.384,0,0,0-1.327-.183h-2.095L181.8,16.545h2.159a6.009,6.009,0,0,0,1.96-.285,3.727,3.727,0,0,0,1.354-.784,3.055,3.055,0,0,0,.784-1.182A4.255,4.255,0,0,0,188.312,12.807ZM198.968,8.6a25.807,25.807,0,0,0-2.4,2.707,18.283,18.283,0,0,0-1.821,2.89,15.193,15.193,0,0,0-1.16,3.1,13.738,13.738,0,0,0-.3,5.081,13.14,13.14,0,0,0,.338,1.719,13.953,13.953,0,0,0,.548,1.638,10.225,10.225,0,0,0,.741,1.482H193.4a10.214,10.214,0,0,1-.79-1.509,12.639,12.639,0,0,1-.564-1.638,13.141,13.141,0,0,1-.338-1.687,12.553,12.553,0,0,1-.113-1.654,14.93,14.93,0,0,1,.4-3.507,15.268,15.268,0,0,1,1.128-3.142,16.654,16.654,0,0,1,1.778-2.852A24.934,24.934,0,0,1,197.249,8.6Zm10.055,3.33a4.65,4.65,0,0,1-.2,1.38,3.656,3.656,0,0,1-.628,1.2,3.9,3.9,0,0,1-1.085.929,4.8,4.8,0,0,1-1.574.564v.043a3.442,3.442,0,0,1,1.166.392,2.935,2.935,0,0,1,.833.693,2.827,2.827,0,0,1,.5.918,3.494,3.494,0,0,1,.167,1.09,4.805,4.805,0,0,1-.435,2.1,4.258,4.258,0,0,1-1.208,1.52,5.421,5.421,0,0,1-1.832.929,7.961,7.961,0,0,1-2.293.317h-4.705l3.255-15.4h4.243a4.765,4.765,0,0,1,1.633.258,3.45,3.45,0,0,1,1.192.709,2.956,2.956,0,0,1,.73,1.058A3.428,3.428,0,0,1,209.022,11.926Zm-1.891.344A2.307,2.307,0,0,0,207,11.5a1.72,1.72,0,0,0-.414-.65,2,2,0,0,0-.741-.451,3.261,3.261,0,0,0-1.112-.167h-2.245L201.417,15.2h2.02a5.474,5.474,0,0,0,1.617-.215,3.238,3.238,0,0,0,1.149-.6,2.431,2.431,0,0,0,.682-.924,3.05,3.05,0,0,0,.226-1.192Zm-.838,6.982a2.186,2.186,0,0,0-.784-1.778,3.721,3.721,0,0,0-2.406-.65h-2.041l-1.139,5.543h2.481a6.069,6.069,0,0,0,1.74-.22,3.3,3.3,0,0,0,1.208-.628,2.5,2.5,0,0,0,.709-.983A3.415,3.415,0,0,0,206.294,19.252Zm8.658-4.157a14.755,14.755,0,0,1-1.531,6.644,17.011,17.011,0,0,1-1.783,2.847,24.934,24.934,0,0,1-2.347,2.626h-1.729a26.617,26.617,0,0,0,2.406-2.7,17.865,17.865,0,0,0,1.826-2.884,15.193,15.193,0,0,0,1.16-3.1,13.709,13.709,0,0,0,.3-5.076,14,14,0,0,0-.333-1.719,13.181,13.181,0,0,0-.542-1.644,10.737,10.737,0,0,0-.741-1.493h1.493a10.977,10.977,0,0,1,.795,1.525,12.393,12.393,0,0,1,.569,1.644,13.861,13.861,0,0,1,.344,1.681A11.876,11.876,0,0,1,214.952,15.095Z" transform="translate(689.676 2141.867)" fill="#12263f"/>
  </g>
</svg>
