<svg xmlns="http://www.w3.org/2000/svg" width="249" height="62" viewBox="0 0 249 62">
  <g id="Grupo_1100967" data-name="Grupo 1100967" transform="translate(0.349 -0.443)">
    <g id="Rectángulo_401923" data-name="Rectángulo 401923" transform="translate(-0.349 0.443)" fill="#fff" stroke="#3ba935" stroke-width="1">
      <rect width="249" height="62" stroke="none"/>
      <rect x="0.5" y="0.5" width="248" height="61" fill="none"/>
    </g>
    <path id="Trazado_877513" data-name="Trazado 877513" d="M7.875,16.646a2.2,2.2,0,0,0,1.063-.279,2.447,2.447,0,0,0,.741-1.343l2.7-9.732.2-.838q.032-.15.048-.274a1.722,1.722,0,0,0,.016-.22.735.735,0,0,0-.354-.709A3.147,3.147,0,0,0,11.076,3V2.648h5.446a7.34,7.34,0,0,1,2.718.419A2.9,2.9,0,0,1,21.185,6a3.712,3.712,0,0,1-.773,2.32q-1.493,1.966-5.382,1.966-.473,0-.94-.038a7.736,7.736,0,0,1-.9-.124l-1.171,4.232q-.107.387-.161.634a3.267,3.267,0,0,0-.1.666.8.8,0,0,0,.328.741,2.656,2.656,0,0,0,1.176.247V17H7.875ZM13.4,9.362q.2.043.5.075a7.364,7.364,0,0,0,.768.032,5.926,5.926,0,0,0,2.557-.451A3.19,3.19,0,0,0,18.939,5.85a2.271,2.271,0,0,0-.773-1.955A3.4,3.4,0,0,0,16.1,3.325a2.385,2.385,0,0,0-.779.1.681.681,0,0,0-.381.494ZM28.231,2.616A14.719,14.719,0,0,0,26.609,4.6a14.48,14.48,0,0,0-1.762,3.76A22.989,22.989,0,0,0,24,12.01a21.148,21.148,0,0,0-.247,2.884,18.013,18.013,0,0,0,.2,2.959,20.432,20.432,0,0,0,.843,3.024l-.376.129a15.411,15.411,0,0,1-2.191-7.917,11.635,11.635,0,0,1,.87-4.641,18.246,18.246,0,0,1,4.855-6.166Zm9.056,8.637-.967-5.7-3.276,5.7Zm-9.238,5.393a2.165,2.165,0,0,0,1.155-.677A24.568,24.568,0,0,0,30.9,13.315l6.424-11H37.8l2.116,12.45a3.338,3.338,0,0,0,.483,1.5,1.957,1.957,0,0,0,1.192.381V17H36.17v-.354a4.633,4.633,0,0,0,1.268-.236.833.833,0,0,0,.462-.838q0-.161-.011-.344a3.005,3.005,0,0,0-.032-.312l-.44-2.879H32.582L31.3,14.508a3.948,3.948,0,0,0-.247.526,2.483,2.483,0,0,0-.183.827.634.634,0,0,0,.285.591,2.25,2.25,0,0,0,1.015.193V17H28.049ZM47.492,7.128h4.533v.333a2.89,2.89,0,0,0-.795.1q-.494.14-.494.548a.935.935,0,0,0,.054.306q.054.156.193.467L53.5,14.454l2.02-5.618q.032-.086.1-.387a2.231,2.231,0,0,0,.07-.408.455.455,0,0,0-.193-.408A1.007,1.007,0,0,0,55,7.482l-.333-.021V7.128h2.954v.333a1.013,1.013,0,0,0-.661.3,2.126,2.126,0,0,0-.381.688L53.2,17.408a13.708,13.708,0,0,1-1.687,3.362,2.477,2.477,0,0,1-2.041,1.042,2.237,2.237,0,0,1-1.128-.3,1.021,1.021,0,0,1-.526-.956.888.888,0,0,1,.317-.7,1.18,1.18,0,0,1,.8-.274,2.687,2.687,0,0,1,.833.2,2.692,2.692,0,0,0,.79.2q.6,0,1.268-1.4a5.779,5.779,0,0,0,.666-1.869,1.082,1.082,0,0,0-.032-.236,1.694,1.694,0,0,0-.075-.247L48.942,8.8A3.547,3.547,0,0,0,48.3,7.756a1.474,1.474,0,0,0-.811-.328ZM70.1,9.019a6.12,6.12,0,0,0,2.664-.473A3.034,3.034,0,0,0,74.4,5.56a2.027,2.027,0,0,0-.693-1.746,3,3,0,0,0-1.821-.51,2.347,2.347,0,0,0-.972.134.731.731,0,0,0-.349.478L69.138,9.008ZM68.966,16.3a4.042,4.042,0,0,0,3.18-1.139,3.987,3.987,0,0,0,1.01-2.739,2.3,2.3,0,0,0-1.182-2.331,9.22,9.22,0,0,0-3.04-.365l-1.375,4.984a3.486,3.486,0,0,0-.086.36,1.84,1.84,0,0,0-.032.328.761.761,0,0,0,.548.784A2.965,2.965,0,0,0,68.966,16.3Zm-5.479.344a2.2,2.2,0,0,0,1.063-.279,2.447,2.447,0,0,0,.741-1.343l2.7-9.732.15-.569a3.839,3.839,0,0,0,.107-.73.8.8,0,0,0-.36-.763A3.177,3.177,0,0,0,66.538,3V2.648h5.683a7.941,7.941,0,0,1,2.557.376,2.822,2.822,0,0,1,1.858,2.814A2.925,2.925,0,0,1,75.121,8.46a7.606,7.606,0,0,1-2.3.827,5.4,5.4,0,0,1,1.708.945,3.268,3.268,0,0,1,1.021,2.535,3.66,3.66,0,0,1-1.6,3.019A7.1,7.1,0,0,1,69.567,17h-6.08Zm14,3.975a17.715,17.715,0,0,0,1.708-2.084,14.539,14.539,0,0,0,1.665-3.663A24.16,24.16,0,0,0,81.7,11.36a21.042,21.042,0,0,0,.269-3.266,15.814,15.814,0,0,0-.317-3.352,11.12,11.12,0,0,0-.757-2.374L81.3,2.24A14.648,14.648,0,0,1,82.9,5.962a15.29,15.29,0,0,1,.585,4.184,11.719,11.719,0,0,1-.72,4.254,16.9,16.9,0,0,1-5.006,6.553Zm26-11.967-.269,1.3H92.18l.269-1.3ZM102.557,13l-.269,1.3H91.256l.269-1.3Zm7.745,3.642a2.2,2.2,0,0,0,1.063-.279,2.447,2.447,0,0,0,.741-1.343l2.7-9.732.2-.838q.032-.15.048-.274a1.722,1.722,0,0,0,.016-.22.735.735,0,0,0-.354-.709A3.147,3.147,0,0,0,113.5,3V2.648h5.446a7.34,7.34,0,0,1,2.718.419A2.9,2.9,0,0,1,123.611,6a3.712,3.712,0,0,1-.773,2.32q-1.493,1.966-5.382,1.966-.473,0-.94-.038a7.736,7.736,0,0,1-.9-.124l-1.171,4.232q-.107.387-.161.634a3.267,3.267,0,0,0-.1.666.8.8,0,0,0,.328.741,2.656,2.656,0,0,0,1.176.247V17H110.3Zm5.521-7.283q.2.043.5.075a7.364,7.364,0,0,0,.768.032,5.926,5.926,0,0,0,2.557-.451,3.19,3.19,0,0,0,1.719-3.169,2.271,2.271,0,0,0-.773-1.955,3.4,3.4,0,0,0-2.062-.569,2.385,2.385,0,0,0-.779.1.681.681,0,0,0-.381.494Zm14.835-6.746A14.719,14.719,0,0,0,129.036,4.6a14.48,14.48,0,0,0-1.762,3.76,22.989,22.989,0,0,0-.849,3.647,21.149,21.149,0,0,0-.247,2.884,18.013,18.013,0,0,0,.2,2.959,20.432,20.432,0,0,0,.843,3.024l-.376.129a15.411,15.411,0,0,1-2.191-7.917,11.635,11.635,0,0,1,.87-4.641,18.246,18.246,0,0,1,4.855-6.166Zm9.056,8.637-.967-5.7-3.276,5.7Zm-9.238,5.393a2.165,2.165,0,0,0,1.155-.677,24.566,24.566,0,0,0,1.692-2.653l6.424-11h.483l2.116,12.45a3.337,3.337,0,0,0,.483,1.5,1.957,1.957,0,0,0,1.192.381V17H138.6v-.354a4.634,4.634,0,0,0,1.268-.236.833.833,0,0,0,.462-.838q0-.161-.011-.344a3,3,0,0,0-.032-.312l-.44-2.879h-4.834l-1.278,2.471a3.948,3.948,0,0,0-.247.526,2.483,2.483,0,0,0-.183.827.634.634,0,0,0,.285.591,2.25,2.25,0,0,0,1.015.193V17h-4.125Zm14.384,3.975a17.713,17.713,0,0,0,1.708-2.084,14.539,14.539,0,0,0,1.665-3.663,24.158,24.158,0,0,0,.838-3.513,21.043,21.043,0,0,0,.269-3.266,15.815,15.815,0,0,0-.317-3.352,11.12,11.12,0,0,0-.757-2.374l.408-.129a14.648,14.648,0,0,1,1.606,3.722,15.29,15.29,0,0,1,.585,4.184,11.719,11.719,0,0,1-.72,4.254,16.9,16.9,0,0,1-5.006,6.553Zm11.859-4.351a.671.671,0,0,1,.258-.6.88.88,0,0,1,.784-.14,1.312,1.312,0,0,1,.279.124l.376.2a.538.538,0,0,0,.145.059.694.694,0,0,0,.156.016.587.587,0,0,0,.414-.134,10.637,10.637,0,0,0,.747-.94q.4-.526,1.8-2.567,0-.075-.247-1.155t-.451-1.832a3.937,3.937,0,0,0-.365-1,.671.671,0,0,0-.6-.242,3.143,3.143,0,0,0-.591.107q-.279.064-.6.15l-.1-.333,1.192-.408q.462-.161.854-.258a2.875,2.875,0,0,1,.671-.1.834.834,0,0,1,.677.269,4.175,4.175,0,0,1,.58,1.7l.226,1.225a19.1,19.1,0,0,1,1.5-2.084,4.336,4.336,0,0,1,.913-.816,1.551,1.551,0,0,1,.816-.269,1.383,1.383,0,0,1,.591.107.732.732,0,0,1,.408.73.77.77,0,0,1-.2.569.712.712,0,0,1-.526.2.927.927,0,0,1-.226-.027,1.324,1.324,0,0,1-.226-.081l-.279-.118q-.118-.054-.226-.091a.545.545,0,0,0-.161-.038q-.483,0-1.343,1.251a6.031,6.031,0,0,0-.859,1.445,8.3,8.3,0,0,0,.2,1.047q.2.886.435,1.875a8.92,8.92,0,0,0,.365,1.289q.247.58.559.58a.839.839,0,0,0,.591-.322,13.108,13.108,0,0,0,.9-1.16l.3.183a8.993,8.993,0,0,1-.956,1.429,2.514,2.514,0,0,1-1.783,1.117.953.953,0,0,1-.849-.516,3.821,3.821,0,0,1-.354-.988l-.666-2.653-2.2,2.89a7.108,7.108,0,0,1-.994,1.01,1.416,1.416,0,0,1-.865.258.984.984,0,0,1-.935-.43A1,1,0,0,1,156.719,16.27Zm15.877.376a2.2,2.2,0,0,0,1.063-.279,2.447,2.447,0,0,0,.741-1.343l2.7-9.732.2-.838q.032-.15.048-.274a1.722,1.722,0,0,0,.016-.22.735.735,0,0,0-.354-.709A3.147,3.147,0,0,0,175.8,3V2.648h5.446a7.34,7.34,0,0,1,2.718.419A2.9,2.9,0,0,1,185.905,6a3.712,3.712,0,0,1-.773,2.32q-1.493,1.966-5.382,1.966-.473,0-.94-.038a7.736,7.736,0,0,1-.9-.124l-1.171,4.232q-.107.387-.161.634a3.267,3.267,0,0,0-.1.666.8.8,0,0,0,.328.741,2.656,2.656,0,0,0,1.176.247V17H172.6Zm5.521-7.283q.2.043.5.075a7.364,7.364,0,0,0,.768.032,5.926,5.926,0,0,0,2.557-.451A3.19,3.19,0,0,0,183.66,5.85a2.271,2.271,0,0,0-.773-1.955,3.4,3.4,0,0,0-2.062-.569,2.385,2.385,0,0,0-.779.1.681.681,0,0,0-.381.494Zm14.835-6.746A14.719,14.719,0,0,0,191.33,4.6a14.48,14.48,0,0,0-1.762,3.76,22.989,22.989,0,0,0-.849,3.647,21.147,21.147,0,0,0-.247,2.884,18.012,18.012,0,0,0,.2,2.959,20.433,20.433,0,0,0,.843,3.024l-.376.129a15.411,15.411,0,0,1-2.191-7.917,11.635,11.635,0,0,1,.87-4.641,18.246,18.246,0,0,1,4.855-6.166Zm6.821,6.4a6.12,6.12,0,0,0,2.664-.473A3.034,3.034,0,0,0,204.07,5.56a2.027,2.027,0,0,0-.693-1.746,3,3,0,0,0-1.821-.51,2.347,2.347,0,0,0-.972.134.731.731,0,0,0-.349.478l-1.429,5.092ZM198.635,16.3a4.042,4.042,0,0,0,3.18-1.139,3.987,3.987,0,0,0,1.01-2.739,2.3,2.3,0,0,0-1.182-2.331,9.22,9.22,0,0,0-3.04-.365l-1.375,4.984a3.484,3.484,0,0,0-.086.36,1.84,1.84,0,0,0-.032.328.761.761,0,0,0,.548.784A2.965,2.965,0,0,0,198.635,16.3Zm-5.479.344a2.2,2.2,0,0,0,1.063-.279,2.447,2.447,0,0,0,.741-1.343l2.7-9.732.15-.569a3.84,3.84,0,0,0,.107-.73.8.8,0,0,0-.36-.763A3.177,3.177,0,0,0,196.207,3V2.648h5.683a7.941,7.941,0,0,1,2.557.376A2.822,2.822,0,0,1,206.3,5.839,2.925,2.925,0,0,1,204.79,8.46a7.606,7.606,0,0,1-2.3.827,5.4,5.4,0,0,1,1.708.945,3.268,3.268,0,0,1,1.021,2.535,3.66,3.66,0,0,1-1.6,3.019A7.1,7.1,0,0,1,199.236,17h-6.08Zm14,3.975a17.713,17.713,0,0,0,1.708-2.084,14.539,14.539,0,0,0,1.665-3.663,24.158,24.158,0,0,0,.838-3.513,21.043,21.043,0,0,0,.269-3.266,15.815,15.815,0,0,0-.317-3.352,11.12,11.12,0,0,0-.757-2.374l.408-.129a14.648,14.648,0,0,1,1.606,3.722,15.29,15.29,0,0,1,.585,4.184,11.719,11.719,0,0,1-.72,4.254,16.9,16.9,0,0,1-5.006,6.553Z" transform="translate(13.776 19.203)" fill="#12263f"/>
  </g>
</svg>
