<svg xmlns="http://www.w3.org/2000/svg" width="354.332" height="62" viewBox="0 0 354.332 62">
  <g id="Grupo_1101539" data-name="Grupo 1101539" transform="translate(-623.051 -2670.533)">
    <g id="Trazado_879088" data-name="Trazado 879088" transform="translate(623.051 2670.533)" fill="#fff">
      <path d="M 353.8320007324219 61.5 L 0.5000156164169312 61.5 L 0.5000156164169312 0.5 L 353.8320007324219 0.5 L 353.8320007324219 61.5 Z" stroke="none"/>
      <path d="M 1.000030517578125 1 L 1.000030517578125 61 L 353.3320007324219 61 L 353.3320007324219 1 L 1.000030517578125 1 M 3.0517578125e-05 0 L 354.3320007324219 0 L 354.3320007324219 62 L 3.0517578125e-05 62 L 3.0517578125e-05 0 Z" stroke="none" fill="#3ba935"/>
    </g>
    <path id="Trazado_877512" data-name="Trazado 877512" d="M13.309,21.646a2.2,2.2,0,0,0,1.063-.279,2.447,2.447,0,0,0,.741-1.343l2.7-9.732.2-.838q.032-.15.048-.274a1.722,1.722,0,0,0,.016-.22.735.735,0,0,0-.354-.709A3.147,3.147,0,0,0,16.51,8V7.648h5.446a7.34,7.34,0,0,1,2.718.419A2.9,2.9,0,0,1,26.618,11a3.712,3.712,0,0,1-.773,2.32q-1.493,1.966-5.382,1.966-.473,0-.94-.038a7.736,7.736,0,0,1-.9-.124l-1.171,4.232q-.107.387-.161.634a3.267,3.267,0,0,0-.1.666.8.8,0,0,0,.328.741,2.656,2.656,0,0,0,1.176.247V22H13.309Zm5.521-7.283q.2.043.5.075a7.364,7.364,0,0,0,.768.032,5.926,5.926,0,0,0,2.557-.451,3.19,3.19,0,0,0,1.719-3.169A2.271,2.271,0,0,0,23.6,8.895a3.4,3.4,0,0,0-2.062-.569,2.385,2.385,0,0,0-.779.1.681.681,0,0,0-.381.494ZM33.665,7.616A14.719,14.719,0,0,0,32.043,9.6a14.48,14.48,0,0,0-1.762,3.76,22.989,22.989,0,0,0-.849,3.647,21.148,21.148,0,0,0-.247,2.884,18.013,18.013,0,0,0,.2,2.959,20.432,20.432,0,0,0,.843,3.024l-.376.129A15.411,15.411,0,0,1,27.66,18.09a11.635,11.635,0,0,1,.87-4.641,18.246,18.246,0,0,1,4.855-6.166Zm9.056,8.637-.967-5.7-3.276,5.7Zm-9.238,5.393a2.165,2.165,0,0,0,1.155-.677,24.567,24.567,0,0,0,1.692-2.653l6.424-11h.483l2.116,12.45a3.338,3.338,0,0,0,.483,1.5,1.957,1.957,0,0,0,1.192.381V22H41.6v-.354a4.633,4.633,0,0,0,1.268-.236.833.833,0,0,0,.462-.838q0-.161-.011-.344a3.005,3.005,0,0,0-.032-.312l-.44-2.879H38.016l-1.278,2.471a3.948,3.948,0,0,0-.247.526,2.483,2.483,0,0,0-.183.827.634.634,0,0,0,.285.591,2.25,2.25,0,0,0,1.015.193V22H33.482Zm19.7-4.63A5.143,5.143,0,0,1,54.542,13.4a4.537,4.537,0,0,1,3.5-1.477,4.776,4.776,0,0,1,3.523,1.4,5.024,5.024,0,0,1,1.4,3.717,5.53,5.53,0,0,1-1.354,3.717,4.4,4.4,0,0,1-3.5,1.579,4.616,4.616,0,0,1-3.491-1.515A5.324,5.324,0,0,1,53.184,17.016Zm4.555-4.447a2.132,2.132,0,0,0-1.472.559A4.409,4.409,0,0,0,55.192,16.5a7.585,7.585,0,0,0,.865,3.566,2.647,2.647,0,0,0,2.4,1.654,2.041,2.041,0,0,0,1.853-1.106,5.686,5.686,0,0,0,.65-2.9,7.684,7.684,0,0,0-.827-3.5A2.594,2.594,0,0,0,57.738,12.568Zm17.8,1.45a6.12,6.12,0,0,0,2.664-.473,3.034,3.034,0,0,0,1.633-2.986,2.027,2.027,0,0,0-.693-1.746,3,3,0,0,0-1.821-.51,2.347,2.347,0,0,0-.972.134A.731.731,0,0,0,76,8.916l-1.429,5.092ZM74.4,21.3a4.042,4.042,0,0,0,3.18-1.139,3.987,3.987,0,0,0,1.01-2.739,2.3,2.3,0,0,0-1.182-2.331,9.22,9.22,0,0,0-3.04-.365l-1.375,4.984a3.486,3.486,0,0,0-.086.36,1.84,1.84,0,0,0-.032.328.761.761,0,0,0,.548.784A2.965,2.965,0,0,0,74.4,21.3Zm-5.479.344a2.2,2.2,0,0,0,1.063-.279,2.447,2.447,0,0,0,.741-1.343l2.7-9.732.15-.569a3.839,3.839,0,0,0,.107-.73.8.8,0,0,0-.36-.763A3.177,3.177,0,0,0,71.972,8V7.648h5.683a7.941,7.941,0,0,1,2.557.376,2.822,2.822,0,0,1,1.858,2.814,2.925,2.925,0,0,1-1.515,2.621,7.606,7.606,0,0,1-2.3.827,5.4,5.4,0,0,1,1.708.945,3.268,3.268,0,0,1,1.021,2.535,3.66,3.66,0,0,1-1.6,3.019A7.1,7.1,0,0,1,75,22h-6.08Zm14,3.975a17.715,17.715,0,0,0,1.708-2.084,14.539,14.539,0,0,0,1.665-3.663,24.16,24.16,0,0,0,.838-3.513,21.042,21.042,0,0,0,.269-3.266,15.814,15.814,0,0,0-.317-3.352,11.12,11.12,0,0,0-.757-2.374l.408-.129a14.648,14.648,0,0,1,1.606,3.722,15.29,15.29,0,0,1,.585,4.184A11.719,11.719,0,0,1,88.2,19.4,16.9,16.9,0,0,1,83.2,25.953Zm26-11.967-.269,1.3H97.613l.269-1.3ZM107.99,18l-.269,1.3H96.689l.269-1.3Zm7.745,3.642a2.2,2.2,0,0,0,1.063-.279,2.447,2.447,0,0,0,.741-1.343l2.7-9.732.2-.838q.032-.15.048-.274a1.722,1.722,0,0,0,.016-.22.735.735,0,0,0-.354-.709A3.147,3.147,0,0,0,118.937,8V7.648h5.446a7.34,7.34,0,0,1,2.718.419A2.9,2.9,0,0,1,129.045,11a3.712,3.712,0,0,1-.773,2.32q-1.493,1.966-5.382,1.966-.473,0-.94-.038a7.736,7.736,0,0,1-.9-.124l-1.171,4.232q-.107.387-.161.634a3.267,3.267,0,0,0-.1.666.8.8,0,0,0,.328.741,2.656,2.656,0,0,0,1.176.247V22h-5.393Zm5.521-7.283q.2.043.5.075a7.364,7.364,0,0,0,.768.032,5.926,5.926,0,0,0,2.557-.451A3.19,3.19,0,0,0,126.8,10.85a2.271,2.271,0,0,0-.773-1.955,3.4,3.4,0,0,0-2.062-.569,2.385,2.385,0,0,0-.779.1.681.681,0,0,0-.381.494Zm14.835-6.746A14.719,14.719,0,0,0,134.47,9.6a14.48,14.48,0,0,0-1.762,3.76,22.989,22.989,0,0,0-.849,3.647,21.147,21.147,0,0,0-.247,2.884,18.012,18.012,0,0,0,.2,2.959,20.433,20.433,0,0,0,.843,3.024l-.376.129a15.411,15.411,0,0,1-2.191-7.917,11.635,11.635,0,0,1,.87-4.641,18.246,18.246,0,0,1,4.855-6.166Zm9.056,8.637-.967-5.7-3.276,5.7Zm-9.238,5.393a2.165,2.165,0,0,0,1.155-.677,24.566,24.566,0,0,0,1.692-2.653l6.424-11h.483l2.116,12.45a3.337,3.337,0,0,0,.483,1.5,1.957,1.957,0,0,0,1.192.381V22H144.03v-.354a4.634,4.634,0,0,0,1.268-.236.833.833,0,0,0,.462-.838q0-.161-.011-.344a3,3,0,0,0-.032-.312l-.44-2.879h-4.834l-1.278,2.471a3.948,3.948,0,0,0-.247.526,2.483,2.483,0,0,0-.183.827.634.634,0,0,0,.285.591,2.25,2.25,0,0,0,1.015.193V22h-4.125Zm14.384,3.975A17.713,17.713,0,0,0,152,23.536a14.539,14.539,0,0,0,1.665-3.663,24.158,24.158,0,0,0,.838-3.513,21.043,21.043,0,0,0,.269-3.266,15.815,15.815,0,0,0-.317-3.352,11.12,11.12,0,0,0-.757-2.374l.408-.129a14.648,14.648,0,0,1,1.606,3.722,15.29,15.29,0,0,1,.585,4.184,11.719,11.719,0,0,1-.72,4.254,16.9,16.9,0,0,1-5.006,6.553Zm14.373-8.476v-1.3h4.866V10.979h1.3v4.866H175.7v1.3h-4.866V22h-1.3V17.145Zm18.444,4.5a2.2,2.2,0,0,0,1.063-.279,2.447,2.447,0,0,0,.741-1.343l2.7-9.732.2-.838q.032-.15.048-.274a1.722,1.722,0,0,0,.016-.22.735.735,0,0,0-.354-.709A3.147,3.147,0,0,0,186.312,8V7.648h5.446a7.34,7.34,0,0,1,2.718.419A2.9,2.9,0,0,1,196.42,11a3.712,3.712,0,0,1-.773,2.32q-1.493,1.966-5.382,1.966-.473,0-.94-.038a7.736,7.736,0,0,1-.9-.124l-1.171,4.232q-.107.387-.161.634a3.267,3.267,0,0,0-.1.666.8.8,0,0,0,.328.741,2.656,2.656,0,0,0,1.176.247V22H183.11Zm5.521-7.283q.2.043.5.075a7.364,7.364,0,0,0,.768.032,5.926,5.926,0,0,0,2.557-.451,3.19,3.19,0,0,0,1.719-3.169,2.271,2.271,0,0,0-.773-1.955,3.4,3.4,0,0,0-2.062-.569,2.385,2.385,0,0,0-.779.1.681.681,0,0,0-.381.494Zm14.835-6.746A14.719,14.719,0,0,0,201.845,9.6a14.48,14.48,0,0,0-1.762,3.76,22.989,22.989,0,0,0-.849,3.647,21.147,21.147,0,0,0-.247,2.884,18.012,18.012,0,0,0,.2,2.959,20.433,20.433,0,0,0,.843,3.024l-.376.129a15.411,15.411,0,0,1-2.191-7.917,11.635,11.635,0,0,1,.87-4.641,18.246,18.246,0,0,1,4.855-6.166Zm6.821,6.4a6.12,6.12,0,0,0,2.664-.473,3.034,3.034,0,0,0,1.633-2.986,2.027,2.027,0,0,0-.693-1.746,3,3,0,0,0-1.821-.51,2.347,2.347,0,0,0-.972.134.731.731,0,0,0-.349.478l-1.429,5.092ZM209.149,21.3a4.042,4.042,0,0,0,3.18-1.139,3.987,3.987,0,0,0,1.01-2.739,2.3,2.3,0,0,0-1.182-2.331,9.22,9.22,0,0,0-3.04-.365l-1.375,4.984a3.484,3.484,0,0,0-.086.36,1.84,1.84,0,0,0-.032.328.761.761,0,0,0,.548.784A2.965,2.965,0,0,0,209.149,21.3Zm-5.479.344a2.2,2.2,0,0,0,1.063-.279,2.447,2.447,0,0,0,.741-1.343l2.7-9.732.15-.569a3.84,3.84,0,0,0,.107-.73.8.8,0,0,0-.36-.763A3.177,3.177,0,0,0,206.722,8V7.648H212.4a7.941,7.941,0,0,1,2.557.376,2.822,2.822,0,0,1,1.858,2.814A2.925,2.925,0,0,1,215.3,13.46a7.606,7.606,0,0,1-2.3.827,5.4,5.4,0,0,1,1.708.945,3.268,3.268,0,0,1,1.021,2.535,3.66,3.66,0,0,1-1.6,3.019A7.1,7.1,0,0,1,209.751,22h-6.08Zm14,3.975a17.713,17.713,0,0,0,1.708-2.084,14.539,14.539,0,0,0,1.665-3.663,24.158,24.158,0,0,0,.838-3.513,21.043,21.043,0,0,0,.269-3.266,15.815,15.815,0,0,0-.317-3.352,11.12,11.12,0,0,0-.757-2.374l.408-.129a14.648,14.648,0,0,1,1.606,3.722,15.29,15.29,0,0,1,.585,4.184,11.719,11.719,0,0,1-.72,4.254,16.9,16.9,0,0,1-5.006,6.553ZM231.515,16.4h4.834l-.312,1.375H231.2Zm11.451,5.242a2.2,2.2,0,0,0,1.063-.279,2.447,2.447,0,0,0,.741-1.343l2.7-9.732.2-.838q.032-.15.048-.274a1.722,1.722,0,0,0,.016-.22.735.735,0,0,0-.354-.709A3.147,3.147,0,0,0,246.167,8V7.648h5.446a7.34,7.34,0,0,1,2.718.419A2.9,2.9,0,0,1,256.275,11a3.712,3.712,0,0,1-.773,2.32q-1.493,1.966-5.382,1.966-.473,0-.94-.038a7.736,7.736,0,0,1-.9-.124l-1.171,4.232q-.107.387-.161.634a3.267,3.267,0,0,0-.1.666.8.8,0,0,0,.328.741,2.656,2.656,0,0,0,1.176.247V22h-5.393Zm5.521-7.283q.2.043.5.075a7.364,7.364,0,0,0,.768.032,5.926,5.926,0,0,0,2.557-.451,3.19,3.19,0,0,0,1.719-3.169,2.271,2.271,0,0,0-.773-1.955,3.4,3.4,0,0,0-2.062-.569,2.385,2.385,0,0,0-.779.1.681.681,0,0,0-.381.494Zm14.835-6.746A14.719,14.719,0,0,0,261.7,9.6a14.48,14.48,0,0,0-1.762,3.76,22.989,22.989,0,0,0-.849,3.647,21.15,21.15,0,0,0-.247,2.884,18.014,18.014,0,0,0,.2,2.959,20.431,20.431,0,0,0,.843,3.024l-.376.129a15.411,15.411,0,0,1-2.191-7.917,11.635,11.635,0,0,1,.87-4.641,18.246,18.246,0,0,1,4.855-6.166Zm6.821,6.4a6.12,6.12,0,0,0,2.664-.473,3.034,3.034,0,0,0,1.633-2.986,2.027,2.027,0,0,0-.693-1.746,3,3,0,0,0-1.821-.51,2.347,2.347,0,0,0-.972.134.731.731,0,0,0-.349.478l-1.429,5.092ZM269,21.3a4.042,4.042,0,0,0,3.18-1.139,3.987,3.987,0,0,0,1.01-2.739,2.3,2.3,0,0,0-1.182-2.331,9.22,9.22,0,0,0-3.04-.365L267.6,19.712a3.488,3.488,0,0,0-.086.36,1.84,1.84,0,0,0-.032.328.761.761,0,0,0,.548.784A2.965,2.965,0,0,0,269,21.3Zm-5.479.344a2.2,2.2,0,0,0,1.063-.279,2.447,2.447,0,0,0,.741-1.343l2.7-9.732.15-.569a3.839,3.839,0,0,0,.107-.73.8.8,0,0,0-.36-.763A3.177,3.177,0,0,0,266.577,8V7.648h5.683a7.941,7.941,0,0,1,2.557.376,2.822,2.822,0,0,1,1.858,2.814,2.925,2.925,0,0,1-1.515,2.621,7.606,7.606,0,0,1-2.3.827,5.4,5.4,0,0,1,1.708.945,3.268,3.268,0,0,1,1.021,2.535,3.66,3.66,0,0,1-1.6,3.019A7.1,7.1,0,0,1,269.606,22h-6.08Zm16.4.354h-.633V9.32h.633Zm10.651-5.747-.967-5.7-3.276,5.7Zm-9.238,5.393a2.165,2.165,0,0,0,1.155-.677,24.571,24.571,0,0,0,1.692-2.653l6.424-11h.483l2.116,12.45a3.338,3.338,0,0,0,.483,1.5,1.957,1.957,0,0,0,1.192.381V22h-5.425v-.354a4.633,4.633,0,0,0,1.268-.236.833.833,0,0,0,.462-.838q0-.161-.011-.344a3.012,3.012,0,0,0-.032-.312l-.44-2.879h-4.834l-1.278,2.471a3.948,3.948,0,0,0-.247.526,2.484,2.484,0,0,0-.183.827.634.634,0,0,0,.285.591,2.25,2.25,0,0,0,1.015.193V22h-4.125ZM295.72,25.62a17.717,17.717,0,0,0,1.708-2.084,14.539,14.539,0,0,0,1.665-3.663,24.162,24.162,0,0,0,.838-3.513,21.041,21.041,0,0,0,.269-3.266,15.814,15.814,0,0,0-.317-3.352,11.121,11.121,0,0,0-.757-2.374l.408-.129a14.648,14.648,0,0,1,1.606,3.722,15.29,15.29,0,0,1,.585,4.184A11.719,11.719,0,0,1,301,19.4,16.9,16.9,0,0,1,296,25.953Z" transform="translate(642.742 2684.293)" fill="#12263f"/>
  </g>
</svg>
