<svg xmlns="http://www.w3.org/2000/svg" width="257" height="68" viewBox="0 0 257 68">
  <g id="Grupo_1100978" data-name="Grupo 1100978" transform="translate(-758 -3220.357)">
    <g id="Rectángulo_401923" data-name="Rectángulo 401923" transform="translate(758 3220.357)" fill="#fff" stroke="#3ba935" stroke-width="1">
      <rect width="257" height="68" stroke="none"/>
      <rect x="0.5" y="0.5" width="256" height="67" fill="none"/>
    </g>
    <path id="Trazado_877511" data-name="Trazado 877511" d="M6.032,24.6A2.5,2.5,0,0,0,7.24,24.28a2.781,2.781,0,0,0,.842-1.526l3.064-11.06.232-.952q.037-.171.055-.311a1.957,1.957,0,0,0,.018-.25.835.835,0,0,0-.4-.806A3.576,3.576,0,0,0,9.67,9.094v-.4h6.189a8.341,8.341,0,0,1,3.088.476A3.3,3.3,0,0,1,21.156,12.5a4.218,4.218,0,0,1-.879,2.637q-1.7,2.234-6.116,2.234-.537,0-1.068-.043a8.791,8.791,0,0,1-1.019-.14L10.744,22q-.122.439-.183.72a3.712,3.712,0,0,0-.11.757.913.913,0,0,0,.372.842,3.019,3.019,0,0,0,1.337.281V25H6.032Zm6.274-8.276q.232.049.568.085a8.368,8.368,0,0,0,.873.037,6.735,6.735,0,0,0,2.905-.513,3.625,3.625,0,0,0,1.953-3.6,2.581,2.581,0,0,0-.879-2.222,3.866,3.866,0,0,0-2.344-.647,2.71,2.71,0,0,0-.885.11.774.774,0,0,0-.433.562ZM29.164,8.655a16.726,16.726,0,0,0-1.843,2.258,16.455,16.455,0,0,0-2,4.272,26.124,26.124,0,0,0-.964,4.144,24.032,24.032,0,0,0-.281,3.278A20.469,20.469,0,0,0,24.3,25.97a23.219,23.219,0,0,0,.958,3.436l-.427.146a17.513,17.513,0,0,1-2.49-9,13.221,13.221,0,0,1,.989-5.273,20.734,20.734,0,0,1,5.518-7.007Zm7.751,7.275a6.954,6.954,0,0,0,3.027-.537A3.448,3.448,0,0,0,41.8,12a2.3,2.3,0,0,0-.787-1.984,3.406,3.406,0,0,0-2.069-.58,2.667,2.667,0,0,0-1.1.153.831.831,0,0,0-.4.543l-1.624,5.786Zm-1.294,8.276a4.593,4.593,0,0,0,3.613-1.294A4.53,4.53,0,0,0,40.383,19.8a2.612,2.612,0,0,0-1.343-2.649,10.478,10.478,0,0,0-3.455-.415L34.023,22.4a3.96,3.96,0,0,0-.1.409,2.091,2.091,0,0,0-.037.372.864.864,0,0,0,.623.891A3.369,3.369,0,0,0,35.622,24.207ZM29.4,24.6A2.5,2.5,0,0,0,30.6,24.28a2.781,2.781,0,0,0,.842-1.526l3.064-11.06.171-.647a4.363,4.363,0,0,0,.122-.83.908.908,0,0,0-.409-.867,3.61,3.61,0,0,0-1.532-.256v-.4h6.458a9.024,9.024,0,0,1,2.905.427,3.206,3.206,0,0,1,2.112,3.2A3.324,3.324,0,0,1,42.616,15.3a8.643,8.643,0,0,1-2.612.94,6.138,6.138,0,0,1,1.941,1.074A3.714,3.714,0,0,1,43.1,20.19a4.159,4.159,0,0,1-1.819,3.43A8.063,8.063,0,0,1,36.305,25H29.4ZM48,25h-.712V10.735H48Zm12.081-6.531-1.1-6.482-3.723,6.482ZM49.58,24.6a2.46,2.46,0,0,0,1.312-.769,27.917,27.917,0,0,0,1.923-3.015l7.3-12.5h.549l2.4,14.148a3.793,3.793,0,0,0,.549,1.7,2.224,2.224,0,0,0,1.355.433V25H58.809v-.4a5.265,5.265,0,0,0,1.44-.269.947.947,0,0,0,.525-.952q0-.183-.012-.391a3.415,3.415,0,0,0-.037-.354l-.5-3.271H54.732l-1.453,2.808a4.487,4.487,0,0,0-.281.6,2.822,2.822,0,0,0-.208.94.72.72,0,0,0,.323.671,2.557,2.557,0,0,0,1.154.22V25H49.58Zm16.345,4.517a20.131,20.131,0,0,0,1.941-2.368,16.521,16.521,0,0,0,1.892-4.163,27.454,27.454,0,0,0,.952-3.992,23.912,23.912,0,0,0,.305-3.711,17.971,17.971,0,0,0-.36-3.809,12.637,12.637,0,0,0-.861-2.7l.464-.146a16.645,16.645,0,0,1,1.825,4.23,17.375,17.375,0,0,1,.665,4.755,13.317,13.317,0,0,1-.818,4.834,19.209,19.209,0,0,1-5.688,7.446Zm29.541-13.6-.305,1.477H82.625l.305-1.477Zm-1.05,4.944-.305,1.477H81.575l.305-1.477Z" transform="translate(763 3234.769)" fill="#12263f"/>
    <path id="Trazado_877510" data-name="Trazado 877510" d="M13.022,22.662a2.1,2.1,0,0,0,1.015-.267,2.336,2.336,0,0,0,.708-1.282l2.574-9.29.195-.8q.031-.144.046-.261a1.644,1.644,0,0,0,.015-.21.7.7,0,0,0-.338-.677,3,3,0,0,0-1.159-.236V9.3h5.2a7.007,7.007,0,0,1,2.594.4,2.772,2.772,0,0,1,1.856,2.8,3.543,3.543,0,0,1-.738,2.215q-1.425,1.876-5.137,1.876-.451,0-.9-.036a7.384,7.384,0,0,1-.856-.118l-1.118,4.04q-.1.369-.154.6a3.118,3.118,0,0,0-.092.636.767.767,0,0,0,.313.708,2.536,2.536,0,0,0,1.123.236V23H13.022Zm5.271-6.952q.195.041.477.072a7.029,7.029,0,0,0,.733.031,5.657,5.657,0,0,0,2.44-.431,3.045,3.045,0,0,0,1.641-3.025,2.168,2.168,0,0,0-.738-1.866,3.247,3.247,0,0,0-1.969-.543,2.276,2.276,0,0,0-.743.092.65.65,0,0,0-.364.472ZM32.453,9.27a14.05,14.05,0,0,0-1.548,1.9,13.822,13.822,0,0,0-1.682,3.589,21.944,21.944,0,0,0-.81,3.481,20.187,20.187,0,0,0-.236,2.753,17.194,17.194,0,0,0,.19,2.825,19.5,19.5,0,0,0,.8,2.886l-.359.123a14.711,14.711,0,0,1-2.092-7.557,11.106,11.106,0,0,1,.831-4.43,17.416,17.416,0,0,1,4.635-5.886Zm6.511,6.111a5.842,5.842,0,0,0,2.543-.451,2.9,2.9,0,0,0,1.559-2.851,1.935,1.935,0,0,0-.661-1.666,2.861,2.861,0,0,0-1.738-.487,2.24,2.24,0,0,0-.928.128.7.7,0,0,0-.333.456l-1.364,4.86Zm-1.087,6.952a3.858,3.858,0,0,0,3.035-1.087,3.805,3.805,0,0,0,.964-2.615,2.194,2.194,0,0,0-1.128-2.225,8.8,8.8,0,0,0-2.9-.349l-1.312,4.758a3.327,3.327,0,0,0-.082.344,1.757,1.757,0,0,0-.031.313.726.726,0,0,0,.523.749A2.83,2.83,0,0,0,37.877,22.333Zm-5.229.328a2.1,2.1,0,0,0,1.015-.267,2.336,2.336,0,0,0,.708-1.282l2.574-9.29.144-.543a3.665,3.665,0,0,0,.1-.7.763.763,0,0,0-.344-.728,3.033,3.033,0,0,0-1.287-.215V9.3h5.424a7.58,7.58,0,0,1,2.44.359A2.693,2.693,0,0,1,45.2,12.346a2.792,2.792,0,0,1-1.446,2.5,7.261,7.261,0,0,1-2.194.79,5.156,5.156,0,0,1,1.63.9,3.119,3.119,0,0,1,.974,2.42,3.494,3.494,0,0,1-1.528,2.881A6.773,6.773,0,0,1,38.452,23h-5.8ZM48.539,23H47.88V9.792h.659Zm10.342-5.486-.923-5.445-3.127,5.445Zm-8.818,5.147a2.066,2.066,0,0,0,1.1-.646,23.451,23.451,0,0,0,1.615-2.533l6.132-10.5h.461l2.02,11.884a3.186,3.186,0,0,0,.461,1.43,1.868,1.868,0,0,0,1.138.364V23H57.814v-.338a4.423,4.423,0,0,0,1.21-.226.8.8,0,0,0,.441-.8q0-.154-.01-.328a2.869,2.869,0,0,0-.031-.3L59,18.263H54.39l-1.22,2.358a3.769,3.769,0,0,0-.236.5,2.37,2.37,0,0,0-.174.79.605.605,0,0,0,.272.564,2.148,2.148,0,0,0,.969.185V23H50.063Zm13.73,3.794a16.909,16.909,0,0,0,1.63-1.989,13.878,13.878,0,0,0,1.589-3.5,23.061,23.061,0,0,0,.8-3.353,20.086,20.086,0,0,0,.256-3.117,15.1,15.1,0,0,0-.3-3.2,10.615,10.615,0,0,0-.723-2.266l.39-.123a13.982,13.982,0,0,1,1.533,3.553,14.6,14.6,0,0,1,.559,3.994,11.186,11.186,0,0,1-.687,4.061,16.135,16.135,0,0,1-4.778,6.255ZM81.152,16l2.974-4.091h2.287l.031.051-4.378,5.435L84.926,23H82.608l-1.835-4.194L77.687,23H75.42l-.031-.051,4.5-5.558-2.779-5.486H79.44Zm10.356,6.665a2.1,2.1,0,0,0,1.015-.267,2.336,2.336,0,0,0,.708-1.282l2.574-9.29.195-.8q.031-.144.046-.261a1.644,1.644,0,0,0,.015-.21.7.7,0,0,0-.338-.677,3,3,0,0,0-1.159-.236V9.3h5.2a7.007,7.007,0,0,1,2.594.4,2.772,2.772,0,0,1,1.856,2.8,3.543,3.543,0,0,1-.738,2.215q-1.425,1.876-5.137,1.876-.451,0-.9-.036a7.384,7.384,0,0,1-.856-.118l-1.118,4.04q-.1.369-.154.6a3.118,3.118,0,0,0-.092.636.767.767,0,0,0,.313.708,2.536,2.536,0,0,0,1.123.236V23H91.509Zm5.271-6.952q.195.041.477.072a7.029,7.029,0,0,0,.733.031,5.657,5.657,0,0,0,2.44-.431,3.045,3.045,0,0,0,1.641-3.025,2.168,2.168,0,0,0-.738-1.866,3.247,3.247,0,0,0-1.969-.543,2.276,2.276,0,0,0-.743.092.65.65,0,0,0-.364.472ZM110.94,9.27a14.05,14.05,0,0,0-1.548,1.9,13.822,13.822,0,0,0-1.682,3.589,21.944,21.944,0,0,0-.81,3.481,20.187,20.187,0,0,0-.236,2.753,17.194,17.194,0,0,0,.19,2.825,19.5,19.5,0,0,0,.8,2.886l-.359.123a14.711,14.711,0,0,1-2.092-7.557,11.106,11.106,0,0,1,.831-4.43,17.416,17.416,0,0,1,4.635-5.886Zm8.644,8.244-.923-5.445-3.127,5.445Zm-8.818,5.147a2.066,2.066,0,0,0,1.1-.646,23.451,23.451,0,0,0,1.615-2.533l6.132-10.5h.461l2.02,11.884a3.186,3.186,0,0,0,.461,1.43,1.868,1.868,0,0,0,1.138.364V23h-5.178v-.338a4.423,4.423,0,0,0,1.21-.226.8.8,0,0,0,.441-.8q0-.154-.01-.328a2.869,2.869,0,0,0-.031-.3l-.42-2.748h-4.614l-1.22,2.358a3.769,3.769,0,0,0-.236.5,2.37,2.37,0,0,0-.174.79.605.605,0,0,0,.272.564,2.148,2.148,0,0,0,.969.185V23h-3.937Zm13.73,3.794a16.909,16.909,0,0,0,1.63-1.989,13.878,13.878,0,0,0,1.589-3.5,23.061,23.061,0,0,0,.8-3.353,20.086,20.086,0,0,0,.256-3.117,15.1,15.1,0,0,0-.3-3.2,10.615,10.615,0,0,0-.723-2.266l.39-.123a13.982,13.982,0,0,1,1.533,3.553,14.6,14.6,0,0,1,.559,3.994,11.186,11.186,0,0,1-.687,4.061,16.135,16.135,0,0,1-4.778,6.255ZM52.265,50.662a2.1,2.1,0,0,0,1.015-.267,2.336,2.336,0,0,0,.708-1.282l2.574-9.29.195-.8q.031-.144.046-.261a1.644,1.644,0,0,0,.015-.21.7.7,0,0,0-.338-.677,3,3,0,0,0-1.159-.236V37.3h5.2a7.007,7.007,0,0,1,2.594.4,2.772,2.772,0,0,1,1.856,2.8,3.543,3.543,0,0,1-.738,2.215q-1.425,1.876-5.137,1.876-.451,0-.9-.036a7.384,7.384,0,0,1-.856-.118l-1.118,4.04q-.1.369-.154.6a3.118,3.118,0,0,0-.092.636.767.767,0,0,0,.313.708,2.536,2.536,0,0,0,1.123.236V51H52.265Zm5.271-6.952q.195.041.477.072a7.029,7.029,0,0,0,.733.031,5.657,5.657,0,0,0,2.44-.431,3.045,3.045,0,0,0,1.641-3.025,2.168,2.168,0,0,0-.738-1.866,3.247,3.247,0,0,0-1.969-.543,2.276,2.276,0,0,0-.743.092.65.65,0,0,0-.364.472ZM71.7,37.27a14.05,14.05,0,0,0-1.548,1.9,13.822,13.822,0,0,0-1.682,3.589,21.944,21.944,0,0,0-.81,3.481,20.187,20.187,0,0,0-.236,2.753,17.194,17.194,0,0,0,.19,2.825,19.5,19.5,0,0,0,.8,2.886l-.359.123a14.711,14.711,0,0,1-2.092-7.557,11.106,11.106,0,0,1,.831-4.43,17.416,17.416,0,0,1,4.635-5.886Zm6.511,6.111a5.842,5.842,0,0,0,2.543-.451,2.9,2.9,0,0,0,1.559-2.851,1.935,1.935,0,0,0-.661-1.666,2.861,2.861,0,0,0-1.738-.487,2.24,2.24,0,0,0-.928.128.7.7,0,0,0-.333.456l-1.364,4.86Zm-1.087,6.952a3.858,3.858,0,0,0,3.035-1.087,3.805,3.805,0,0,0,.964-2.615,2.194,2.194,0,0,0-1.128-2.225,8.8,8.8,0,0,0-2.9-.349l-1.312,4.758a3.327,3.327,0,0,0-.082.344,1.757,1.757,0,0,0-.031.313.726.726,0,0,0,.523.749A2.83,2.83,0,0,0,77.121,50.333Zm-5.229.328a2.1,2.1,0,0,0,1.015-.267,2.336,2.336,0,0,0,.708-1.282l2.574-9.29.144-.543a3.665,3.665,0,0,0,.1-.7.763.763,0,0,0-.344-.728,3.033,3.033,0,0,0-1.287-.215V37.3h5.424a7.58,7.58,0,0,1,2.44.359,2.693,2.693,0,0,1,1.774,2.687A2.792,2.792,0,0,1,83,42.848a7.261,7.261,0,0,1-2.194.79,5.156,5.156,0,0,1,1.63.9,3.119,3.119,0,0,1,.974,2.42,3.494,3.494,0,0,1-1.528,2.881A6.773,6.773,0,0,1,77.7,51h-5.8Zm13.361,3.794a16.909,16.909,0,0,0,1.63-1.989,13.878,13.878,0,0,0,1.589-3.5,23.061,23.061,0,0,0,.8-3.353,20.086,20.086,0,0,0,.256-3.117,15.1,15.1,0,0,0-.3-3.2,10.615,10.615,0,0,0-.723-2.266l.39-.123a13.982,13.982,0,0,1,1.533,3.553,14.6,14.6,0,0,1,.559,3.994,11.186,11.186,0,0,1-.687,4.061,16.135,16.135,0,0,1-4.778,6.255Z" transform="translate(865.525 3225.857)" fill="#12263f"/>
    <path id="Trazado_877509" data-name="Trazado 877509" d="M0,0H135.45" transform="translate(865.525 3253.857)" fill="none" stroke="#12263f" stroke-width="1"/>
  </g>
</svg>
