<svg xmlns="http://www.w3.org/2000/svg" width="95" height="68" viewBox="0 0 95 68">
  <g id="Grupo_1101539" data-name="Grupo 1101539" transform="translate(-657.051 -5377)">
    <g id="Trazado_879089" data-name="Trazado 879089" transform="translate(657.051 5377)" fill="#fff">
      <path d="M 94.5 67.5 L 0.5 67.5 L 0.5 0.5 L 94.5 0.5 L 94.5 67.5 Z" stroke="none"/>
      <path d="M 1 1 L 1 67 L 94 67 L 94 1 L 1 1 M 0 0 L 95 0 L 95 68 L 0 68 L 0 0 Z" stroke="none" fill="#3ba935"/>
    </g>
    <path id="Trazado_879090" data-name="Trazado 879090" d="M9.58,12.479l-7.5,8.164H7.764L7.461,22H-.762l.117-.518,7.5-8.125H1.641L1.943,12H9.678Zm7.461,2.266V13.436h9.18v1.309Zm0,4.16V17.6h9.18V18.9Z" transform="translate(668.051 5401)" fill="#12263f"/>
    <path id="Trazado_879091" data-name="Trazado 879091" d="M9.674,17.117,11.979,22l-1.768.02-1.26-3.135q-.059-.156-.161-.42l-.19-.488H8.551q-.068.1-.161.22l-.181.239q-.088.117-.171.22t-.142.181L5.279,22h-1.9l4.5-4.98L5.631,12H7.4l1.2,3.184q.088.234.176.508t.137.43h.039q.059-.068.137-.171l.166-.22q.088-.117.181-.234t.181-.215L12.33,12h1.826Zm15.762-.059H20.094l.283-1.26h5.342Zm7.8,9.639H31.656L34.771,12h1.621l-1.24,5.859q-.039.156-.078.361t-.073.41q-.034.205-.054.376a2.512,2.512,0,0,0-.02.269,1.784,1.784,0,0,0,.356,1.167,1.3,1.3,0,0,0,1.069.435,2.255,2.255,0,0,0,.859-.176,3.91,3.91,0,0,0,.835-.474,5.06,5.06,0,0,0,.762-.693,7.047,7.047,0,0,0,.649-.84,6.441,6.441,0,0,0,.5-.913,4.822,4.822,0,0,0,.308-.9L41.314,12h1.611l-1.494,6.963q-.068.3-.117.635a3.83,3.83,0,0,0-.049.527.76.76,0,0,0,.078.361.679.679,0,0,0,.459.356,1.285,1.285,0,0,0,.293.034,2.224,2.224,0,0,0,.356-.029,2,2,0,0,0,.347-.088l-.254,1.279a3.719,3.719,0,0,1-.557.127,3.981,3.981,0,0,1-.615.049,1.763,1.763,0,0,1-1.348-.444,1.666,1.666,0,0,1-.41-1.177q0-.088,0-.22t.02-.269q.015-.137.029-.264t.024-.205h-.039a6.916,6.916,0,0,1-.688,1.021,5.151,5.151,0,0,1-.84.825,3.912,3.912,0,0,1-.981.557,3.044,3.044,0,0,1-1.113.205,1.955,1.955,0,0,1-1.025-.264,1.383,1.383,0,0,1-.605-.693ZM30.382,37.289H28a6.651,6.651,0,0,1,.3,1.167,8.232,8.232,0,0,1,.117,1.421,8.829,8.829,0,0,1-.347,2.524,5.873,5.873,0,0,1-1.03,2.021,4.8,4.8,0,0,1-1.685,1.338,5.274,5.274,0,0,1-2.319.483,4.642,4.642,0,0,1-1.689-.288,3.392,3.392,0,0,1-2.036-2.09,4.926,4.926,0,0,1-.269-1.675,7.292,7.292,0,0,1,.444-2.637,5.279,5.279,0,0,1,1.27-1.943,5.431,5.431,0,0,1,2-1.2A7.992,7.992,0,0,1,25.4,36h5.264Zm-3.6,2.549a12.644,12.644,0,0,0-.073-1.367,5.477,5.477,0,0,0-.239-1.162H25.313A5.491,5.491,0,0,0,23.5,37.6a3.9,3.9,0,0,0-1.465.9,4.221,4.221,0,0,0-.977,1.533,6.09,6.09,0,0,0-.356,2.188,3.317,3.317,0,0,0,.176,1.118,2.36,2.36,0,0,0,.5.84,2.147,2.147,0,0,0,.786.527,2.751,2.751,0,0,0,1.016.181,3.23,3.23,0,0,0,1.245-.225,2.981,2.981,0,0,0,.938-.605,3.613,3.613,0,0,0,.669-.884,5.256,5.256,0,0,0,.435-1.064,7.548,7.548,0,0,0,.234-1.147A9.062,9.062,0,0,0,26.778,39.838Z" transform="translate(693.196 5389)" fill="#12263f"/>
    <path id="Trazado_879092" data-name="Trazado 879092" d="M0,0H38" transform="translate(697.696 5411.299)" fill="none" stroke="#12263f" stroke-width="1"/>
  </g>
</svg>
