<svg xmlns="http://www.w3.org/2000/svg" width="505" height="264" viewBox="0 0 505 264">
  <g id="Grupo_1100951" data-name="Grupo 1100951" transform="translate(-285.051 -517)">
    <path id="Trazado_877506" data-name="Trazado 877506" d="M8,0H182a8,8,0,0,1,8,8V256a8,8,0,0,1-8,8H8a8,8,0,0,1-8-8V8A8,8,0,0,1,8,0Z" transform="translate(285.051 517)" fill="#73c8e2"/>
    <path id="Trazado_877507" data-name="Trazado 877507" d="M0,0H315V243H0Z" transform="translate(475.051 528)" fill="#c6e9f3"/>
    <path id="Trazado_877508" data-name="Trazado 877508" d="M29,12.008h.047l2.922-8.383h2.977V15H32.668V7.234l-.047-.008L29.809,15H28.262L25.449,7.211l-.047.008V15H23.121V3.625h2.992Zm11.531,3.156A3.8,3.8,0,0,1,37.582,14a4.252,4.252,0,0,1-1.062-2.988V10.7a4.628,4.628,0,0,1,1.031-3.109,3.506,3.506,0,0,1,2.836-1.2A3.282,3.282,0,0,1,43,7.434a4.122,4.122,0,0,1,.91,2.809v1.18H38.871l-.023.047a2.284,2.284,0,0,0,.527,1.406,1.766,1.766,0,0,0,1.4.539,4.692,4.692,0,0,0,1.3-.156,5.307,5.307,0,0,0,1.105-.477l.617,1.406a4.234,4.234,0,0,1-1.375.7A6.1,6.1,0,0,1,40.535,15.164Zm-.148-7.016a1.267,1.267,0,0,0-1.059.473,2.371,2.371,0,0,0-.449,1.254l.016.039h2.781V9.742a1.974,1.974,0,0,0-.3-1.168A1.127,1.127,0,0,0,40.387,8.148Zm4.5,2.7a5.493,5.493,0,0,1,.863-3.227,2.8,2.8,0,0,1,2.434-1.227,2.367,2.367,0,0,1,1.141.273,2.744,2.744,0,0,1,.891.781V2.813H52.5V15H50.559l-.2-1.039a2.826,2.826,0,0,1-.945.895,2.5,2.5,0,0,1-1.25.309,2.858,2.858,0,0,1-2.418-1.141,4.871,4.871,0,0,1-.863-3.016Zm2.273.164a3.443,3.443,0,0,0,.375,1.746,1.306,1.306,0,0,0,1.219.637,1.775,1.775,0,0,0,.859-.2,1.589,1.589,0,0,0,.6-.582v-3.6a1.756,1.756,0,0,0-.6-.621,1.589,1.589,0,0,0-.848-.223,1.287,1.287,0,0,0-1.223.742,4.194,4.194,0,0,0-.387,1.938ZM56.668,15H54.387V6.547h2.281Zm0-10.477H54.387V2.813h2.281Zm1.523,6.32a5.493,5.493,0,0,1,.863-3.227,2.8,2.8,0,0,1,2.434-1.227,2.367,2.367,0,0,1,1.141.273,2.744,2.744,0,0,1,.891.781V2.813h2.289V15H63.863l-.2-1.039a2.826,2.826,0,0,1-.945.895,2.5,2.5,0,0,1-1.25.309,2.858,2.858,0,0,1-2.418-1.141,4.871,4.871,0,0,1-.863-3.016Zm2.273.164a3.443,3.443,0,0,0,.375,1.746,1.306,1.306,0,0,0,1.219.637,1.775,1.775,0,0,0,.859-.2,1.589,1.589,0,0,0,.6-.582v-3.6a1.756,1.756,0,0,0-.6-.621,1.589,1.589,0,0,0-.848-.223,1.287,1.287,0,0,0-1.223.742,4.194,4.194,0,0,0-.387,1.938ZM72.559,15a4.8,4.8,0,0,1-.215-.609,4.238,4.238,0,0,1-.129-.656,3.127,3.127,0,0,1-.93,1.023,2.33,2.33,0,0,1-1.375.406,2.855,2.855,0,0,1-2.047-.684,2.449,2.449,0,0,1-.719-1.863,2.229,2.229,0,0,1,.957-1.926,4.78,4.78,0,0,1,2.793-.684h1.281V9.336a1.315,1.315,0,0,0-.32-.945,1.257,1.257,0,0,0-.953-.336,1.239,1.239,0,0,0-.855.27.941.941,0,0,0-.3.738h-2.2l-.016-.047a2.144,2.144,0,0,1,.934-1.848,4.055,4.055,0,0,1,2.582-.777,3.784,3.784,0,0,1,2.465.766,2.667,2.667,0,0,1,.941,2.2v3.492a6.6,6.6,0,0,0,.09,1.117A5.606,5.606,0,0,0,74.832,15Zm-2.086-1.523a1.944,1.944,0,0,0,1.063-.3,1.6,1.6,0,0,0,.641-.687V11.3H70.895a1.519,1.519,0,0,0-1.1.359,1.181,1.181,0,0,0-.371.883.881.881,0,0,0,.277.684A1.1,1.1,0,0,0,70.473,13.477Zm10.266-.82a.787.787,0,0,0-.363-.645,3.69,3.69,0,0,0-1.348-.473,5.375,5.375,0,0,1-2.254-.9A1.962,1.962,0,0,1,76,9.008a2.329,2.329,0,0,1,.922-1.852,3.717,3.717,0,0,1,2.453-.766,4.011,4.011,0,0,1,2.566.766,2.237,2.237,0,0,1,.926,1.906l-.016.047h-2.2a1.106,1.106,0,0,0-.328-.828,1.534,1.534,0,0,0-1.812-.047.85.85,0,0,0-.32.672.759.759,0,0,0,.332.637,3.7,3.7,0,0,0,1.348.441,5.484,5.484,0,0,1,2.316.918,2.014,2.014,0,0,1,.762,1.668,2.231,2.231,0,0,1-.977,1.867,4.215,4.215,0,0,1-2.578.727,3.918,3.918,0,0,1-2.668-.855,2.392,2.392,0,0,1-.934-1.949l.016-.047h2.086a1.186,1.186,0,0,0,.445.984,1.838,1.838,0,0,0,1.1.3,1.567,1.567,0,0,0,.965-.254A.824.824,0,0,0,80.738,12.656Zm7.313-1.812a5.493,5.493,0,0,1,.863-3.227,2.8,2.8,0,0,1,2.434-1.227,2.367,2.367,0,0,1,1.141.273,2.744,2.744,0,0,1,.891.781V2.813h2.289V15H93.723l-.2-1.039a2.826,2.826,0,0,1-.945.895,2.5,2.5,0,0,1-1.25.309,2.858,2.858,0,0,1-2.418-1.141,4.871,4.871,0,0,1-.863-3.016Zm2.273.164a3.443,3.443,0,0,0,.375,1.746,1.306,1.306,0,0,0,1.219.637,1.775,1.775,0,0,0,.859-.2,1.589,1.589,0,0,0,.6-.582v-3.6a1.756,1.756,0,0,0-.6-.621,1.589,1.589,0,0,0-.848-.223,1.287,1.287,0,0,0-1.223.742,4.194,4.194,0,0,0-.387,1.938ZM101.1,15.164A3.8,3.8,0,0,1,98.145,14a4.252,4.252,0,0,1-1.062-2.988V10.7a4.628,4.628,0,0,1,1.031-3.109,3.506,3.506,0,0,1,2.836-1.2,3.282,3.282,0,0,1,2.613,1.043,4.122,4.122,0,0,1,.91,2.809v1.18H99.434l-.023.047a2.284,2.284,0,0,0,.527,1.406,1.766,1.766,0,0,0,1.4.539,4.692,4.692,0,0,0,1.3-.156,5.307,5.307,0,0,0,1.105-.477l.617,1.406a4.234,4.234,0,0,1-1.375.7A6.1,6.1,0,0,1,101.1,15.164Zm-.148-7.016a1.267,1.267,0,0,0-1.059.473,2.371,2.371,0,0,0-.449,1.254l.016.039h2.781V9.742a1.974,1.974,0,0,0-.3-1.168A1.127,1.127,0,0,0,100.949,8.148ZM5,28.477v2.07H6.43v1.6H5v4.3a.982.982,0,0,0,.207.7.727.727,0,0,0,.543.211,2.178,2.178,0,0,0,.313-.02,2.632,2.632,0,0,0,.3-.066l.188,1.648a4.618,4.618,0,0,1-.668.176,3.982,3.982,0,0,1-.707.059,2.431,2.431,0,0,1-1.816-.648,2.843,2.843,0,0,1-.637-2.055V32.148H1.492v-1.6H2.727v-2.07Zm6.5,10.688A3.8,3.8,0,0,1,8.547,38a4.252,4.252,0,0,1-1.062-2.988V34.7a4.628,4.628,0,0,1,1.031-3.109,3.506,3.506,0,0,1,2.836-1.2,3.282,3.282,0,0,1,2.613,1.043,4.122,4.122,0,0,1,.91,2.809v1.18H9.836l-.023.047a2.284,2.284,0,0,0,.527,1.406,1.766,1.766,0,0,0,1.4.539,4.692,4.692,0,0,0,1.3-.156,5.307,5.307,0,0,0,1.105-.477l.617,1.406a4.234,4.234,0,0,1-1.375.7A6.1,6.1,0,0,1,11.5,39.164Zm-.148-7.016a1.267,1.267,0,0,0-1.059.473,2.371,2.371,0,0,0-.449,1.254l.016.039h2.781v-.172a1.974,1.974,0,0,0-.3-1.168A1.127,1.127,0,0,0,11.352,32.148Zm6.938-1.6.1,1.211A3.092,3.092,0,0,1,19.43,30.75a2.7,2.7,0,0,1,1.383-.359,2.513,2.513,0,0,1,2,.824,3.908,3.908,0,0,1,.719,2.605V39H21.242V33.828a2.024,2.024,0,0,0-.316-1.285,1.166,1.166,0,0,0-.949-.379,1.992,1.992,0,0,0-.895.191,1.746,1.746,0,0,0-.637.527V39H16.164V30.547Zm6.594,4.3a5.493,5.493,0,0,1,.863-3.227,2.8,2.8,0,0,1,2.434-1.227,2.367,2.367,0,0,1,1.141.273,2.744,2.744,0,0,1,.891.781V26.813H32.5V39H30.555l-.2-1.039a2.826,2.826,0,0,1-.945.895,2.5,2.5,0,0,1-1.25.309,2.858,2.858,0,0,1-2.418-1.141,4.871,4.871,0,0,1-.863-3.016Zm2.273.164a3.443,3.443,0,0,0,.375,1.746,1.306,1.306,0,0,0,1.219.637,1.775,1.775,0,0,0,.859-.2,1.589,1.589,0,0,0,.6-.582v-3.6a1.756,1.756,0,0,0-.6-.621,1.589,1.589,0,0,0-.848-.223,1.287,1.287,0,0,0-1.223.742,4.194,4.194,0,0,0-.387,1.938ZM37.93,39.164A3.8,3.8,0,0,1,34.977,38a4.252,4.252,0,0,1-1.062-2.988V34.7a4.628,4.628,0,0,1,1.031-3.109,3.506,3.506,0,0,1,2.836-1.2,3.282,3.282,0,0,1,2.613,1.043,4.122,4.122,0,0,1,.91,2.809v1.18H36.266l-.023.047a2.284,2.284,0,0,0,.527,1.406,1.766,1.766,0,0,0,1.4.539,4.692,4.692,0,0,0,1.3-.156,5.307,5.307,0,0,0,1.105-.477l.617,1.406a4.234,4.234,0,0,1-1.375.7A6.1,6.1,0,0,1,37.93,39.164Zm-.148-7.016a1.267,1.267,0,0,0-1.059.473,2.371,2.371,0,0,0-.449,1.254l.016.039H39.07v-.172a1.974,1.974,0,0,0-.3-1.168A1.127,1.127,0,0,0,37.781,32.148Zm6.938-1.6.1,1.211a3.092,3.092,0,0,1,1.039-1.008,2.7,2.7,0,0,1,1.383-.359,2.513,2.513,0,0,1,2,.824,3.908,3.908,0,0,1,.719,2.605V39H47.672V33.828a2.024,2.024,0,0,0-.316-1.285,1.166,1.166,0,0,0-.949-.379,1.992,1.992,0,0,0-.895.191,1.746,1.746,0,0,0-.637.527V39H42.594V30.547ZM55.2,37.414a1.27,1.27,0,0,0,.945-.355,1.291,1.291,0,0,0,.352-.949H58.57l.016.047a2.645,2.645,0,0,1-.953,2.145,3.564,3.564,0,0,1-2.437.863,3.6,3.6,0,0,1-2.9-1.2A4.558,4.558,0,0,1,51.273,34.9v-.234a4.588,4.588,0,0,1,1.02-3.066,3.57,3.57,0,0,1,2.887-1.207,3.486,3.486,0,0,1,2.492.891,2.976,2.976,0,0,1,.914,2.344l-.016.047H56.492a1.687,1.687,0,0,0-.348-1.09,1.168,1.168,0,0,0-.965-.434,1.3,1.3,0,0,0-1.254.707,3.878,3.878,0,0,0-.371,1.809V34.9a3.863,3.863,0,0,0,.371,1.82A1.32,1.32,0,0,0,55.2,37.414ZM62.313,39H60.031V30.547h2.281Zm0-10.477H60.031V26.813h2.281ZM69.172,39a4.8,4.8,0,0,1-.215-.609,4.238,4.238,0,0,1-.129-.656,3.127,3.127,0,0,1-.93,1.023,2.33,2.33,0,0,1-1.375.406,2.855,2.855,0,0,1-2.047-.684,2.449,2.449,0,0,1-.719-1.863,2.229,2.229,0,0,1,.957-1.926,4.78,4.78,0,0,1,2.793-.684h1.281v-.672a1.315,1.315,0,0,0-.32-.945,1.257,1.257,0,0,0-.953-.336,1.239,1.239,0,0,0-.855.27.941.941,0,0,0-.3.738h-2.2l-.016-.047a2.144,2.144,0,0,1,.934-1.848,4.055,4.055,0,0,1,2.582-.777,3.784,3.784,0,0,1,2.465.766,2.667,2.667,0,0,1,.941,2.2v3.492a6.6,6.6,0,0,0,.09,1.117A5.606,5.606,0,0,0,71.445,39Zm-2.086-1.523a1.944,1.944,0,0,0,1.063-.3,1.6,1.6,0,0,0,.641-.687V35.3H67.508a1.519,1.519,0,0,0-1.1.359,1.181,1.181,0,0,0-.371.883.881.881,0,0,0,.277.684A1.1,1.1,0,0,0,67.086,37.477ZM80.3,37.414a1.27,1.27,0,0,0,.945-.355,1.291,1.291,0,0,0,.352-.949h2.078l.016.047a2.645,2.645,0,0,1-.953,2.145,3.564,3.564,0,0,1-2.437.863,3.6,3.6,0,0,1-2.9-1.2A4.558,4.558,0,0,1,76.375,34.9v-.234a4.588,4.588,0,0,1,1.02-3.066,3.57,3.57,0,0,1,2.887-1.207,3.486,3.486,0,0,1,2.492.891,2.976,2.976,0,0,1,.914,2.344l-.016.047H81.594a1.687,1.687,0,0,0-.348-1.09,1.168,1.168,0,0,0-.965-.434,1.3,1.3,0,0,0-1.254.707,3.878,3.878,0,0,0-.371,1.809V34.9a3.863,3.863,0,0,0,.371,1.82A1.32,1.32,0,0,0,80.3,37.414Zm8.383,1.75A3.8,3.8,0,0,1,85.727,38a4.252,4.252,0,0,1-1.062-2.988V34.7A4.628,4.628,0,0,1,85.7,31.594a3.506,3.506,0,0,1,2.836-1.2,3.282,3.282,0,0,1,2.613,1.043,4.122,4.122,0,0,1,.91,2.809v1.18H87.016l-.023.047a2.284,2.284,0,0,0,.527,1.406,1.766,1.766,0,0,0,1.4.539,4.692,4.692,0,0,0,1.3-.156,5.307,5.307,0,0,0,1.105-.477l.617,1.406a4.234,4.234,0,0,1-1.375.7A6.1,6.1,0,0,1,88.68,39.164Zm-.148-7.016a1.267,1.267,0,0,0-1.059.473,2.371,2.371,0,0,0-.449,1.254l.016.039H89.82v-.172a1.974,1.974,0,0,0-.3-1.168A1.127,1.127,0,0,0,88.531,32.148Zm6.938-1.6.1,1.211a3.092,3.092,0,0,1,1.039-1.008,2.7,2.7,0,0,1,1.383-.359,2.513,2.513,0,0,1,2,.824,3.908,3.908,0,0,1,.719,2.605V39H98.422V33.828a2.024,2.024,0,0,0-.316-1.285,1.166,1.166,0,0,0-.949-.379,1.992,1.992,0,0,0-.895.191,1.746,1.746,0,0,0-.637.527V39H93.344V30.547Zm9.68-2.07v2.07h1.43v1.6h-1.43v4.3a.982.982,0,0,0,.207.7.727.727,0,0,0,.543.211,2.178,2.178,0,0,0,.313-.02,2.632,2.632,0,0,0,.3-.066l.188,1.648a4.618,4.618,0,0,1-.668.176,3.982,3.982,0,0,1-.707.059,2.431,2.431,0,0,1-1.816-.648,2.843,2.843,0,0,1-.637-2.055V32.148h-1.234v-1.6h1.234v-2.07Zm7.281,4.031-.836-.023a1.519,1.519,0,0,0-.836.211,1.337,1.337,0,0,0-.5.594V39h-2.273V30.547H110.1l.1,1.25a2.667,2.667,0,0,1,.77-1.035,1.8,1.8,0,0,1,1.406-.344q.145.027.293.066ZM118.6,39a4.8,4.8,0,0,1-.215-.609,4.238,4.238,0,0,1-.129-.656,3.127,3.127,0,0,1-.93,1.023,2.33,2.33,0,0,1-1.375.406,2.855,2.855,0,0,1-2.047-.684,2.449,2.449,0,0,1-.719-1.863,2.229,2.229,0,0,1,.957-1.926,4.78,4.78,0,0,1,2.793-.684h1.281v-.672a1.315,1.315,0,0,0-.32-.945,1.257,1.257,0,0,0-.953-.336,1.239,1.239,0,0,0-.855.27.941.941,0,0,0-.3.738h-2.2l-.016-.047a2.144,2.144,0,0,1,.934-1.848,4.055,4.055,0,0,1,2.582-.777,3.784,3.784,0,0,1,2.465.766,2.667,2.667,0,0,1,.941,2.2v3.492a6.6,6.6,0,0,0,.09,1.117A5.606,5.606,0,0,0,120.875,39Zm-2.086-1.523a1.944,1.944,0,0,0,1.063-.3,1.6,1.6,0,0,0,.641-.687V35.3h-1.281a1.519,1.519,0,0,0-1.1.359,1.181,1.181,0,0,0-.371.883.881.881,0,0,0,.277.684A1.1,1.1,0,0,0,116.516,37.477ZM124.609,39h-2.281V26.813h2.281Z" transform="translate(317.051 700)" fill="#12263f"/>
    <path id="Trazado_877509" data-name="Trazado 877509" d="M6.969,12.867h.047l3.633-9.242h1.914V15H11.023V6.477l-.047-.008L7.531,15H6.461L2.914,6.188,2.867,6.2V15H1.328V3.625H3.352Zm11.547,2.3A3.576,3.576,0,0,1,15.676,14a4.48,4.48,0,0,1-1.02-3.062v-.344a4.386,4.386,0,0,1,1.051-3.012,3.3,3.3,0,0,1,2.566-1.191,3.067,3.067,0,0,1,2.543,1.055,4.345,4.345,0,0,1,.848,2.8v.813H16.258l-.023.039a3.494,3.494,0,0,0,.563,2.066,1.965,1.965,0,0,0,1.719.793,3.872,3.872,0,0,0,1.371-.223,3.061,3.061,0,0,0,1.012-.613l.6,1a3.7,3.7,0,0,1-1.2.738A4.762,4.762,0,0,1,18.516,15.164ZM18.273,7.6a1.673,1.673,0,0,0-1.332.621,2.938,2.938,0,0,0-.645,1.59l.016.039h3.813V9.727A2.462,2.462,0,0,0,19.672,8.2,1.638,1.638,0,0,0,18.273,7.6Zm4.766,3.328a5.641,5.641,0,0,1,.871-3.289,2.807,2.807,0,0,1,2.441-1.25,3.027,3.027,0,0,1,1.316.273,2.7,2.7,0,0,1,.98.8V2.813h1.539V15h-1.18l-.234-1.07a2.743,2.743,0,0,1-1.023.922,3.058,3.058,0,0,1-1.414.313,2.9,2.9,0,0,1-2.422-1.121,4.659,4.659,0,0,1-.875-2.949Zm1.539.164a3.588,3.588,0,0,0,.523,2.051,1.828,1.828,0,0,0,1.625.77,2.039,2.039,0,0,0,1.156-.312,2.334,2.334,0,0,0,.766-.875V8.781a2.37,2.37,0,0,0-.77-.832,2.033,2.033,0,0,0-1.137-.309,1.759,1.759,0,0,0-1.637.914,4.718,4.718,0,0,0-.527,2.375ZM34.148,15H32.609V6.547h1.539Zm0-10.617H32.609V2.813h1.539Zm2.016,6.547a5.641,5.641,0,0,1,.871-3.289,2.807,2.807,0,0,1,2.441-1.25,3.027,3.027,0,0,1,1.316.273,2.7,2.7,0,0,1,.98.8V2.813h1.539V15h-1.18L41.9,13.93a2.743,2.743,0,0,1-1.023.922,3.058,3.058,0,0,1-1.414.313,2.9,2.9,0,0,1-2.422-1.121,4.659,4.659,0,0,1-.875-2.949Zm1.539.164a3.588,3.588,0,0,0,.523,2.051,1.828,1.828,0,0,0,1.625.77,2.039,2.039,0,0,0,1.156-.312,2.334,2.334,0,0,0,.766-.875V8.781A2.37,2.37,0,0,0,41,7.949a2.033,2.033,0,0,0-1.137-.309,1.759,1.759,0,0,0-1.637.914A4.718,4.718,0,0,0,37.7,10.93ZM50.8,15q-.078-.383-.121-.676a4.96,4.96,0,0,1-.051-.59,3.589,3.589,0,0,1-1.121,1.02,2.867,2.867,0,0,1-1.488.41,2.763,2.763,0,0,1-2.012-.676,2.486,2.486,0,0,1-.691-1.863,2.183,2.183,0,0,1,.98-1.895,4.579,4.579,0,0,1,2.66-.684h1.672V9.211a1.551,1.551,0,0,0-.453-1.176A1.779,1.779,0,0,0,48.9,7.6a1.859,1.859,0,0,0-1.211.375,1.125,1.125,0,0,0-.461.9l-1.461.016-.016-.047a2.023,2.023,0,0,1,.863-1.687,3.578,3.578,0,0,1,2.371-.766,3.49,3.49,0,0,1,2.313.73,2.588,2.588,0,0,1,.875,2.105V13.3a7.923,7.923,0,0,0,.047.875,4.5,4.5,0,0,0,.172.828ZM48.25,13.875a2.739,2.739,0,0,0,1.508-.43,2.042,2.042,0,0,0,.875-.984V11.086H48.906a2.24,2.24,0,0,0-1.488.469,1.4,1.4,0,0,0-.559,1.1,1.159,1.159,0,0,0,.352.891A1.472,1.472,0,0,0,48.25,13.875Zm11.07-1.148a1.026,1.026,0,0,0-.387-.828,3.732,3.732,0,0,0-1.465-.562,6.146,6.146,0,0,1-2.293-.9,1.814,1.814,0,0,1-.8-1.547,2.229,2.229,0,0,1,.879-1.766,3.879,3.879,0,0,1,4.605.047,2.239,2.239,0,0,1,.852,1.82l-.016.047H59.227a1.331,1.331,0,0,0-.48-.992A1.717,1.717,0,0,0,57.531,7.6a1.751,1.751,0,0,0-1.215.367,1.146,1.146,0,0,0-.4.875.927.927,0,0,0,.348.773,3.848,3.848,0,0,0,1.434.5,6.058,6.058,0,0,1,2.359.93,1.872,1.872,0,0,1,.8,1.57,2.226,2.226,0,0,1-.91,1.836,3.754,3.754,0,0,1-2.379.711,3.715,3.715,0,0,1-2.547-.82,2.341,2.341,0,0,1-.883-1.914l.016-.047h1.469a1.424,1.424,0,0,0,.609,1.2,2.358,2.358,0,0,0,1.336.379,2.1,2.1,0,0,0,1.285-.348A1.063,1.063,0,0,0,59.32,12.727Zm7.078-1.8a5.641,5.641,0,0,1,.871-3.289,2.807,2.807,0,0,1,2.441-1.25,3.027,3.027,0,0,1,1.316.273,2.7,2.7,0,0,1,.98.8V2.813h1.539V15h-1.18l-.234-1.07a2.743,2.743,0,0,1-1.023.922,3.058,3.058,0,0,1-1.414.313,2.9,2.9,0,0,1-2.422-1.121,4.659,4.659,0,0,1-.875-2.949Zm1.539.164a3.588,3.588,0,0,0,.523,2.051,1.828,1.828,0,0,0,1.625.77,2.039,2.039,0,0,0,1.156-.312,2.334,2.334,0,0,0,.766-.875V8.781a2.37,2.37,0,0,0-.77-.832A2.033,2.033,0,0,0,70.1,7.641a1.759,1.759,0,0,0-1.637.914,4.718,4.718,0,0,0-.527,2.375Zm11.406,4.07A3.576,3.576,0,0,1,76.5,14a4.48,4.48,0,0,1-1.02-3.062v-.344a4.386,4.386,0,0,1,1.051-3.012A3.3,3.3,0,0,1,79.1,6.391a3.067,3.067,0,0,1,2.543,1.055,4.345,4.345,0,0,1,.848,2.8v.813H77.086l-.023.039a3.494,3.494,0,0,0,.563,2.066,1.965,1.965,0,0,0,1.719.793,3.872,3.872,0,0,0,1.371-.223,3.061,3.061,0,0,0,1.012-.613l.6,1a3.7,3.7,0,0,1-1.2.738A4.762,4.762,0,0,1,79.344,15.164ZM79.1,7.6a1.673,1.673,0,0,0-1.332.621,2.938,2.938,0,0,0-.645,1.59l.016.039h3.813V9.727A2.462,2.462,0,0,0,80.5,8.2,1.638,1.638,0,0,0,79.1,7.6ZM90.336,4.508V6.547h1.6V7.688h-1.6V12.82a1.149,1.149,0,0,0,.246.836.89.89,0,0,0,.652.242,1.43,1.43,0,0,0,.3-.035,2.2,2.2,0,0,0,.273-.074l.211,1.055a1.36,1.36,0,0,1-.508.23,2.562,2.562,0,0,1-.664.09,1.993,1.993,0,0,1-1.492-.566A2.46,2.46,0,0,1,88.8,12.82V7.688H87.453V6.547H88.8V4.508Zm6.75,10.656A3.576,3.576,0,0,1,94.246,14a4.48,4.48,0,0,1-1.02-3.062v-.344a4.386,4.386,0,0,1,1.051-3.012,3.3,3.3,0,0,1,2.566-1.191,3.067,3.067,0,0,1,2.543,1.055,4.345,4.345,0,0,1,.848,2.8v.813H94.828L94.8,11.1a3.494,3.494,0,0,0,.563,2.066,1.965,1.965,0,0,0,1.719.793,3.872,3.872,0,0,0,1.371-.223,3.061,3.061,0,0,0,1.012-.613l.6,1a3.7,3.7,0,0,1-1.2.738A4.762,4.762,0,0,1,97.086,15.164ZM96.844,7.6a1.673,1.673,0,0,0-1.332.621,2.938,2.938,0,0,0-.645,1.59l.016.039H98.7V9.727A2.462,2.462,0,0,0,98.242,8.2,1.638,1.638,0,0,0,96.844,7.6Zm6.492-1.055.109,1.258A3.069,3.069,0,0,1,104.5,6.762a2.824,2.824,0,0,1,1.449-.371,2.759,2.759,0,0,1,2.117.8,3.515,3.515,0,0,1,.75,2.473V15h-1.539V9.7a2.287,2.287,0,0,0-.441-1.586,1.768,1.768,0,0,0-1.348-.469,2.386,2.386,0,0,0-1.207.285,2.072,2.072,0,0,0-.785.8V15h-1.539V6.547ZM110.7,10.93a5.641,5.641,0,0,1,.871-3.289,2.807,2.807,0,0,1,2.441-1.25,3.027,3.027,0,0,1,1.316.273,2.7,2.7,0,0,1,.98.8V2.813h1.539V15h-1.18l-.234-1.07a2.743,2.743,0,0,1-1.023.922,3.058,3.058,0,0,1-1.414.313,2.9,2.9,0,0,1-2.422-1.121,4.659,4.659,0,0,1-.875-2.949Zm1.539.164a3.588,3.588,0,0,0,.523,2.051,1.828,1.828,0,0,0,1.625.77,2.039,2.039,0,0,0,1.156-.312,2.334,2.334,0,0,0,.766-.875V8.781a2.37,2.37,0,0,0-.77-.832,2.033,2.033,0,0,0-1.137-.309,1.759,1.759,0,0,0-1.637.914,4.718,4.718,0,0,0-.527,2.375Zm11.406,4.07A3.576,3.576,0,0,1,120.809,14a4.48,4.48,0,0,1-1.02-3.062v-.344a4.386,4.386,0,0,1,1.051-3.012,3.3,3.3,0,0,1,2.566-1.191,3.067,3.067,0,0,1,2.543,1.055,4.345,4.345,0,0,1,.848,2.8v.813h-5.406l-.023.039a3.494,3.494,0,0,0,.563,2.066,1.965,1.965,0,0,0,1.719.793,3.872,3.872,0,0,0,1.371-.223,3.061,3.061,0,0,0,1.012-.613l.6,1a3.7,3.7,0,0,1-1.2.738A4.762,4.762,0,0,1,123.648,15.164ZM123.406,7.6a1.673,1.673,0,0,0-1.332.621,2.938,2.938,0,0,0-.645,1.59l.016.039h3.813V9.727A2.462,2.462,0,0,0,124.8,8.2,1.638,1.638,0,0,0,123.406,7.6ZM129.9,6.547l.109,1.258a3.069,3.069,0,0,1,1.059-1.043,2.824,2.824,0,0,1,1.449-.371,2.759,2.759,0,0,1,2.117.8,3.515,3.515,0,0,1,.75,2.473V15h-1.539V9.7a2.287,2.287,0,0,0-.441-1.586,1.768,1.768,0,0,0-1.348-.469,2.386,2.386,0,0,0-1.207.285,2.072,2.072,0,0,0-.785.8V15h-1.539V6.547Zm11.078,7.414a1.81,1.81,0,0,0,1.242-.473,1.493,1.493,0,0,0,.531-1.16h1.391l.023.047a2.428,2.428,0,0,1-.937,1.941,3.582,3.582,0,0,1-5-.363,4.674,4.674,0,0,1-.969-3.016v-.328a4.654,4.654,0,0,1,.973-3,3.317,3.317,0,0,1,2.746-1.215,3.189,3.189,0,0,1,2.316.875,2.775,2.775,0,0,1,.871,2.148l-.016.047h-1.4a1.865,1.865,0,0,0-.5-1.316,1.658,1.658,0,0,0-1.27-.543,1.777,1.777,0,0,0-1.652.879,4.114,4.114,0,0,0-.52,2.129v.328a4.192,4.192,0,0,0,.512,2.148A1.776,1.776,0,0,0,140.977,13.961ZM147.656,15h-1.539V6.547h1.539Zm0-10.617h-1.539V2.813h1.539ZM155.219,15q-.078-.383-.121-.676a4.96,4.96,0,0,1-.051-.59,3.588,3.588,0,0,1-1.121,1.02,2.867,2.867,0,0,1-1.488.41,2.763,2.763,0,0,1-2.012-.676,2.486,2.486,0,0,1-.691-1.863,2.183,2.183,0,0,1,.98-1.895,4.579,4.579,0,0,1,2.66-.684h1.672V9.211a1.551,1.551,0,0,0-.453-1.176,1.779,1.779,0,0,0-1.281-.434,1.859,1.859,0,0,0-1.211.375,1.125,1.125,0,0,0-.461.9l-1.461.016-.016-.047a2.023,2.023,0,0,1,.863-1.687,3.578,3.578,0,0,1,2.371-.766,3.49,3.49,0,0,1,2.313.73,2.588,2.588,0,0,1,.875,2.105V13.3a7.923,7.923,0,0,0,.047.875A4.5,4.5,0,0,0,156.8,15Zm-2.555-1.125a2.739,2.739,0,0,0,1.508-.43,2.042,2.042,0,0,0,.875-.984V11.086H153.32a2.24,2.24,0,0,0-1.488.469,1.4,1.4,0,0,0-.559,1.1,1.159,1.159,0,0,0,.352.891A1.472,1.472,0,0,0,152.664,13.875Zm13.492.086a1.81,1.81,0,0,0,1.242-.473,1.493,1.493,0,0,0,.531-1.16h1.391l.023.047a2.428,2.428,0,0,1-.937,1.941,3.582,3.582,0,0,1-5-.363,4.674,4.674,0,0,1-.969-3.016v-.328a4.654,4.654,0,0,1,.973-3,3.317,3.317,0,0,1,2.746-1.215,3.189,3.189,0,0,1,2.316.875,2.775,2.775,0,0,1,.871,2.148l-.016.047h-1.4a1.865,1.865,0,0,0-.5-1.316,1.658,1.658,0,0,0-1.27-.543,1.777,1.777,0,0,0-1.652.879,4.114,4.114,0,0,0-.52,2.129v.328a4.192,4.192,0,0,0,.512,2.148A1.776,1.776,0,0,0,166.156,13.961Zm8.516,1.2A3.576,3.576,0,0,1,171.832,14a4.48,4.48,0,0,1-1.02-3.062v-.344a4.386,4.386,0,0,1,1.051-3.012,3.3,3.3,0,0,1,2.566-1.191,3.067,3.067,0,0,1,2.543,1.055,4.345,4.345,0,0,1,.848,2.8v.813h-5.406l-.023.039a3.494,3.494,0,0,0,.563,2.066,1.965,1.965,0,0,0,1.719.793,3.872,3.872,0,0,0,1.371-.223,3.061,3.061,0,0,0,1.012-.613l.6,1a3.7,3.7,0,0,1-1.2.738A4.762,4.762,0,0,1,174.672,15.164ZM174.43,7.6a1.673,1.673,0,0,0-1.332.621,2.938,2.938,0,0,0-.645,1.59l.016.039h3.813V9.727a2.462,2.462,0,0,0-.453-1.523A1.638,1.638,0,0,0,174.43,7.6Zm6.492-1.055.109,1.258a3.069,3.069,0,0,1,1.059-1.043,2.824,2.824,0,0,1,1.449-.371,2.759,2.759,0,0,1,2.117.8,3.515,3.515,0,0,1,.75,2.473V15h-1.539V9.7a2.287,2.287,0,0,0-.441-1.586,1.768,1.768,0,0,0-1.348-.469,2.386,2.386,0,0,0-1.207.285,2.072,2.072,0,0,0-.785.8V15h-1.539V6.547Zm9.859-2.039V6.547h1.6V7.688h-1.6V12.82a1.149,1.149,0,0,0,.246.836.89.89,0,0,0,.652.242,1.429,1.429,0,0,0,.3-.035,2.2,2.2,0,0,0,.273-.074l.211,1.055a1.36,1.36,0,0,1-.508.23,2.562,2.562,0,0,1-.664.09A1.993,1.993,0,0,1,189.8,14.6a2.46,2.46,0,0,1-.555-1.777V7.688H187.9V6.547h1.344V4.508Zm7.25,3.4-.789-.047a1.762,1.762,0,0,0-1.027.289,1.855,1.855,0,0,0-.645.813V15h-1.539V6.547h1.375l.148,1.234a2.934,2.934,0,0,1,.887-1.023,2.073,2.073,0,0,1,1.215-.367,1.9,1.9,0,0,1,.328.027,2.174,2.174,0,0,1,.258.059Zm6.8,7.094q-.078-.383-.121-.676a4.96,4.96,0,0,1-.051-.59,3.588,3.588,0,0,1-1.121,1.02,2.867,2.867,0,0,1-1.488.41,2.763,2.763,0,0,1-2.012-.676,2.486,2.486,0,0,1-.691-1.863,2.183,2.183,0,0,1,.98-1.895,4.579,4.579,0,0,1,2.66-.684h1.672V9.211a1.551,1.551,0,0,0-.453-1.176,1.779,1.779,0,0,0-1.281-.434,1.859,1.859,0,0,0-1.211.375,1.125,1.125,0,0,0-.461.9l-1.461.016-.016-.047a2.023,2.023,0,0,1,.863-1.687,3.578,3.578,0,0,1,2.371-.766,3.49,3.49,0,0,1,2.313.73,2.588,2.588,0,0,1,.875,2.105V13.3a7.923,7.923,0,0,0,.047.875,4.5,4.5,0,0,0,.172.828Zm-2.555-1.125a2.739,2.739,0,0,0,1.508-.43,2.042,2.042,0,0,0,.875-.984V11.086H202.93a2.24,2.24,0,0,0-1.488.469,1.4,1.4,0,0,0-.559,1.1,1.159,1.159,0,0,0,.352.891A1.472,1.472,0,0,0,202.273,13.875ZM210.094,15h-1.539V2.813h1.539ZM6.969,36.867h.047l3.633-9.242h1.914V39H11.023V30.477l-.047-.008L7.531,39H6.461L2.914,30.188l-.047.008V39H1.328V27.625H3.352Zm11.547,2.3A3.576,3.576,0,0,1,15.676,38a4.48,4.48,0,0,1-1.02-3.062v-.344a4.386,4.386,0,0,1,1.051-3.012,3.3,3.3,0,0,1,2.566-1.191,3.067,3.067,0,0,1,2.543,1.055,4.345,4.345,0,0,1,.848,2.8v.813H16.258l-.023.039a3.494,3.494,0,0,0,.563,2.066,1.965,1.965,0,0,0,1.719.793,3.872,3.872,0,0,0,1.371-.223,3.061,3.061,0,0,0,1.012-.613l.6,1a3.7,3.7,0,0,1-1.2.738A4.762,4.762,0,0,1,18.516,39.164ZM18.273,31.6a1.673,1.673,0,0,0-1.332.621,2.938,2.938,0,0,0-.645,1.59l.016.039h3.813v-.125a2.462,2.462,0,0,0-.453-1.523A1.638,1.638,0,0,0,18.273,31.6Zm4.766,3.328a5.641,5.641,0,0,1,.871-3.289,2.807,2.807,0,0,1,2.441-1.25,3.027,3.027,0,0,1,1.316.273,2.7,2.7,0,0,1,.98.8V26.813h1.539V39h-1.18l-.234-1.07a2.743,2.743,0,0,1-1.023.922,3.058,3.058,0,0,1-1.414.313,2.9,2.9,0,0,1-2.422-1.121,4.659,4.659,0,0,1-.875-2.949Zm1.539.164a3.588,3.588,0,0,0,.523,2.051,1.828,1.828,0,0,0,1.625.77,2.039,2.039,0,0,0,1.156-.312,2.334,2.334,0,0,0,.766-.875V32.781a2.37,2.37,0,0,0-.77-.832,2.033,2.033,0,0,0-1.137-.309,1.759,1.759,0,0,0-1.637.914,4.718,4.718,0,0,0-.527,2.375ZM34.148,39H32.609V30.547h1.539Zm0-10.617H32.609v-1.57h1.539ZM41.711,39q-.078-.383-.121-.676a4.96,4.96,0,0,1-.051-.59,3.589,3.589,0,0,1-1.121,1.02,2.867,2.867,0,0,1-1.488.41,2.763,2.763,0,0,1-2.012-.676,2.486,2.486,0,0,1-.691-1.863,2.183,2.183,0,0,1,.98-1.895,4.579,4.579,0,0,1,2.66-.684h1.672v-.836a1.551,1.551,0,0,0-.453-1.176A1.779,1.779,0,0,0,39.8,31.6a1.859,1.859,0,0,0-1.211.375,1.125,1.125,0,0,0-.461.9l-1.461.016-.016-.047a2.023,2.023,0,0,1,.863-1.687,3.578,3.578,0,0,1,2.371-.766,3.49,3.49,0,0,1,2.313.73,2.588,2.588,0,0,1,.875,2.105V37.3a7.923,7.923,0,0,0,.047.875A4.5,4.5,0,0,0,43.3,39Zm-2.555-1.125a2.739,2.739,0,0,0,1.508-.43,2.042,2.042,0,0,0,.875-.984V35.086H39.813a2.24,2.24,0,0,0-1.488.469,1.4,1.4,0,0,0-.559,1.1,1.159,1.159,0,0,0,.352.891A1.472,1.472,0,0,0,39.156,37.875ZM54.484,39q-.078-.383-.121-.676a4.96,4.96,0,0,1-.051-.59,3.589,3.589,0,0,1-1.121,1.02,2.867,2.867,0,0,1-1.488.41,2.763,2.763,0,0,1-2.012-.676A2.486,2.486,0,0,1,49,36.625a2.183,2.183,0,0,1,.98-1.895,4.579,4.579,0,0,1,2.66-.684h1.672v-.836a1.551,1.551,0,0,0-.453-1.176,1.779,1.779,0,0,0-1.281-.434,1.859,1.859,0,0,0-1.211.375,1.125,1.125,0,0,0-.461.9l-1.461.016-.016-.047a2.023,2.023,0,0,1,.863-1.687,3.578,3.578,0,0,1,2.371-.766,3.49,3.49,0,0,1,2.313.73,2.588,2.588,0,0,1,.875,2.105V37.3a7.923,7.923,0,0,0,.047.875A4.5,4.5,0,0,0,56.07,39ZM51.93,37.875a2.739,2.739,0,0,0,1.508-.43,2.042,2.042,0,0,0,.875-.984V35.086H52.586a2.24,2.24,0,0,0-1.488.469,1.4,1.4,0,0,0-.559,1.1,1.159,1.159,0,0,0,.352.891A1.472,1.472,0,0,0,51.93,37.875Zm10.156-5.969-.789-.047a1.762,1.762,0,0,0-1.027.289,1.855,1.855,0,0,0-.645.813V39H58.086V30.547h1.375l.148,1.234a2.934,2.934,0,0,1,.887-1.023,2.073,2.073,0,0,1,1.215-.367,1.9,1.9,0,0,1,.328.027,2.174,2.174,0,0,1,.258.059ZM65.352,39H63.813V30.547h1.539Zm0-10.617H63.813v-1.57h1.539Zm4.508.125v2.039h1.6v1.141h-1.6V36.82a1.149,1.149,0,0,0,.246.836.89.89,0,0,0,.652.242,1.43,1.43,0,0,0,.3-.035,2.2,2.2,0,0,0,.273-.074l.211,1.055a1.36,1.36,0,0,1-.508.23,2.562,2.562,0,0,1-.664.09,1.993,1.993,0,0,1-1.492-.566,2.46,2.46,0,0,1-.555-1.777V31.688H66.977V30.547H68.32V28.508Zm4.625,2.039.109,1.109a2.871,2.871,0,0,1,1.051-.934,3.158,3.158,0,0,1,1.48-.332,2.615,2.615,0,0,1,1.449.391,2.363,2.363,0,0,1,.91,1.172,3.162,3.162,0,0,1,1.059-1.145,2.769,2.769,0,0,1,1.527-.418,2.531,2.531,0,0,1,2.039.887,4.051,4.051,0,0,1,.75,2.668V39H83.32V33.93a2.81,2.81,0,0,0-.43-1.77,1.567,1.567,0,0,0-1.281-.52,1.631,1.631,0,0,0-1.277.547,2.381,2.381,0,0,0-.574,1.383V39H78.211V33.93a2.772,2.772,0,0,0-.441-1.738,1.532,1.532,0,0,0-1.27-.551,2.115,2.115,0,0,0-1.156.289,1.867,1.867,0,0,0-.7.813V39H73.109V30.547Zm16.109,8.617A3.576,3.576,0,0,1,87.754,38a4.48,4.48,0,0,1-1.02-3.062v-.344a4.386,4.386,0,0,1,1.051-3.012,3.3,3.3,0,0,1,2.566-1.191,3.067,3.067,0,0,1,2.543,1.055,4.345,4.345,0,0,1,.848,2.8v.813H88.336l-.023.039a3.494,3.494,0,0,0,.563,2.066,1.965,1.965,0,0,0,1.719.793,3.872,3.872,0,0,0,1.371-.223,3.061,3.061,0,0,0,1.012-.613l.6,1a3.7,3.7,0,0,1-1.2.738A4.762,4.762,0,0,1,90.594,39.164ZM90.352,31.6a1.673,1.673,0,0,0-1.332.621,2.938,2.938,0,0,0-.645,1.59l.016.039H92.2v-.125A2.462,2.462,0,0,0,91.75,32.2,1.638,1.638,0,0,0,90.352,31.6Zm.578-4.648h1.8l.016.047-2.1,2.031H89.484Zm6.68,1.555v2.039h1.6v1.141h-1.6V36.82a1.149,1.149,0,0,0,.246.836.89.89,0,0,0,.652.242,1.43,1.43,0,0,0,.3-.035,2.2,2.2,0,0,0,.273-.074l.211,1.055a1.36,1.36,0,0,1-.508.23,2.562,2.562,0,0,1-.664.09,1.993,1.993,0,0,1-1.492-.566,2.46,2.46,0,0,1-.555-1.777V31.688H94.727V30.547H96.07V28.508ZM102.523,39h-1.539V30.547h1.539Zm0-10.617h-1.539v-1.57h1.539Zm5.727,9.578a1.81,1.81,0,0,0,1.242-.473,1.494,1.494,0,0,0,.531-1.16h1.391l.023.047a2.428,2.428,0,0,1-.937,1.941,3.582,3.582,0,0,1-5-.363,4.674,4.674,0,0,1-.969-3.016v-.328a4.654,4.654,0,0,1,.973-3,3.317,3.317,0,0,1,2.746-1.215,3.189,3.189,0,0,1,2.316.875,2.775,2.775,0,0,1,.871,2.148l-.016.047h-1.4a1.865,1.865,0,0,0-.5-1.316,1.658,1.658,0,0,0-1.27-.543,1.777,1.777,0,0,0-1.652.879,4.114,4.114,0,0,0-.52,2.129v.328a4.192,4.192,0,0,0,.512,2.148A1.776,1.776,0,0,0,108.25,37.961ZM118.461,39q-.078-.383-.121-.676a4.96,4.96,0,0,1-.051-.59,3.589,3.589,0,0,1-1.121,1.02,2.867,2.867,0,0,1-1.488.41,2.763,2.763,0,0,1-2.012-.676,2.486,2.486,0,0,1-.691-1.863,2.183,2.183,0,0,1,.98-1.895,4.579,4.579,0,0,1,2.66-.684h1.672v-.836a1.551,1.551,0,0,0-.453-1.176,1.779,1.779,0,0,0-1.281-.434,1.859,1.859,0,0,0-1.211.375,1.125,1.125,0,0,0-.461.9l-1.461.016-.016-.047a2.023,2.023,0,0,1,.863-1.687,3.578,3.578,0,0,1,2.371-.766,3.49,3.49,0,0,1,2.313.73,2.588,2.588,0,0,1,.875,2.105V37.3a7.923,7.923,0,0,0,.047.875,4.5,4.5,0,0,0,.172.828Zm-2.555-1.125a2.739,2.739,0,0,0,1.508-.43,2.042,2.042,0,0,0,.875-.984V35.086h-1.727a2.24,2.24,0,0,0-1.488.469,1.4,1.4,0,0,0-.559,1.1,1.159,1.159,0,0,0,.352.891A1.472,1.472,0,0,0,115.906,37.875ZM6.969,60.867h.047l3.633-9.242h1.914V63H11.023V54.477l-.047-.008L7.531,63H6.461L2.914,54.188l-.047.008V63H1.328V51.625H3.352Zm11.547,2.3A3.576,3.576,0,0,1,15.676,62a4.48,4.48,0,0,1-1.02-3.062v-.344a4.386,4.386,0,0,1,1.051-3.012,3.3,3.3,0,0,1,2.566-1.191,3.067,3.067,0,0,1,2.543,1.055,4.345,4.345,0,0,1,.848,2.8v.813H16.258l-.023.039a3.494,3.494,0,0,0,.563,2.066,1.965,1.965,0,0,0,1.719.793,3.872,3.872,0,0,0,1.371-.223,3.061,3.061,0,0,0,1.012-.613l.6,1a3.7,3.7,0,0,1-1.2.738A4.762,4.762,0,0,1,18.516,63.164ZM18.273,55.6a1.673,1.673,0,0,0-1.332.621,2.938,2.938,0,0,0-.645,1.59l.016.039h3.813v-.125a2.462,2.462,0,0,0-.453-1.523A1.638,1.638,0,0,0,18.273,55.6Zm4.766,3.328a5.641,5.641,0,0,1,.871-3.289,2.807,2.807,0,0,1,2.441-1.25,3.027,3.027,0,0,1,1.316.273,2.7,2.7,0,0,1,.98.8V50.813h1.539V63h-1.18l-.234-1.07a2.743,2.743,0,0,1-1.023.922,3.058,3.058,0,0,1-1.414.313,2.9,2.9,0,0,1-2.422-1.121,4.659,4.659,0,0,1-.875-2.949Zm1.539.164a3.588,3.588,0,0,0,.523,2.051,1.828,1.828,0,0,0,1.625.77,2.039,2.039,0,0,0,1.156-.312,2.334,2.334,0,0,0,.766-.875V56.781a2.37,2.37,0,0,0-.77-.832,2.033,2.033,0,0,0-1.137-.309,1.759,1.759,0,0,0-1.637.914,4.718,4.718,0,0,0-.527,2.375ZM34.148,63H32.609V54.547h1.539Zm0-10.617H32.609v-1.57h1.539ZM41.711,63q-.078-.383-.121-.676a4.96,4.96,0,0,1-.051-.59,3.589,3.589,0,0,1-1.121,1.02,2.867,2.867,0,0,1-1.488.41,2.763,2.763,0,0,1-2.012-.676,2.486,2.486,0,0,1-.691-1.863,2.183,2.183,0,0,1,.98-1.895,4.579,4.579,0,0,1,2.66-.684h1.672v-.836a1.551,1.551,0,0,0-.453-1.176A1.779,1.779,0,0,0,39.8,55.6a1.859,1.859,0,0,0-1.211.375,1.125,1.125,0,0,0-.461.9l-1.461.016-.016-.047a2.023,2.023,0,0,1,.863-1.687,3.578,3.578,0,0,1,2.371-.766,3.49,3.49,0,0,1,2.313.73,2.588,2.588,0,0,1,.875,2.105V61.3a7.923,7.923,0,0,0,.047.875A4.5,4.5,0,0,0,43.3,63Zm-2.555-1.125a2.739,2.739,0,0,0,1.508-.43,2.042,2.042,0,0,0,.875-.984V59.086H39.813a2.24,2.24,0,0,0-1.488.469,1.4,1.4,0,0,0-.559,1.1,1.159,1.159,0,0,0,.352.891A1.472,1.472,0,0,0,39.156,61.875Zm7.531-7.328L46.8,55.8a3.069,3.069,0,0,1,1.059-1.043,2.824,2.824,0,0,1,1.449-.371,2.759,2.759,0,0,1,2.117.8,3.515,3.515,0,0,1,.75,2.473V63H50.633V57.7a2.287,2.287,0,0,0-.441-1.586,1.768,1.768,0,0,0-1.348-.469,2.386,2.386,0,0,0-1.207.285,2.072,2.072,0,0,0-.785.8V63H45.313V54.547ZM59.6,63q-.078-.383-.121-.676a4.96,4.96,0,0,1-.051-.59,3.589,3.589,0,0,1-1.121,1.02,2.867,2.867,0,0,1-1.488.41,2.763,2.763,0,0,1-2.012-.676,2.486,2.486,0,0,1-.691-1.863,2.183,2.183,0,0,1,.98-1.895,4.579,4.579,0,0,1,2.66-.684H59.43v-.836a1.551,1.551,0,0,0-.453-1.176A1.779,1.779,0,0,0,57.7,55.6a1.859,1.859,0,0,0-1.211.375,1.125,1.125,0,0,0-.461.9l-1.461.016-.016-.047a2.023,2.023,0,0,1,.863-1.687,3.578,3.578,0,0,1,2.371-.766,3.49,3.49,0,0,1,2.313.73,2.588,2.588,0,0,1,.875,2.105V61.3a7.923,7.923,0,0,0,.047.875,4.5,4.5,0,0,0,.172.828Zm-2.555-1.125a2.739,2.739,0,0,0,1.508-.43,2.042,2.042,0,0,0,.875-.984V59.086H57.7a2.24,2.24,0,0,0-1.488.469,1.4,1.4,0,0,0-.559,1.1,1.159,1.159,0,0,0,.352.891A1.472,1.472,0,0,0,57.047,61.875ZM6.969,84.867h.047l3.633-9.242h1.914V87H11.023V78.477l-.047-.008L7.531,87H6.461L2.914,78.188l-.047.008V87H1.328V75.625H3.352ZM14.656,82.7a4.654,4.654,0,0,1,1.016-3.09,3.406,3.406,0,0,1,2.758-1.215A3.439,3.439,0,0,1,21.207,79.6a4.639,4.639,0,0,1,1.02,3.094v.172a4.631,4.631,0,0,1-1.016,3.094,3.429,3.429,0,0,1-2.766,1.2,3.436,3.436,0,0,1-2.77-1.207,4.623,4.623,0,0,1-1.02-3.09Zm1.539.172a4.009,4.009,0,0,0,.566,2.219,2.046,2.046,0,0,0,3.355,0,3.988,3.988,0,0,0,.57-2.219V82.7a3.976,3.976,0,0,0-.574-2.211A1.882,1.882,0,0,0,18.43,79.6a1.856,1.856,0,0,0-1.668.883A4.018,4.018,0,0,0,16.2,82.7Zm7.563.063a5.641,5.641,0,0,1,.871-3.289,2.807,2.807,0,0,1,2.441-1.25,3.027,3.027,0,0,1,1.316.273,2.7,2.7,0,0,1,.98.8V74.813h1.539V87h-1.18l-.234-1.07a2.743,2.743,0,0,1-1.023.922,3.058,3.058,0,0,1-1.414.313,2.9,2.9,0,0,1-2.422-1.121,4.659,4.659,0,0,1-.875-2.949Zm1.539.164a3.588,3.588,0,0,0,.523,2.051,1.828,1.828,0,0,0,1.625.77A2.039,2.039,0,0,0,28.6,85.6a2.334,2.334,0,0,0,.766-.875V80.781a2.37,2.37,0,0,0-.77-.832,2.033,2.033,0,0,0-1.137-.309,1.759,1.759,0,0,0-1.637.914A4.718,4.718,0,0,0,25.3,82.93ZM38.4,87q-.078-.383-.121-.676a4.96,4.96,0,0,1-.051-.59,3.589,3.589,0,0,1-1.121,1.02,2.867,2.867,0,0,1-1.488.41,2.763,2.763,0,0,1-2.012-.676,2.486,2.486,0,0,1-.691-1.863,2.183,2.183,0,0,1,.98-1.895,4.579,4.579,0,0,1,2.66-.684h1.672v-.836a1.551,1.551,0,0,0-.453-1.176,1.779,1.779,0,0,0-1.281-.434,1.859,1.859,0,0,0-1.211.375,1.125,1.125,0,0,0-.461.9l-1.461.016-.016-.047a2.023,2.023,0,0,1,.863-1.687,3.578,3.578,0,0,1,2.371-.766,3.49,3.49,0,0,1,2.313.73,2.588,2.588,0,0,1,.875,2.105V85.3a7.923,7.923,0,0,0,.047.875,4.5,4.5,0,0,0,.172.828Zm-2.555-1.125a2.739,2.739,0,0,0,1.508-.43,2.042,2.042,0,0,0,.875-.984V83.086H36.5a2.24,2.24,0,0,0-1.488.469,1.4,1.4,0,0,0-.559,1.1,1.159,1.159,0,0,0,.352.891A1.472,1.472,0,0,0,35.844,85.875ZM6.969,108.867h.047l3.633-9.242h1.914V111H11.023v-8.523l-.047-.008L7.531,111H6.461l-3.547-8.812-.047.008V111H1.328V99.625H3.352Zm11.547,2.3A3.576,3.576,0,0,1,15.676,110a4.48,4.48,0,0,1-1.02-3.062v-.344a4.386,4.386,0,0,1,1.051-3.012,3.3,3.3,0,0,1,2.566-1.191,3.067,3.067,0,0,1,2.543,1.055,4.345,4.345,0,0,1,.848,2.8v.813H16.258l-.023.039a3.494,3.494,0,0,0,.563,2.066,1.965,1.965,0,0,0,1.719.793,3.872,3.872,0,0,0,1.371-.223,3.061,3.061,0,0,0,1.012-.613l.6,1a3.7,3.7,0,0,1-1.2.738A4.762,4.762,0,0,1,18.516,111.164Zm-.242-7.562a1.673,1.673,0,0,0-1.332.621,2.938,2.938,0,0,0-.645,1.59l.016.039h3.813v-.125a2.462,2.462,0,0,0-.453-1.523A1.638,1.638,0,0,0,18.273,103.6Zm4.766,3.328a5.641,5.641,0,0,1,.871-3.289,2.807,2.807,0,0,1,2.441-1.25,3.027,3.027,0,0,1,1.316.273,2.7,2.7,0,0,1,.98.8V98.813h1.539V111h-1.18l-.234-1.07a2.743,2.743,0,0,1-1.023.922,3.058,3.058,0,0,1-1.414.313,2.9,2.9,0,0,1-2.422-1.121,4.659,4.659,0,0,1-.875-2.949Zm1.539.164a3.588,3.588,0,0,0,.523,2.051,1.828,1.828,0,0,0,1.625.77,2.039,2.039,0,0,0,1.156-.312,2.334,2.334,0,0,0,.766-.875v-3.945a2.37,2.37,0,0,0-.77-.832,2.033,2.033,0,0,0-1.137-.309,1.759,1.759,0,0,0-1.637.914,4.718,4.718,0,0,0-.527,2.375ZM34.148,111H32.609v-8.453h1.539Zm0-10.617H32.609v-1.57h1.539ZM41.711,111q-.078-.383-.121-.676a4.96,4.96,0,0,1-.051-.59,3.589,3.589,0,0,1-1.121,1.02,2.867,2.867,0,0,1-1.488.41,2.763,2.763,0,0,1-2.012-.676,2.486,2.486,0,0,1-.691-1.863,2.183,2.183,0,0,1,.98-1.895,4.579,4.579,0,0,1,2.66-.684h1.672v-.836a1.551,1.551,0,0,0-.453-1.176A1.779,1.779,0,0,0,39.8,103.6a1.859,1.859,0,0,0-1.211.375,1.125,1.125,0,0,0-.461.9l-1.461.016-.016-.047a2.023,2.023,0,0,1,.863-1.687,3.578,3.578,0,0,1,2.371-.766,3.49,3.49,0,0,1,2.313.73,2.588,2.588,0,0,1,.875,2.105v4.07a7.923,7.923,0,0,0,.047.875A4.5,4.5,0,0,0,43.3,111Zm-2.555-1.125a2.739,2.739,0,0,0,1.508-.43,2.042,2.042,0,0,0,.875-.984v-1.375H39.813a2.24,2.24,0,0,0-1.488.469,1.4,1.4,0,0,0-.559,1.1,1.159,1.159,0,0,0,.352.891A1.472,1.472,0,0,0,39.156,109.875Zm9.859-2.945a5.641,5.641,0,0,1,.871-3.289,2.8,2.8,0,0,1,2.434-1.25,2.966,2.966,0,0,1,1.414.324,2.845,2.845,0,0,1,1.023.934l.188-1.1h1.227v8.5a3.225,3.225,0,0,1-.945,2.5,3.884,3.884,0,0,1-2.727.871,5.717,5.717,0,0,1-1.316-.168,5.147,5.147,0,0,1-1.246-.457l.234-1.2a4.45,4.45,0,0,0,1.074.379,5.517,5.517,0,0,0,1.238.145,2.242,2.242,0,0,0,1.637-.512,2.12,2.12,0,0,0,.512-1.559v-.961a2.725,2.725,0,0,1-.992.8,3.091,3.091,0,0,1-1.336.273,2.89,2.89,0,0,1-2.418-1.121,4.674,4.674,0,0,1-.871-2.949Zm1.539.164a3.592,3.592,0,0,0,.523,2.047,1.817,1.817,0,0,0,1.617.773,2.034,2.034,0,0,0,1.164-.316,2.4,2.4,0,0,0,.773-.895v-3.891a2.388,2.388,0,0,0-.773-.855,2.029,2.029,0,0,0-1.148-.316,1.752,1.752,0,0,0-1.629.914,4.718,4.718,0,0,0-.527,2.375Zm11.328,4.07A3.576,3.576,0,0,1,59.043,110a4.48,4.48,0,0,1-1.02-3.062v-.344a4.386,4.386,0,0,1,1.051-3.012,3.3,3.3,0,0,1,2.566-1.191,3.067,3.067,0,0,1,2.543,1.055,4.345,4.345,0,0,1,.848,2.8v.813H59.625l-.023.039a3.494,3.494,0,0,0,.563,2.066,1.965,1.965,0,0,0,1.719.793,3.872,3.872,0,0,0,1.371-.223,3.061,3.061,0,0,0,1.012-.613l.6,1a3.7,3.7,0,0,1-1.2.738A4.762,4.762,0,0,1,61.883,111.164Zm-.242-7.562a1.673,1.673,0,0,0-1.332.621,2.938,2.938,0,0,0-.645,1.59l.016.039h3.813v-.125a2.462,2.462,0,0,0-.453-1.523A1.638,1.638,0,0,0,61.641,103.6ZM66.4,106.7a4.654,4.654,0,0,1,1.016-3.09,3.764,3.764,0,0,1,5.535,0,4.639,4.639,0,0,1,1.02,3.094v.172a4.631,4.631,0,0,1-1.016,3.094,3.781,3.781,0,0,1-5.535,0,4.623,4.623,0,0,1-1.02-3.09Zm1.539.172a4.009,4.009,0,0,0,.566,2.219,2.046,2.046,0,0,0,3.355,0,3.988,3.988,0,0,0,.57-2.219V106.7a3.976,3.976,0,0,0-.574-2.211,1.882,1.882,0,0,0-1.684-.883,1.856,1.856,0,0,0-1.668.883,4.018,4.018,0,0,0-.566,2.211Zm9.289-4.32.109,1.109a2.871,2.871,0,0,1,1.051-.934,3.158,3.158,0,0,1,1.48-.332,2.615,2.615,0,0,1,1.449.391,2.363,2.363,0,0,1,.91,1.172,3.162,3.162,0,0,1,1.059-1.145,2.769,2.769,0,0,1,1.527-.418,2.531,2.531,0,0,1,2.039.887,4.051,4.051,0,0,1,.75,2.668V111H86.063v-5.07a2.81,2.81,0,0,0-.43-1.77,1.567,1.567,0,0,0-1.281-.52,1.631,1.631,0,0,0-1.277.547,2.381,2.381,0,0,0-.574,1.383V111H80.953v-5.07a2.772,2.772,0,0,0-.441-1.738,1.532,1.532,0,0,0-1.27-.551,2.115,2.115,0,0,0-1.156.289,1.867,1.867,0,0,0-.7.813V111H75.852v-8.453Zm16.109,8.617A3.576,3.576,0,0,1,90.5,110a4.48,4.48,0,0,1-1.02-3.062v-.344a4.386,4.386,0,0,1,1.051-3.012,3.3,3.3,0,0,1,2.566-1.191,3.067,3.067,0,0,1,2.543,1.055,4.345,4.345,0,0,1,.848,2.8v.813H91.078l-.023.039a3.494,3.494,0,0,0,.563,2.066,1.965,1.965,0,0,0,1.719.793,3.872,3.872,0,0,0,1.371-.223,3.061,3.061,0,0,0,1.012-.613l.6,1a3.7,3.7,0,0,1-1.2.738A4.762,4.762,0,0,1,93.336,111.164Zm-.242-7.562a1.673,1.673,0,0,0-1.332.621,2.938,2.938,0,0,0-.645,1.59l.016.039h3.813v-.125a2.462,2.462,0,0,0-.453-1.523A1.638,1.638,0,0,0,93.094,103.6Zm.578-4.648h1.8l.016.047-2.1,2.031H92.227Zm6.68,1.555v2.039h1.6v1.141h-1.6v5.133a1.149,1.149,0,0,0,.246.836.89.89,0,0,0,.652.242,1.43,1.43,0,0,0,.3-.035,2.2,2.2,0,0,0,.273-.074l.211,1.055a1.36,1.36,0,0,1-.508.23,2.562,2.562,0,0,1-.664.09,1.993,1.993,0,0,1-1.492-.566,2.46,2.46,0,0,1-.555-1.777v-5.133H97.469v-1.141h1.344v-2.039Zm7.25,3.4-.789-.047a1.762,1.762,0,0,0-1.027.289,1.854,1.854,0,0,0-.645.813V111H103.6v-8.453h1.375l.148,1.234a2.934,2.934,0,0,1,.887-1.023,2.073,2.073,0,0,1,1.215-.367,1.9,1.9,0,0,1,.328.027,2.174,2.174,0,0,1,.258.059ZM110.867,111h-1.539v-8.453h1.539Zm0-10.617h-1.539v-1.57h1.539Zm5.727,9.578a1.81,1.81,0,0,0,1.242-.473,1.494,1.494,0,0,0,.531-1.16h1.391l.023.047a2.428,2.428,0,0,1-.937,1.941,3.582,3.582,0,0,1-5-.363,4.674,4.674,0,0,1-.969-3.016v-.328a4.654,4.654,0,0,1,.973-3,3.317,3.317,0,0,1,2.746-1.215,3.189,3.189,0,0,1,2.316.875,2.775,2.775,0,0,1,.871,2.148l-.016.047h-1.4a1.865,1.865,0,0,0-.5-1.316,1.658,1.658,0,0,0-1.27-.543,1.777,1.777,0,0,0-1.652.879,4.114,4.114,0,0,0-.52,2.129v.328a4.192,4.192,0,0,0,.512,2.148A1.776,1.776,0,0,0,116.594,109.961ZM126.8,111q-.078-.383-.121-.676a4.96,4.96,0,0,1-.051-.59,3.589,3.589,0,0,1-1.121,1.02,2.867,2.867,0,0,1-1.488.41,2.763,2.763,0,0,1-2.012-.676,2.486,2.486,0,0,1-.691-1.863,2.183,2.183,0,0,1,.98-1.895,4.579,4.579,0,0,1,2.66-.684h1.672v-.836a1.551,1.551,0,0,0-.453-1.176,1.779,1.779,0,0,0-1.281-.434,1.859,1.859,0,0,0-1.211.375,1.125,1.125,0,0,0-.461.9l-1.461.016-.016-.047a2.023,2.023,0,0,1,.863-1.687,3.578,3.578,0,0,1,2.371-.766,3.49,3.49,0,0,1,2.313.73,2.588,2.588,0,0,1,.875,2.105v4.07a7.923,7.923,0,0,0,.047.875,4.5,4.5,0,0,0,.172.828Zm-2.555-1.125a2.739,2.739,0,0,0,1.508-.43,2.042,2.042,0,0,0,.875-.984v-1.375h-1.727a2.24,2.24,0,0,0-1.488.469,1.4,1.4,0,0,0-.559,1.1,1.159,1.159,0,0,0,.352.891A1.472,1.472,0,0,0,124.25,109.875ZM6.969,132.867h.047l3.633-9.242h1.914V135H11.023v-8.523l-.047-.008L7.531,135H6.461l-3.547-8.812-.047.008V135H1.328V123.625H3.352Zm11.547,2.3A3.576,3.576,0,0,1,15.676,134a4.48,4.48,0,0,1-1.02-3.062v-.344a4.386,4.386,0,0,1,1.051-3.012,3.3,3.3,0,0,1,2.566-1.191,3.067,3.067,0,0,1,2.543,1.055,4.345,4.345,0,0,1,.848,2.8v.813H16.258l-.023.039a3.494,3.494,0,0,0,.563,2.066,1.965,1.965,0,0,0,1.719.793,3.872,3.872,0,0,0,1.371-.223,3.06,3.06,0,0,0,1.012-.613l.6,1a3.7,3.7,0,0,1-1.2.738A4.762,4.762,0,0,1,18.516,135.164Zm-.242-7.562a1.673,1.673,0,0,0-1.332.621,2.938,2.938,0,0,0-.645,1.59l.016.039h3.813v-.125a2.462,2.462,0,0,0-.453-1.523A1.638,1.638,0,0,0,18.273,127.6Zm4.766,3.328a5.641,5.641,0,0,1,.871-3.289,2.807,2.807,0,0,1,2.441-1.25,3.027,3.027,0,0,1,1.316.273,2.7,2.7,0,0,1,.98.8v-4.648h1.539V135h-1.18l-.234-1.07a2.743,2.743,0,0,1-1.023.922,3.058,3.058,0,0,1-1.414.313,2.9,2.9,0,0,1-2.422-1.121,4.659,4.659,0,0,1-.875-2.949Zm1.539.164a3.588,3.588,0,0,0,.523,2.051,1.828,1.828,0,0,0,1.625.77,2.039,2.039,0,0,0,1.156-.312,2.334,2.334,0,0,0,.766-.875v-3.945a2.37,2.37,0,0,0-.77-.832,2.033,2.033,0,0,0-1.137-.309,1.759,1.759,0,0,0-1.637.914,4.718,4.718,0,0,0-.527,2.375ZM34.148,135H32.609v-8.453h1.539Zm0-10.617H32.609v-1.57h1.539ZM41.711,135q-.078-.383-.121-.676a4.96,4.96,0,0,1-.051-.59,3.589,3.589,0,0,1-1.121,1.02,2.867,2.867,0,0,1-1.488.41,2.763,2.763,0,0,1-2.012-.676,2.486,2.486,0,0,1-.691-1.863,2.183,2.183,0,0,1,.98-1.895,4.579,4.579,0,0,1,2.66-.684h1.672v-.836a1.551,1.551,0,0,0-.453-1.176A1.779,1.779,0,0,0,39.8,127.6a1.859,1.859,0,0,0-1.211.375,1.125,1.125,0,0,0-.461.9l-1.461.016-.016-.047a2.023,2.023,0,0,1,.863-1.687,3.578,3.578,0,0,1,2.371-.766,3.49,3.49,0,0,1,2.313.73,2.588,2.588,0,0,1,.875,2.105v4.07a7.923,7.923,0,0,0,.047.875A4.5,4.5,0,0,0,43.3,135Zm-2.555-1.125a2.739,2.739,0,0,0,1.508-.43,2.042,2.042,0,0,0,.875-.984v-1.375H39.813a2.24,2.24,0,0,0-1.488.469,1.4,1.4,0,0,0-.559,1.1,1.159,1.159,0,0,0,.352.891A1.472,1.472,0,0,0,39.156,133.875Zm17.336-2.781a4.659,4.659,0,0,1-.875,2.949,2.893,2.893,0,0,1-2.414,1.121,3.354,3.354,0,0,1-1.371-.262,2.622,2.622,0,0,1-1-.785v4.133H49.289v-11.7h1.18l.242,1.094a2.792,2.792,0,0,1,1.031-.93,3.078,3.078,0,0,1,1.438-.32,2.809,2.809,0,0,1,2.441,1.246,5.638,5.638,0,0,1,.871,3.293Zm-1.539-.164a4.467,4.467,0,0,0-.566-2.363,1.835,1.835,0,0,0-1.668-.926,2.053,2.053,0,0,0-1.133.3,2.25,2.25,0,0,0-.758.824v4.086a2.186,2.186,0,0,0,.758.816,2.126,2.126,0,0,0,1.148.293,1.894,1.894,0,0,0,1.656-.8,3.516,3.516,0,0,0,.563-2.066Zm3.07-.234a4.654,4.654,0,0,1,1.016-3.09,3.764,3.764,0,0,1,5.535,0,4.639,4.639,0,0,1,1.02,3.094v.172a4.631,4.631,0,0,1-1.016,3.094,3.781,3.781,0,0,1-5.535,0,4.623,4.623,0,0,1-1.02-3.09Zm1.539.172a4.009,4.009,0,0,0,.566,2.219,2.046,2.046,0,0,0,3.355,0,3.988,3.988,0,0,0,.57-2.219V130.7a3.976,3.976,0,0,0-.574-2.211A1.882,1.882,0,0,0,61.8,127.6a1.856,1.856,0,0,0-1.668.883,4.018,4.018,0,0,0-.566,2.211Zm9.289-4.32.109,1.258a3.069,3.069,0,0,1,1.059-1.043,2.824,2.824,0,0,1,1.449-.371,2.759,2.759,0,0,1,2.117.8,3.515,3.515,0,0,1,.75,2.473V135H72.8v-5.3a2.287,2.287,0,0,0-.441-1.586,1.768,1.768,0,0,0-1.348-.469,2.386,2.386,0,0,0-1.207.285,2.073,2.073,0,0,0-.785.8V135H67.477v-8.453Zm7.367,4.383a5.641,5.641,0,0,1,.871-3.289,2.807,2.807,0,0,1,2.441-1.25,3.027,3.027,0,0,1,1.316.273,2.7,2.7,0,0,1,.98.8v-4.648h1.539V135h-1.18l-.234-1.07a2.743,2.743,0,0,1-1.023.922,3.058,3.058,0,0,1-1.414.313,2.9,2.9,0,0,1-2.422-1.121,4.659,4.659,0,0,1-.875-2.949Zm1.539.164a3.588,3.588,0,0,0,.523,2.051,1.828,1.828,0,0,0,1.625.77,2.039,2.039,0,0,0,1.156-.312,2.334,2.334,0,0,0,.766-.875v-3.945a2.37,2.37,0,0,0-.77-.832,2.033,2.033,0,0,0-1.137-.309,1.759,1.759,0,0,0-1.637.914,4.718,4.718,0,0,0-.527,2.375Zm11.406,4.07A3.576,3.576,0,0,1,86.324,134a4.48,4.48,0,0,1-1.02-3.062v-.344a4.386,4.386,0,0,1,1.051-3.012,3.3,3.3,0,0,1,2.566-1.191,3.067,3.067,0,0,1,2.543,1.055,4.345,4.345,0,0,1,.848,2.8v.813H86.906l-.023.039a3.494,3.494,0,0,0,.563,2.066,1.965,1.965,0,0,0,1.719.793,3.872,3.872,0,0,0,1.371-.223,3.061,3.061,0,0,0,1.012-.613l.6,1a3.7,3.7,0,0,1-1.2.738A4.762,4.762,0,0,1,89.164,135.164Zm-.242-7.562a1.673,1.673,0,0,0-1.332.621,2.938,2.938,0,0,0-.645,1.59l.016.039h3.813v-.125a2.462,2.462,0,0,0-.453-1.523A1.638,1.638,0,0,0,88.922,127.6Zm9.117.3-.789-.047a1.762,1.762,0,0,0-1.027.289,1.854,1.854,0,0,0-.645.813V135H94.039v-8.453h1.375l.148,1.234a2.934,2.934,0,0,1,.887-1.023,2.073,2.073,0,0,1,1.215-.367,1.9,1.9,0,0,1,.328.027,2.174,2.174,0,0,1,.258.059Zm6.8,7.094q-.078-.383-.121-.676a4.96,4.96,0,0,1-.051-.59,3.589,3.589,0,0,1-1.121,1.02,2.867,2.867,0,0,1-1.488.41,2.763,2.763,0,0,1-2.012-.676,2.486,2.486,0,0,1-.691-1.863,2.183,2.183,0,0,1,.98-1.895,4.579,4.579,0,0,1,2.66-.684h1.672v-.836a1.551,1.551,0,0,0-.453-1.176,1.779,1.779,0,0,0-1.281-.434,1.859,1.859,0,0,0-1.211.375,1.125,1.125,0,0,0-.461.9l-1.461.016-.016-.047a2.023,2.023,0,0,1,.863-1.687,3.578,3.578,0,0,1,2.371-.766,3.49,3.49,0,0,1,2.313.73,2.588,2.588,0,0,1,.875,2.105v4.07a7.923,7.923,0,0,0,.047.875,4.5,4.5,0,0,0,.172.828Zm-2.555-1.125a2.739,2.739,0,0,0,1.508-.43,2.042,2.042,0,0,0,.875-.984v-1.375h-1.727a2.24,2.24,0,0,0-1.488.469,1.4,1.4,0,0,0-.559,1.1,1.159,1.159,0,0,0,.352.891A1.472,1.472,0,0,0,102.281,133.875Zm5.8-2.945a5.641,5.641,0,0,1,.871-3.289,2.807,2.807,0,0,1,2.441-1.25,3.027,3.027,0,0,1,1.316.273,2.7,2.7,0,0,1,.98.8v-4.648h1.539V135h-1.18l-.234-1.07a2.743,2.743,0,0,1-1.023.922,3.058,3.058,0,0,1-1.414.313,2.9,2.9,0,0,1-2.422-1.121,4.659,4.659,0,0,1-.875-2.949Zm1.539.164a3.588,3.588,0,0,0,.523,2.051,1.828,1.828,0,0,0,1.625.77,2.039,2.039,0,0,0,1.156-.312,2.334,2.334,0,0,0,.766-.875v-3.945a2.37,2.37,0,0,0-.77-.832,2.033,2.033,0,0,0-1.137-.309,1.759,1.759,0,0,0-1.637.914,4.718,4.718,0,0,0-.527,2.375Zm13.1,3.906q-.078-.383-.121-.676a4.96,4.96,0,0,1-.051-.59,3.589,3.589,0,0,1-1.121,1.02,2.867,2.867,0,0,1-1.488.41,2.763,2.763,0,0,1-2.012-.676,2.486,2.486,0,0,1-.691-1.863,2.183,2.183,0,0,1,.98-1.895,4.579,4.579,0,0,1,2.66-.684h1.672v-.836a1.551,1.551,0,0,0-.453-1.176,1.779,1.779,0,0,0-1.281-.434,1.859,1.859,0,0,0-1.211.375,1.125,1.125,0,0,0-.461.9l-1.461.016-.016-.047a2.023,2.023,0,0,1,.863-1.687,3.578,3.578,0,0,1,2.371-.766,3.49,3.49,0,0,1,2.313.73,2.588,2.588,0,0,1,.875,2.105v4.07a7.923,7.923,0,0,0,.047.875,4.5,4.5,0,0,0,.172.828Zm-2.555-1.125a2.739,2.739,0,0,0,1.508-.43,2.042,2.042,0,0,0,.875-.984v-1.375h-1.727a2.24,2.24,0,0,0-1.488.469,1.4,1.4,0,0,0-.559,1.1,1.159,1.159,0,0,0,.352.891A1.472,1.472,0,0,0,120.172,133.875ZM6.969,156.867h.047l3.633-9.242h1.914V159H11.023v-8.523l-.047-.008L7.531,159H6.461l-3.547-8.812-.047.008V159H1.328V147.625H3.352Zm11.547,2.3A3.576,3.576,0,0,1,15.676,158a4.48,4.48,0,0,1-1.02-3.062v-.344a4.386,4.386,0,0,1,1.051-3.012,3.3,3.3,0,0,1,2.566-1.191,3.067,3.067,0,0,1,2.543,1.055,4.345,4.345,0,0,1,.848,2.8v.813H16.258l-.023.039a3.494,3.494,0,0,0,.563,2.066,1.965,1.965,0,0,0,1.719.793,3.872,3.872,0,0,0,1.371-.223,3.06,3.06,0,0,0,1.012-.613l.6,1a3.7,3.7,0,0,1-1.2.738A4.762,4.762,0,0,1,18.516,159.164Zm-.242-7.562a1.673,1.673,0,0,0-1.332.621,2.938,2.938,0,0,0-.645,1.59l.016.039h3.813v-.125a2.462,2.462,0,0,0-.453-1.523A1.638,1.638,0,0,0,18.273,151.6Zm4.766,3.328a5.641,5.641,0,0,1,.871-3.289,2.807,2.807,0,0,1,2.441-1.25,3.027,3.027,0,0,1,1.316.273,2.7,2.7,0,0,1,.98.8v-4.648h1.539V159h-1.18l-.234-1.07a2.743,2.743,0,0,1-1.023.922,3.058,3.058,0,0,1-1.414.313,2.9,2.9,0,0,1-2.422-1.121,4.659,4.659,0,0,1-.875-2.949Zm1.539.164a3.588,3.588,0,0,0,.523,2.051,1.828,1.828,0,0,0,1.625.77,2.039,2.039,0,0,0,1.156-.312,2.334,2.334,0,0,0,.766-.875v-3.945a2.37,2.37,0,0,0-.77-.832,2.033,2.033,0,0,0-1.137-.309,1.759,1.759,0,0,0-1.637.914,4.718,4.718,0,0,0-.527,2.375ZM34.148,159H32.609v-8.453h1.539Zm0-10.617H32.609v-1.57h1.539ZM41.711,159q-.078-.383-.121-.676a4.96,4.96,0,0,1-.051-.59,3.589,3.589,0,0,1-1.121,1.02,2.867,2.867,0,0,1-1.488.41,2.763,2.763,0,0,1-2.012-.676,2.486,2.486,0,0,1-.691-1.863,2.183,2.183,0,0,1,.98-1.895,4.579,4.579,0,0,1,2.66-.684h1.672v-.836a1.551,1.551,0,0,0-.453-1.176A1.779,1.779,0,0,0,39.8,151.6a1.859,1.859,0,0,0-1.211.375,1.125,1.125,0,0,0-.461.9l-1.461.016-.016-.047a2.023,2.023,0,0,1,.863-1.687,3.578,3.578,0,0,1,2.371-.766,3.49,3.49,0,0,1,2.313.73,2.588,2.588,0,0,1,.875,2.105v4.07a7.923,7.923,0,0,0,.047.875A4.5,4.5,0,0,0,43.3,159Zm-2.555-1.125a2.739,2.739,0,0,0,1.508-.43,2.042,2.042,0,0,0,.875-.984v-1.375H39.813a2.24,2.24,0,0,0-1.488.469,1.4,1.4,0,0,0-.559,1.1,1.159,1.159,0,0,0,.352.891A1.472,1.472,0,0,0,39.156,157.875Zm14.133-5.969-.789-.047a1.762,1.762,0,0,0-1.027.289,1.855,1.855,0,0,0-.645.813V159H49.289v-8.453h1.375l.148,1.234a2.934,2.934,0,0,1,.887-1.023,2.073,2.073,0,0,1,1.215-.367,1.9,1.9,0,0,1,.328.027,2.176,2.176,0,0,1,.258.059Zm4.953,7.258A3.576,3.576,0,0,1,55.4,158a4.48,4.48,0,0,1-1.02-3.062v-.344a4.386,4.386,0,0,1,1.051-3.012A3.3,3.3,0,0,1,58,150.391a3.067,3.067,0,0,1,2.543,1.055,4.345,4.345,0,0,1,.848,2.8v.813H55.984l-.023.039a3.494,3.494,0,0,0,.563,2.066,1.965,1.965,0,0,0,1.719.793,3.872,3.872,0,0,0,1.371-.223,3.06,3.06,0,0,0,1.012-.613l.6,1a3.7,3.7,0,0,1-1.2.738A4.762,4.762,0,0,1,58.242,159.164ZM58,151.6a1.673,1.673,0,0,0-1.332.621,2.938,2.938,0,0,0-.645,1.59l.016.039h3.813v-.125A2.462,2.462,0,0,0,59.4,152.2,1.638,1.638,0,0,0,58,151.6Zm8.477,6.359a1.81,1.81,0,0,0,1.242-.473,1.494,1.494,0,0,0,.531-1.16h1.391l.023.047a2.428,2.428,0,0,1-.937,1.941,3.582,3.582,0,0,1-5-.363,4.674,4.674,0,0,1-.969-3.016v-.328a4.654,4.654,0,0,1,.973-3,3.317,3.317,0,0,1,2.746-1.215,3.189,3.189,0,0,1,2.316.875,2.775,2.775,0,0,1,.871,2.148l-.016.047h-1.4a1.865,1.865,0,0,0-.5-1.316,1.658,1.658,0,0,0-1.27-.543,1.777,1.777,0,0,0-1.652.879,4.114,4.114,0,0,0-.52,2.129v.328a4.192,4.192,0,0,0,.512,2.148A1.776,1.776,0,0,0,66.477,157.961Zm4.656-3.266a4.654,4.654,0,0,1,1.016-3.09,3.764,3.764,0,0,1,5.535,0A4.639,4.639,0,0,1,78.7,154.7v.172a4.631,4.631,0,0,1-1.016,3.094,3.781,3.781,0,0,1-5.535,0,4.623,4.623,0,0,1-1.02-3.09Zm1.539.172a4.009,4.009,0,0,0,.566,2.219,2.046,2.046,0,0,0,3.355,0,3.988,3.988,0,0,0,.57-2.219V154.7a3.976,3.976,0,0,0-.574-2.211,1.882,1.882,0,0,0-1.684-.883,1.856,1.856,0,0,0-1.668.883,4.018,4.018,0,0,0-.566,2.211Zm11.914-2.961-.789-.047a1.762,1.762,0,0,0-1.027.289,1.854,1.854,0,0,0-.645.813V159H80.586v-8.453h1.375l.148,1.234A2.934,2.934,0,0,1,83,150.758a2.073,2.073,0,0,1,1.215-.367,1.9,1.9,0,0,1,.328.027,2.177,2.177,0,0,1,.258.059Zm3.875-3.4v2.039h1.6v1.141h-1.6v5.133a1.149,1.149,0,0,0,.246.836.89.89,0,0,0,.652.242,1.43,1.43,0,0,0,.3-.035,2.2,2.2,0,0,0,.273-.074l.211,1.055a1.36,1.36,0,0,1-.508.23,2.563,2.563,0,0,1-.664.09,1.993,1.993,0,0,1-1.492-.566,2.46,2.46,0,0,1-.555-1.777v-5.133H85.578v-1.141h1.344v-2.039ZM96.906,159q-.078-.383-.121-.676a4.96,4.96,0,0,1-.051-.59,3.589,3.589,0,0,1-1.121,1.02,2.867,2.867,0,0,1-1.488.41,2.763,2.763,0,0,1-2.012-.676,2.486,2.486,0,0,1-.691-1.863,2.183,2.183,0,0,1,.98-1.895,4.579,4.579,0,0,1,2.66-.684h1.672v-.836a1.551,1.551,0,0,0-.453-1.176A1.779,1.779,0,0,0,95,151.6a1.859,1.859,0,0,0-1.211.375,1.125,1.125,0,0,0-.461.9l-1.461.016-.016-.047a2.023,2.023,0,0,1,.863-1.687,3.578,3.578,0,0,1,2.371-.766,3.49,3.49,0,0,1,2.313.73,2.588,2.588,0,0,1,.875,2.105v4.07a7.923,7.923,0,0,0,.047.875,4.5,4.5,0,0,0,.172.828Zm-2.555-1.125a2.739,2.739,0,0,0,1.508-.43,2.042,2.042,0,0,0,.875-.984v-1.375H95.008a2.24,2.24,0,0,0-1.488.469,1.4,1.4,0,0,0-.559,1.1,1.159,1.159,0,0,0,.352.891A1.472,1.472,0,0,0,94.352,157.875Zm5.8-2.945a5.641,5.641,0,0,1,.871-3.289,2.807,2.807,0,0,1,2.441-1.25,3.027,3.027,0,0,1,1.316.273,2.7,2.7,0,0,1,.98.8v-4.648H107.3V159h-1.18l-.234-1.07a2.743,2.743,0,0,1-1.023.922,3.058,3.058,0,0,1-1.414.313,2.9,2.9,0,0,1-2.422-1.121,4.659,4.659,0,0,1-.875-2.949Zm1.539.164a3.588,3.588,0,0,0,.523,2.051,1.828,1.828,0,0,0,1.625.77A2.039,2.039,0,0,0,105,157.6a2.334,2.334,0,0,0,.766-.875v-3.945a2.37,2.37,0,0,0-.77-.832,2.033,2.033,0,0,0-1.137-.309,1.759,1.759,0,0,0-1.637.914,4.718,4.718,0,0,0-.527,2.375ZM114.8,159q-.078-.383-.121-.676a4.96,4.96,0,0,1-.051-.59,3.589,3.589,0,0,1-1.121,1.02,2.867,2.867,0,0,1-1.488.41,2.763,2.763,0,0,1-2.012-.676,2.486,2.486,0,0,1-.691-1.863,2.183,2.183,0,0,1,.98-1.895,4.579,4.579,0,0,1,2.66-.684h1.672v-.836a1.551,1.551,0,0,0-.453-1.176,1.779,1.779,0,0,0-1.281-.434,1.859,1.859,0,0,0-1.211.375,1.125,1.125,0,0,0-.461.9l-1.461.016-.016-.047a2.023,2.023,0,0,1,.863-1.687,3.578,3.578,0,0,1,2.371-.766,3.49,3.49,0,0,1,2.313.73,2.588,2.588,0,0,1,.875,2.105v4.07a7.923,7.923,0,0,0,.047.875,4.5,4.5,0,0,0,.172.828Zm-2.555-1.125a2.739,2.739,0,0,0,1.508-.43,2.042,2.042,0,0,0,.875-.984v-1.375H112.9a2.24,2.24,0,0,0-1.488.469,1.4,1.4,0,0,0-.559,1.1,1.159,1.159,0,0,0,.352.891A1.472,1.472,0,0,0,112.242,157.875ZM9.281,172.836H5.531V183H3.992V172.836H.289v-1.211H9.281Zm4.82,3.07-.789-.047a1.762,1.762,0,0,0-1.027.289,1.854,1.854,0,0,0-.645.813V183H10.1v-8.453h1.375l.148,1.234a2.934,2.934,0,0,1,.887-1.023,2.073,2.073,0,0,1,1.215-.367,1.9,1.9,0,0,1,.328.027,2.177,2.177,0,0,1,.258.059ZM17.367,183H15.828v-8.453h1.539Zm0-10.617H15.828v-1.57h1.539Zm3.742,2.164.109,1.109a2.871,2.871,0,0,1,1.051-.934,3.157,3.157,0,0,1,1.48-.332,2.615,2.615,0,0,1,1.449.391,2.363,2.363,0,0,1,.91,1.172,3.162,3.162,0,0,1,1.059-1.145,2.769,2.769,0,0,1,1.527-.418,2.531,2.531,0,0,1,2.039.887,4.051,4.051,0,0,1,.75,2.668V183H29.945v-5.07a2.81,2.81,0,0,0-.43-1.77,1.567,1.567,0,0,0-1.281-.52,1.631,1.631,0,0,0-1.277.547,2.381,2.381,0,0,0-.574,1.383V183H24.836v-5.07a2.772,2.772,0,0,0-.441-1.738,1.532,1.532,0,0,0-1.27-.551,2.115,2.115,0,0,0-1.156.289,1.867,1.867,0,0,0-.7.813V183H19.734v-8.453Zm16.109,8.617A3.576,3.576,0,0,1,34.379,182a4.48,4.48,0,0,1-1.02-3.062v-.344a4.386,4.386,0,0,1,1.051-3.012,3.3,3.3,0,0,1,2.566-1.191,3.067,3.067,0,0,1,2.543,1.055,4.345,4.345,0,0,1,.848,2.8v.813H34.961l-.023.039a3.494,3.494,0,0,0,.563,2.066,1.965,1.965,0,0,0,1.719.793,3.872,3.872,0,0,0,1.371-.223,3.06,3.06,0,0,0,1.012-.613l.6,1a3.7,3.7,0,0,1-1.2.738A4.762,4.762,0,0,1,37.219,183.164Zm-.242-7.562a1.673,1.673,0,0,0-1.332.621,2.938,2.938,0,0,0-.645,1.59l.016.039h3.813v-.125a2.462,2.462,0,0,0-.453-1.523A1.638,1.638,0,0,0,36.977,175.6Zm4.766,3.328a5.641,5.641,0,0,1,.871-3.289,2.807,2.807,0,0,1,2.441-1.25,3.027,3.027,0,0,1,1.316.273,2.7,2.7,0,0,1,.98.8v-4.648h1.539V183h-1.18l-.234-1.07a2.743,2.743,0,0,1-1.023.922,3.058,3.058,0,0,1-1.414.313,2.9,2.9,0,0,1-2.422-1.121,4.659,4.659,0,0,1-.875-2.949Zm1.539.164a3.588,3.588,0,0,0,.523,2.051,1.828,1.828,0,0,0,1.625.77,2.039,2.039,0,0,0,1.156-.312,2.334,2.334,0,0,0,.766-.875v-3.945a2.37,2.37,0,0,0-.77-.832,2.033,2.033,0,0,0-1.137-.309,1.759,1.759,0,0,0-1.637.914,4.718,4.718,0,0,0-.527,2.375ZM52.852,183H51.313v-8.453h1.539Zm0-10.617H51.313v-1.57h1.539ZM60.414,183q-.078-.383-.121-.676a4.96,4.96,0,0,1-.051-.59,3.589,3.589,0,0,1-1.121,1.02,2.867,2.867,0,0,1-1.488.41,2.763,2.763,0,0,1-2.012-.676,2.486,2.486,0,0,1-.691-1.863,2.183,2.183,0,0,1,.98-1.895,4.579,4.579,0,0,1,2.66-.684h1.672v-.836a1.551,1.551,0,0,0-.453-1.176,1.779,1.779,0,0,0-1.281-.434,1.859,1.859,0,0,0-1.211.375,1.125,1.125,0,0,0-.461.9l-1.461.016-.016-.047a2.023,2.023,0,0,1,.863-1.687,3.578,3.578,0,0,1,2.371-.766,3.49,3.49,0,0,1,2.313.73,2.588,2.588,0,0,1,.875,2.105v4.07a7.923,7.923,0,0,0,.047.875A4.5,4.5,0,0,0,62,183Zm-2.555-1.125a2.739,2.739,0,0,0,1.508-.43,2.042,2.042,0,0,0,.875-.984v-1.375H58.516a2.24,2.24,0,0,0-1.488.469,1.4,1.4,0,0,0-.559,1.1,1.159,1.159,0,0,0,.352.891A1.472,1.472,0,0,0,57.859,181.875Z" transform="translate(517.051 556)" fill="#12263f"/>
    <path id="Trazado_877510" data-name="Trazado 877510" d="M52,0A52,52,0,1,1,0,52,52,52,0,0,1,52,0Z" transform="translate(330.051 569)" fill="#fff"/>
    <g id="Grupo_1099862" data-name="Grupo 1099862" transform="translate(351.404 591.709)">
      <circle id="Elipse_11493" data-name="Elipse 11493" cx="10.95" cy="10.95" r="10.95" transform="translate(0 15.484) rotate(-45)" fill="#60b7ff"/>
      <circle id="Elipse_11494" data-name="Elipse 11494" cx="9.59" cy="9.59" r="9.59" transform="translate(1.924 15.484) rotate(-45)" fill="#8ac9fe"/>
      <path id="Trazado_874029" data-name="Trazado 874029" d="M112.608,112.62h10.95a10.946,10.946,0,0,1-5.474,9.485Z" transform="translate(-97.122 -97.136)" fill="#fd4755" fill-rule="evenodd"/>
      <path id="Trazado_874030" data-name="Trazado 874030" d="M112.608,112.62h9.59a9.586,9.586,0,0,1-4.794,8.306Z" transform="translate(-97.122 -97.136)" fill="#fe646f" fill-rule="evenodd"/>
      <path id="Trazado_874031" data-name="Trazado 874031" d="M123.558,18.96h-10.95V8.01A10.95,10.95,0,0,1,123.558,18.96Z" transform="translate(-97.122 -3.477)" fill="#ffd064" fill-rule="evenodd"/>
      <path id="Trazado_874032" data-name="Trazado 874032" d="M122.2,30.6h-9.59v-9.59A9.59,9.59,0,0,1,122.2,30.6Z" transform="translate(-97.122 -15.114)" fill="#ffe177" fill-rule="evenodd"/>
    </g>
    <g id="Grupo_1099863" data-name="Grupo 1099863" transform="translate(383.026 595.953)">
      <path id="Trazado_874033" data-name="Trazado 874033" d="M267.937,5.247h2.824a1.181,1.181,0,0,1,1.178,1.178V9.25a1.181,1.181,0,0,1-1.178,1.178h-2.824a1.181,1.181,0,0,1-1.178-1.178V6.425a1.181,1.181,0,0,1,1.178-1.178Z" transform="translate(-266.759 -5.247)" fill="#8ac9fe" fill-rule="evenodd"/>
      <path id="Trazado_874034" data-name="Trazado 874034" d="M267.937,87.873h2.824a1.181,1.181,0,0,1,1.178,1.178v2.824a1.181,1.181,0,0,1-1.178,1.178h-2.824a1.181,1.181,0,0,1-1.178-1.178V89.051A1.181,1.181,0,0,1,267.937,87.873Z" transform="translate(-266.759 -79.224)" fill="#ffe177" fill-rule="evenodd"/>
      <path id="Trazado_874035" data-name="Trazado 874035" d="M267.937,170.5h2.824a1.181,1.181,0,0,1,1.178,1.178V174.5a1.181,1.181,0,0,1-1.178,1.178h-2.824a1.181,1.181,0,0,1-1.178-1.178v-2.824A1.181,1.181,0,0,1,267.937,170.5Z" transform="translate(-266.759 -153.2)" fill="#fe646f" fill-rule="evenodd"/>
    </g>
    <g id="Grupo_1099864" data-name="Grupo 1099864" transform="translate(355.94 624.154)">
      <path id="Trazado_874036" data-name="Trazado 874036" d="M198.059,348.361h3.477a1.049,1.049,0,0,1,1.047,1.047v14.2a1.049,1.049,0,0,1-1.047,1.047h-3.477a1.049,1.049,0,0,1-1.047-1.047v-14.2A1.049,1.049,0,0,1,198.059,348.361Z" transform="translate(-177.227 -340.646)" fill="#ffe177" fill-rule="evenodd"/>
      <path id="Trazado_874037" data-name="Trazado 874037" d="M201.536,348.361a1.049,1.049,0,0,1,1.047,1.047v14.2a1.049,1.049,0,0,1-1.047,1.047h-3.477a1.049,1.049,0,0,1-1.047-1.047h3.477a1.049,1.049,0,0,0,1.047-1.047Z" transform="translate(-177.227 -340.646)" fill="#ffd064" fill-rule="evenodd"/>
      <path id="Trazado_874038" data-name="Trazado 874038" d="M294.644,348.361h3.477a1.049,1.049,0,0,1,1.047,1.047v14.2a1.049,1.049,0,0,1-1.047,1.047h-3.477a1.049,1.049,0,0,1-1.047-1.047v-14.2A1.049,1.049,0,0,1,294.644,348.361Z" transform="translate(-263.701 -340.646)" fill="#fe646f" fill-rule="evenodd"/>
      <path id="Trazado_874039" data-name="Trazado 874039" d="M298.121,348.361a1.049,1.049,0,0,1,1.047,1.047v14.2a1.049,1.049,0,0,1-1.047,1.047h-3.477a1.049,1.049,0,0,1-1.047-1.047h3.477a1.049,1.049,0,0,0,1.047-1.047Z" transform="translate(-263.701 -340.646)" fill="#fd4755" fill-rule="evenodd"/>
      <path id="Trazado_874040" data-name="Trazado 874040" d="M9.047,321.361h3.477a1.049,1.049,0,0,1,1.047,1.047v17.026a1.049,1.049,0,0,1-1.047,1.047H9.047A1.049,1.049,0,0,1,8,339.434V322.408A1.049,1.049,0,0,1,9.047,321.361Z" transform="translate(-8 -316.472)" fill="#6cf5c2" fill-rule="evenodd"/>
      <path id="Trazado_874041" data-name="Trazado 874041" d="M12.524,321.361a1.049,1.049,0,0,1,1.047,1.047v17.026a1.049,1.049,0,0,1-1.047,1.047H9.047A1.049,1.049,0,0,1,8,339.434h3.477a1.049,1.049,0,0,0,1.047-1.047Z" transform="translate(-8 -316.472)" fill="#00e499" fill-rule="evenodd"/>
      <path id="Trazado_874042" data-name="Trazado 874042" d="M101.473,274.658h3.477A1.049,1.049,0,0,1,106,275.7v21.915a1.049,1.049,0,0,1-1.047,1.047h-3.477a1.049,1.049,0,0,1-1.047-1.047V275.7A1.049,1.049,0,0,1,101.473,274.658Z" transform="translate(-90.751 -274.658)" fill="#8ac9fe" fill-rule="evenodd"/>
      <path id="Trazado_874043" data-name="Trazado 874043" d="M104.95,274.658A1.049,1.049,0,0,1,106,275.7v21.915a1.049,1.049,0,0,1-1.047,1.047h-3.477a1.049,1.049,0,0,1-1.047-1.047H103.9a1.049,1.049,0,0,0,1.047-1.047Z" transform="translate(-90.751 -274.658)" fill="#60b7ff" fill-rule="evenodd"/>
    </g>
    <g id="Grupo_1099865" data-name="Grupo 1099865" transform="translate(372.667 611.876)">
      <path id="Trazado_874044" data-name="Trazado 874044" d="M375.051,354.862a10.844,10.844,0,0,1-1.83,2.014l4.976,4.877,1.894-1.952Z" transform="translate(-351.718 -334.188)" fill="#a79ba7" fill-rule="evenodd"/>
      <path id="Trazado_874045" data-name="Trazado 874045" d="M386.391,354.541a1.25,1.25,0,0,1-.542.726l4.943,4.91.605-.663Z" transform="translate(-363.024 -333.901)" fill="#837683" fill-rule="evenodd"/>
      <path id="Trazado_874046" data-name="Trazado 874046" d="M415.909,398.98l2.138-2.2a.983.983,0,0,0-.021-1.386l-5.921-5.746a.983.983,0,0,0-1.386.021l-2.138,2.2a.983.983,0,0,0,.021,1.386L414.523,399A.983.983,0,0,0,415.909,398.98Z" transform="translate(-383.13 -365.083)" fill="#f1ba84" fill-rule="evenodd"/>
      <path id="Trazado_874047" data-name="Trazado 874047" d="M434.142,389.644l5.921,5.746a.983.983,0,0,1,.021,1.386l-2.138,2.2a.973.973,0,0,1-.266.194.984.984,0,0,0,1.141-.194l2.138-2.2a.983.983,0,0,0-.021-1.386l-5.921-5.746a.984.984,0,0,0-1.121-.173A.978.978,0,0,1,434.142,389.644Z" transform="translate(-406.043 -365.082)" fill="#e3a76f" fill-rule="evenodd"/>
      <circle id="Elipse_11495" data-name="Elipse 11495" cx="10.782" cy="10.782" r="10.782" transform="translate(0 15.246) rotate(-45)" fill="#eceff1"/>
      <path id="Trazado_874048" data-name="Trazado 874048" d="M309.037,200a10.782,10.782,0,0,1,0,21.564q-.263,0-.523-.013a10.782,10.782,0,0,0,0-21.539Q308.774,200,309.037,200Z" transform="translate(-293.784 -195.54)" fill="#d1d1d6" fill-rule="evenodd"/>
    </g>
    <g id="Grupo_1099866" data-name="Grupo 1099866" transform="translate(380.069 619.271)">
      <circle id="Elipse_11496" data-name="Elipse 11496" cx="7.851" cy="7.851" r="7.851" transform="translate(0 0)" fill="#837683"/>
      <path id="Trazado_874049" data-name="Trazado 874049" d="M314,235.856a7.852,7.852,0,0,1-7.153,7.82q.345.03.7.031a7.924,7.924,0,0,0,1.124-.08l.142-.022a7.851,7.851,0,0,0-1.265-15.6q-.353,0-.7.031a7.852,7.852,0,0,1,7.153,7.82Z" transform="translate(-299.692 -228.005)" fill="#685e68" fill-rule="evenodd"/>
      <path id="Trazado_874050" data-name="Trazado 874050" d="M266.887,310.239a5.485,5.485,0,0,0-5.451,4.893,7.825,7.825,0,0,0,5.451,2.2,7.926,7.926,0,0,0,1.124-.08,7.826,7.826,0,0,0,4.327-2.122A5.483,5.483,0,0,0,266.887,310.239Z" transform="translate(-259.036 -301.631)" fill="#8ac9fe" fill-rule="evenodd"/>
      <path id="Trazado_874051" data-name="Trazado 874051" d="M306.847,310.283c3.263.415,4.579,2.884,4.881,5.843a7.877,7.877,0,0,0,1.268-.995,5.483,5.483,0,0,0-5.451-4.892A5.542,5.542,0,0,0,306.847,310.283Z" transform="translate(-299.694 -301.631)" fill="#60b7ff" fill-rule="evenodd"/>
      <circle id="Elipse_11497" data-name="Elipse 11497" cx="2.772" cy="2.772" r="2.772" transform="translate(5.079 2.65)" fill="#f6dccd"/>
      <path id="Trazado_874052" data-name="Trazado 874052" d="M312.6,256.09a2.772,2.772,0,0,1-2.423,2.75,2.8,2.8,0,0,0,.349.022,2.772,2.772,0,1,0-.349-5.522A2.772,2.772,0,0,1,312.6,256.09Z" transform="translate(-302.679 -250.668)" fill="#f1cbbc" fill-rule="evenodd"/>
    </g>
    <path id="Trazado_874053" data-name="Trazado 874053" d="M25.8,31.726a6.971,6.971,0,0,0,1.158,3.853,6.3,6.3,0,0,1,3.25-3.375,3.609,3.609,0,1,1,5.212,0,6.307,6.307,0,0,1,3.25,3.375A7.012,7.012,0,1,0,25.8,31.726Zm7.014-.08a1.935,1.935,0,1,1,1.934-1.935A1.937,1.937,0,0,1,32.815,31.646Zm0,7.094a6.98,6.98,0,0,1-4.554-1.687,4.646,4.646,0,0,1,9.11,0A6.984,6.984,0,0,1,32.815,38.74Zm-8.688-7.013a8.688,8.688,0,1,1,8.688,8.688A8.7,8.7,0,0,1,24.126,31.726ZM15.244,29.6h-3.9V51.929h3.9Zm1.675-.838V52.767a.838.838,0,0,1-.837.838H10.51a.838.838,0,0,1-.838-.838V28.758a.837.837,0,0,1,.838-.838h5.571a.838.838,0,0,1,.837.838Zm34.957,18.63-5.921-5.745a.137.137,0,0,0-.1-.039h0a.14.14,0,0,0-.1.042l-2.138,2.2a.147.147,0,0,0,0,.2l5.92,5.746a.148.148,0,0,0,.2,0l2.138-2.2A.147.147,0,0,0,51.875,47.388ZM35.464,43.041a11.646,11.646,0,0,1-3.9.238v8.651h3.9ZM25.353,40.626a11.7,11.7,0,0,1-2.725-3.315H21.457V51.929h3.9Zm-2.483-8.9a9.945,9.945,0,1,1,9.944,9.945,9.956,9.956,0,0,1-9.944-9.945Zm6.177-10.993a11.54,11.54,0,0,1,2.928-.6V18.982H29.047Zm12.69,18.427c-.223.268-.459.526-.7.772l2.085,2.023.728-.75Zm11.343,9.6-2.137,2.2A1.82,1.82,0,0,1,48.372,51l-5.92-5.745a1.821,1.821,0,0,1-.411-2.007l-2.279-2.211a11.614,11.614,0,0,1-2.623,1.477V52.767a.838.838,0,0,1-.837.838H30.731a.838.838,0,0,1-.838-.838V42.973A11.53,11.53,0,0,1,27.028,41.8V52.767a.838.838,0,0,1-.838.838H20.62a.838.838,0,0,1-.837-.838V36.474a.837.837,0,0,1,.837-.838h1.253a11.619,11.619,0,0,1,5.5-14.174V18.144a.838.838,0,0,1,.838-.838h4.6a.838.838,0,0,1,.838.838v1.992a11.53,11.53,0,0,1,4.414,1.225h6.59a.837.837,0,1,1,0,1.675H40.52a11.6,11.6,0,0,1,2.206,14.75L45.1,40.092a1.823,1.823,0,0,1,2.019.349l5.921,5.746a1.819,1.819,0,0,1,.039,2.57ZM5.568,34.484h-3.9V51.929h3.9Zm1.675-.837V52.767a.838.838,0,0,1-.838.838H.835A.838.838,0,0,1,0,52.767V33.647a.837.837,0,0,1,.838-.838H6.406a.837.837,0,0,1,.838.838Zm21.8-20.387h2.928V10.333H29.047Zm-1.675.838V9.5a.837.837,0,0,1,.838-.837h4.6a.837.837,0,0,1,.838.837v4.6a.838.838,0,0,1-.838.838h-4.6A.838.838,0,0,1,27.372,14.1Zm9.182.289h8.1a.838.838,0,1,0,0-1.675h-8.1a.838.838,0,0,0,0,1.675Zm0-3.506h16.2a.838.838,0,0,0,0-1.675h-16.2a.838.838,0,0,0,0,1.675Zm-7.507-6.27h2.928V1.684H29.047Zm-1.675.838V.847A.837.837,0,0,1,28.21.009h4.6a.837.837,0,0,1,.838.838v4.6a.837.837,0,0,1-.838.838h-4.6A.837.837,0,0,1,27.372,5.449Zm9.182.289h8.1a.837.837,0,1,0,0-1.675h-8.1a.837.837,0,0,0,0,1.675Zm0-3.506h16.2a.838.838,0,1,0,0-1.675h-16.2a.838.838,0,0,0,0,1.675ZM1.672,11.8a10.112,10.112,0,0,0,14.5,9.112l-5.107-8.687a.845.845,0,0,1-.115-.425V1.719A10.127,10.127,0,0,0,1.672,11.8ZM12.622,1.719a10.131,10.131,0,0,1,9.241,9.245l-9.241,0Zm9.24,10.92-8.614,0,4.364,7.422a10.114,10.114,0,0,0,4.25-7.419ZM0,11.8A11.788,11.788,0,1,0,11.785.009,11.8,11.8,0,0,0,0,11.8Zm35.721,6.9a.837.837,0,0,0,.837.837h16.2a.837.837,0,1,0,0-1.675h-16.2A.837.837,0,0,0,35.718,18.693Z" transform="translate(355.105 595.396)" fill-rule="evenodd"/>
  </g>
</svg>
