<svg xmlns="http://www.w3.org/2000/svg" width="51" height="51" viewBox="0 0 51 51">
  <g id="Grupo_1100979" data-name="Grupo 1100979" transform="translate(-180.73 -2044)">
    <g id="Grupo_1098793" data-name="Grupo 1098793" transform="translate(-0.27 -3728)">
      <path id="Trazado_872996" data-name="Trazado 872996" d="M25.5,0A25.5,25.5,0,1,1,0,25.5,25.5,25.5,0,0,1,25.5,0Z" transform="translate(181 5772)" fill="#b0dcae"/>
    </g>
    <path id="recopilacion-de-datos" d="M43.042,18.59h.917a.336.336,0,0,0,.335-.335v-.917L43.042,18.59Zm2.029-1.8h5.853a.336.336,0,0,1,.335.335V27.9a.336.336,0,0,1-.335.335h-8.1a.336.336,0,0,1-.335-.335v-8.53h1.466a1.113,1.113,0,0,0,1.112-1.112V16.788Zm-25.1,1.8h.917a.336.336,0,0,0,.335-.335v-.917L19.971,18.59ZM22,16.788h5.853a.336.336,0,0,1,.335.335V27.9a.336.336,0,0,1-.335.335h-8.1a.336.336,0,0,1-.335-.335v-8.53h1.466A1.113,1.113,0,0,0,22,18.255V16.788Zm2.548,3.557.4.107-4.2,2.424a.387.387,0,0,0,.388.671l4.2-2.424-.107.4a.388.388,0,1,0,.749.2l.349-1.3a.388.388,0,0,0-.275-.475l-1.3-.349a.388.388,0,0,0-.2.749Zm6.959-1.756h.917a.336.336,0,0,0,.335-.335v-.917L31.507,18.59Zm2.029-1.8h5.853a.336.336,0,0,1,.335.335V27.9a.336.336,0,0,1-.335.335h-8.1a.336.336,0,0,1-.335-.335v-8.53h1.466a1.113,1.113,0,0,0,1.112-1.112V16.788Zm7.52,19.12a2.941,2.941,0,1,0,2.083.857A2.922,2.922,0,0,0,41.056,35.909Zm-2.625.32a3.715,3.715,0,1,1,.012,5.254,3.719,3.719,0,0,1-.012-5.254Zm8.3,7.555-.344-.309a1.224,1.224,0,0,0-.673.674l.314.345a1.494,1.494,0,0,0,.7-.71Zm4.453,4.009a.705.705,0,0,1,.229.537.806.806,0,0,1-1.358.6l-3.493-3.845a2.247,2.247,0,0,0,.76-.766ZM35.735,38.156A5.378,5.378,0,0,0,42.193,44.1l-1.6,3.833a1.2,1.2,0,0,1-.958.688H26.345c-.258,0-.271-.178-.182-.391l3.926-9.391a1.2,1.2,0,0,1,.958-.688h4.687Zm.619-1.9h-3.22a.386.386,0,0,1-.228-.074L30.23,34.239H26.983a.867.867,0,0,0-.863.861l0,11.239,3.258-7.792a1.967,1.967,0,0,1,1.674-1.168h4.847a5.341,5.341,0,0,1,.459-1.119Zm.226,1.562a4.6,4.6,0,1,1,8.327,3.558.755.755,0,0,0,.1.955l.664.661a1.963,1.963,0,0,0-.438.438l-.664-.66a.755.755,0,0,0-.955-.092,4.6,4.6,0,0,1-7.032-4.859Zm-.659-16.96h2.26a.388.388,0,0,0,0-.777h-2.26a.388.388,0,0,0,0,.777Zm-3.421,0h1.8a.388.388,0,0,0,0-.777H32.5a.388.388,0,0,0,0,.777Zm0,2.037h5.681a.388.388,0,1,0,0-.777H32.5a.388.388,0,0,0,0,.777Zm4.552,2.037h1.129a.388.388,0,0,0,0-.777H37.052a.388.388,0,1,0,0,.777Zm-4.552,0h2.932a.388.388,0,0,0,0-.777H32.5a.388.388,0,0,0,0,.777Zm0,2.037h4.372a.388.388,0,1,0,0-.777H32.5a.388.388,0,0,0,0,.777Zm2.007-8.147h3.674a.388.388,0,0,0,0-.777H34.507a.388.388,0,1,0,0,.777ZM20.554,25.35v2.3a.388.388,0,0,0,.777,0v-2.3a.388.388,0,0,0-.777,0Zm1.909-1.1v3.4a.388.388,0,0,0,.777,0v-3.4a.388.388,0,0,0-.777,0Zm1.909-1.1v4.5a.388.388,0,0,0,.777,0v-4.5a.388.388,0,0,0-.777,0Zm1.909-1.1v5.6a.388.388,0,0,0,.777,0v-5.6a.388.388,0,0,0-.777,0Zm17.965-.912a2.138,2.138,0,1,0,3.024,0,2.138,2.138,0,0,0-3.024,0Zm3.4,3.735,1.646,2.05a.541.541,0,0,0,.849-.457.4.4,0,0,0-.106-.287l-2.052-1.644-.337.337Zm.757-.991a2.915,2.915,0,1,0-1.41,1.41l1.668,2.087a1.134,1.134,0,0,0,.922.425,1.3,1.3,0,0,0,.906-2.253L48.4,23.873ZM45.383,22a.746.746,0,0,1,1.107.522.387.387,0,1,0,.765-.124,1.521,1.521,0,0,0-2.26-1.068.387.387,0,0,0,.388.671Zm-9.654,7.011v3.236H45.6a.888.888,0,0,0,.886-.886V29.008H42.828A1.113,1.113,0,0,1,41.717,27.9V18.978a.387.387,0,0,1,.117-.278c.291-.288,2.545-2.566,2.635-2.624a.384.384,0,0,1,.22-.064h6.235a1.113,1.113,0,0,1,1.112,1.112V27.9a1.113,1.113,0,0,1-1.112,1.112H47.263v2.351A1.665,1.665,0,0,1,45.6,33.021H35.729v2.462h1.146a5.375,5.375,0,0,1,8.686,6.312l.857.852a.388.388,0,0,1,.321.1L51.7,47.216a1.581,1.581,0,0,1-1.1,2.711,1.484,1.484,0,0,1-1.118-.479l-4.5-4.949a.387.387,0,0,1-.1-.315l-.857-.853a5.339,5.339,0,0,1-.869.467l-1.855,4.436A1.967,1.967,0,0,1,39.633,49.4H26.345a.947.947,0,0,1-1-1.023l.006-13.28a1.639,1.639,0,0,1,1.636-1.638h3.372a.387.387,0,0,1,.245.087l2.659,1.935h1.693V33.021H25.08a1.665,1.665,0,0,1-1.662-1.662V29.008H19.757A1.113,1.113,0,0,1,18.645,27.9V18.978a.387.387,0,0,1,.117-.278c.291-.288,2.545-2.566,2.635-2.624a.384.384,0,0,1,.22-.064h6.235a1.113,1.113,0,0,1,1.112,1.112V27.9a1.113,1.113,0,0,1-1.112,1.112H24.194v2.351a.888.888,0,0,0,.886.886h9.872V29.008h-3.66A1.113,1.113,0,0,1,30.181,27.9V18.978A.387.387,0,0,1,30.3,18.7c.291-.288,2.545-2.566,2.635-2.624a.384.384,0,0,1,.22-.064h6.235A1.113,1.113,0,0,1,40.5,17.123V27.9a1.113,1.113,0,0,1-1.112,1.112h-3.66Z" transform="translate(171.086 2036.988)" fill-rule="evenodd"/>
  </g>
</svg>
